<?xml version="1.0" standalone="no"?> 
<!DOCTYPE svg PUBLIC "-//W3C//DTD SVG 1.1//EN" "http://www.w3.org/Graphics/SVG/1.1/DTD/svg11.dtd" >
<svg xmlns="http://www.w3.org/2000/svg">
<defs>
  <font id="icon-font" horiz-adv-x="128">
    <font-face font-family="icon-font"
      units-per-em="1000" ascent="1000"
      descent="0" />
    <missing-glyph horiz-adv-x="0" />
    <glyph glyph-name="add-element"
      unicode="&#xE001;"
      horiz-adv-x="1000" d=" M0 500C0 776.25 223.75 1000 500 1000C776.2499999999999 1000 1000 776.25 1000 500C1000 223.7500000000001 776.2499999999999 0 500 0C223.75 0 0 223.7500000000001 0 500 M541.6666666666666 541.6666666666667L541.6666666666666 666.8584345833333C541.6666666666666 689.3473166666668 523.0118625 708.3333333333334 500 708.3333333333334C476.8277 708.3333333333334 458.3333333333333 689.7643887500001 458.3333333333333 666.8584345833333L458.3333333333333 541.6666666666667L333.1415654166667 541.6666666666667C310.6526833333333 541.6666666666667 291.6666666666667 523.0118625 291.6666666666667 500C291.6666666666667 476.8277 310.23561125 458.3333333333334 333.1415654166667 458.3333333333334L458.3333333333333 458.3333333333334L458.3333333333333 333.1415666666667C458.3333333333333 310.6526833333334 476.9881375 291.6666666666668 500 291.6666666666668C523.1723 291.6666666666668 541.6666666666666 310.2356125 541.6666666666666 333.1415666666667L541.6666666666666 458.3333333333334L666.8584333333333 458.3333333333334C689.3473166666666 458.3333333333334 708.3333333333333 476.9881375 708.3333333333333 500C708.3333333333333 523.1723 689.7643875 541.6666666666667 666.8584333333333 541.6666666666667L541.6666666666666 541.6666666666667z" />
    <glyph glyph-name="arrow-friendly"
      unicode="&#xE002;"
      horiz-adv-x="1892.857142857143" d=" M215.9625671428572 846.9123935714285C245.0036417857143 859.6573432142857 279.5966878571429 874.2753064285714 319.738225 890.7703678571429C348.4163271428572 903.8551142857144 363.0388714285715 913.1676460714286 363.5261571428572 918.7029964285714C366.0427142857143 923.2605760714285 367.7109285714286 930.389775 368.5776321428572 940.1095135714286C371.0658535714286 967.7254812857142 361.1297 987.7341513571428 338.9056450000001 1000.000000000001C246.6929439285715 964.1055060714286 155.9082685714286 924.8113532142856 66.4719135714286 882.1125757142858C24.9240857142857 861.3767817857142 3.2445589071429 841.0146732142857 1.4333332285714 821.02625L0.2619511178571 807.2067942857143C-2.50988945 776.1805453571428 16.7166718214286 750.6375882142858 57.9087596428571 730.5918775C108.2653478571429 698.0427817857143 182.4309057142857 637.0356464285715 280.29782 547.4997571428571C311.2180767857143 522.5413178571429 327.9893153571429 509.9517499999999 330.6115353571429 509.73105C374.3376642857143 512.1992428571428 397.5109678571429 529.1337821428572 400.2679107142857 560.3991464285714L400.5335535714286 563.5842678571428C396.83645 569.4990357142857 345.8270175 615.8659535714286 247.4534596428572 702.7458071428572C217.4678671428572 728.3006532142857 192.9204435714286 748.89841 173.8142910714286 764.5354378571428C763.9036249999999 754.1387539285714 1480.7583464285715 629.4988142857143 1811.448125 42.0897428571428C1827.0477321428573 14.4004714285713 1878.5750857142857 22.9076964285714 1865.5019035714283 49.6021642857143C1809.1131107142855 165.1024464285714 1733.1011607142857 270.3865428571428 1640.0761392857141 359.2639178571428C1374.7683464285715 612.7192571428571 1011.0597928571428 739.014205 655.5678607142858 800.2092489285715C511.4856642857143 825.0360932142858 363.3480392857143 843.0909667857143 215.9625671428572 846.9123935714285z" />
    <glyph glyph-name="calendar"
      unicode="&#xE003;"
      horiz-adv-x="1000" d=" M875 812.5L937.5 812.5C972.0177937499984 812.5 1000 784.5177968750079 1000 750L1000 62.5C1000 27.9822062499875 972.0177937499984 0 937.5 0L62.5 0C27.9822031250063 0 0 27.9822062499875 0 62.5L0 750C0 784.5177968750079 27.9822031250063 812.5 62.5 812.5L125 812.5L125 937.5C125 972.0177968750078 152.9822031250063 1000 187.5 1000C222.0177968749937 1000 250 972.0177968750078 250 937.5L250 812.5L750 812.5L750 937.5C750 972.0177968750078 777.9822062500017 1000 812.5 1000C847.0177937499983 1000 875 972.0177968750078 875 937.5L875 812.5zM687.5 312.5L687.5 125L875 125L875 312.5L687.5 312.5z" />
    <glyph glyph-name="check"
      unicode="&#xE004;"
      horiz-adv-x="1000" d=" M500 0C223.857625 0 0 223.857625 0 500C0 776.142375 223.857625 1000 500 1000C776.142375 1000 1000 776.142375 1000 500C1000 223.857625 776.142375 0 500 0zM345.1305075 536.6719356250001C320.95234125 561.3071662499999 281.381264375 561.677689375 256.746034375 537.499523125C232.11080375 513.321356875 231.740280625 473.75028 255.918446875 449.11505L399.2834525 303.039875C423.19635875 278.67491875 462.23586375 278.0059750000001 486.96947625 301.5373687500001L815.87461875 614.455550625C840.8826 638.24797375 841.8679999999999 677.808514375 818.0755750000001 702.816490625C794.2831500000001 727.8244675000001 754.7226125 728.8098675 729.71463125 705.017444375L445.392168125 434.5149293750001L345.1305075 536.6719356250001z" />
    <glyph glyph-name="clock"
      unicode="&#xE005;"
      horiz-adv-x="1000" d=" M500 0C223.857625 0 0 223.857625 0 500C0 776.142375 223.857625 1000 500 1000C776.142375 1000 1000 776.142375 1000 500C1000 223.857625 776.142375 0 500 0zM500 125C707.10678125 125 875 292.89321875 875 500C875 707.10678125 707.10678125 875 500 875C292.89321875 875 125 707.10678125 125 500C125 292.89321875 292.89321875 125 500 125z M562.5 562.5L687.5 562.5C722.01779375 562.5 750 534.5177968749999 750 500C750 465.482203125 722.01779375 437.5 687.5 437.5L437.5 437.5L437.5 687.5C437.5 722.0177968749999 465.482203125 750 500 750C534.517796875 750 562.5 722.0177968749999 562.5 687.5L562.5 562.5z" />
    <glyph glyph-name="close"
      unicode="&#xE006;"
      horiz-adv-x="1000" d=" M897.12635 216.90456875L211.61093625 902.419981875C187.203168125 926.827750625 147.630356875 926.827750625 123.22258875 902.419981875C98.814820625 878.01221375 98.814820625 838.4394025 123.22258875 814.0316343750001L808.7379999999999 128.5162250000001C833.14576875 104.10845625 872.71858125 104.10845625 897.12635 128.5162250000001C921.53411875 152.92399375 921.53411875 192.4968 897.12635 216.90456875z M216.90457125 128.5162250000001L902.41998125 814.0316343750001C926.82775 838.4394025 926.82775 878.01221375 902.41998125 902.419981875C878.0122125 926.827750625 838.4394 926.827750625 814.0316375 902.419981875L128.516223125 216.90456875C104.108455 192.4968 104.108455 152.92399375 128.516223125 128.5162250000001C152.923991875 104.10845625 192.496803125 104.10845625 216.90457125 128.5162250000001z" />
    <glyph glyph-name="colapse"
      unicode="&#xE007;"
      horiz-adv-x="1300" d=" M728.772395 595.958912C722.863715 592.1574989999999 717.267754 587.671489 712.097147 582.500882C673.044718 543.448453 673.044718 480.1319549999999 712.097147 441.079526L1090.72803 62.448639C1129.78046 23.3962099999999 1193.0969599999999 23.3962099999999 1232.14939 62.448639C1271.20182 101.5010679999999 1271.20182 164.817566 1232.14939 203.869995L925.084007 510.935378L1238.02926 823.880633C1277.08169 862.9330620000001 1277.08169 926.24956 1238.02926 965.3019892C1198.97683 1004.35441839 1135.66033 1004.35441839 1096.60791 965.3019892L738.380231 607.074314C734.860367 603.554451 731.657755 599.837473 728.772395 595.958912zM92.4087583 595.958912C86.5000785 592.1574989999999 80.9041175 587.671489 75.7335106 582.500882C36.6810814 543.448453 36.6810814 480.1319549999999 75.7335106 441.079526L454.364398 62.448639C493.416827 23.3962099999999 556.733325 23.3962099999999 595.785754 62.448639C634.838183 101.5010679999999 634.838183 164.817566 595.785754 203.869995L288.720371 510.935378L601.6656260000001 823.880633C640.7180549999999 862.9330620000001 640.7180549999999 926.24956 601.6656260000001 965.3019892C562.613196 1004.35441839 499.296699 1004.35441839 460.244269 965.3019892L102.016595 607.074314C98.4967311 603.554451 95.294119 599.837473 92.4087583 595.958912z" />
    <glyph glyph-name="configure"
      unicode="&#xE008;"
      horiz-adv-x="1000" d=" M917.875 383.21875L836.4140625 443.6953125C836.6171875 444.9296875000001 836.7656250000001 446.171875 836.9609375 447.4140625C837.046875 447.921875 837.109375 448.4375 837.1875 448.9375C837.984375 454.2109375 838.65625 459.4765625 839.1953125 464.75C839.2265625 465.03125 839.25 465.296875 839.28125 465.578125C839.8359375 471.0781249999999 840.2578125 476.5859375 840.53125 482.09375C840.5546875 482.328125 840.5625 482.578125 840.5703124999999 482.8125C840.8359375 488.2656249999999 840.9843749999999 493.71875 840.9921874999999 499.1718749999999C840.9921874999999 499.4453124999999 841.0078124999999 499.7187499999999 841.0078124999999 499.9921874999999C841.0078124999999 500.296875 840.9921874999999 500.6015625 840.9921874999999 500.9062499999999C840.9921874999999 502.0937499999999 841.0156249999999 503.2968749999999 841 504.4843749999999C840.9921874999999 504.7031249999999 841 504.9218749999999 841 505.1484374999999C840.9609375 507.5234374999999 840.859375 509.8828124999999 840.7734375 512.2578124999999C840.7109375 513.7265625 840.640625 515.1796875 840.5703125 516.6406249999999C840.4140625000001 519.5468749999999 840.3046875 522.4531249999999 840.0859375 525.3515625C840.0546875 525.6484374999999 840.015625 525.9531249999999 840.0000000000001 526.25C839.9296875000001 527.1015625 839.8437500000001 527.9609375 839.7890625000001 528.8046875C839.6562500000001 530.34375 839.4765625 531.8828124999999 839.3281250000001 533.421875C839.2890625000001 533.7578125 839.2578125000001 534.09375 839.2265625 534.421875C839.203125 534.609375 839.1875000000001 534.8124999999999 839.1640625000001 535C839.0781250000001 535.7734374999999 839.015625 536.5546874999999 838.9375000000001 537.328125C838.8281250000001 538.2890625 838.7734375000001 539.25 838.6562500000001 540.203125C838.5937500000001 540.703125 838.5156250000001 541.1953125 838.4687500000001 541.6875C838.3984375000001 542.2265625 838.3046875000001 542.78125 838.2343750000001 543.3203125C837.7421875000001 547.28125 837.1875000000001 551.2265625 836.5468750000001 555.1484375C836.4921875000001 555.4921875 836.4687500000001 555.8359375 836.4140625000001 556.1796875L917.9843750000002 616.7421875C937.3437500000002 627.9140625 943.9687500000002 652.65625 932.7968750000002 672.0078125L865.3671875000002 788.796875C854.1953125000001 808.1484375 829.4453125000002 814.7734375 810.1015625000002 803.6015625L716.8515625000002 763.234375C716.3359375000002 763.6640625 715.7734375000002 764.03125 715.2578125000003 764.4453125C715.0156250000002 764.640625 714.7812500000002 764.8359375 714.5390625000003 765.03125C713.3359375000003 766.0078125 712.0937500000003 766.9453125 710.8671875000003 767.90625C709.5312500000002 768.9609375 708.2031250000003 770 706.8593750000003 771.015625C705.7578125000002 771.8515625 704.6484375000002 772.6640625 703.5468750000002 773.484375C703.0390625000002 773.875 702.5078125000002 774.2578125 701.9921875000002 774.640625C701.0859375000002 775.3046875 700.2031250000002 776 699.2890625000002 776.65625C698.7890625000002 777.0234375 698.2890625000002 777.3828125 697.7812500000002 777.75C696.5156250000002 778.6484375 695.2343750000003 779.515625 693.9531250000002 780.3984375C693.6328125000003 780.6171874999999 693.3125000000003 780.8515625 692.9843750000003 781.0703124999999C692.4296875000003 781.4531249999999 691.8671875000003 781.8359374999999 691.3125000000003 782.2109374999999C689.4453125000003 783.4843749999999 687.5703125000003 784.7343749999999 685.6796875000003 785.96875C685.4687500000003 786.1015625 685.2500000000002 786.234375 685.0390625000003 786.375C681.9453125000003 788.375 678.8359375000003 790.3437499999999 675.6796875000005 792.2421875C674.8750000000005 792.7265625 674.0703125000003 793.1796875 673.2578125000003 793.65625C666.4765625000005 797.6640625 659.5703125000005 801.4609375 652.5078125000003 804.9921875C652.3671875000003 805.0625 652.2421875000003 805.125 652.0937500000003 805.1875C642.9453125000003 809.7578125 633.5546875000003 813.9140625 623.9531250000003 817.671875C623.6875000000002 817.7734375 623.4218750000003 817.875 623.1562500000003 817.984375C621.9296875000003 818.4609375 620.7109375000002 818.9765624999999 619.4843750000003 819.4453125L607.8203125000003 920.3984375C607.8281250000003 942.7421875 589.7187500000003 960.859375 567.3671875000003 960.859375H432.5390625C410.1953125 960.859375 392.0859375000001 942.75 392.0859375000001 920.3984375L380.421875 819.4453125C379.875 819.2421875 379.3515625 819.0078125 378.8046875 818.8046875C378.171875 818.5625 377.5312500000001 818.3046875 376.8984375 818.0468749999999C373.1718750000001 816.6015625 369.4843750000001 815.1093749999999 365.828125 813.5390624999999C365.171875 813.2656249999999 364.515625 812.9609374999999 363.8671875 812.6796874999999C360.5546875 811.2343749999999 357.2578125000001 809.7499999999999 353.9921875 808.2109374999999C353.6484375 808.0468749999999 353.3046875 807.8749999999999 352.9609375 807.7109374999999C352.53125 807.5078124999999 352.1015625 807.3125 351.671875 807.1093749999999C350.4765625000001 806.5312499999999 349.2890625 805.9374999999999 348.1015625 805.3437499999999C345.359375 803.9765624999999 342.6484375 802.5703124999999 339.953125 801.1249999999999C338 800.0859374999999 336.03125 799.0624999999999 334.0859375000001 797.9921874999999C332.8593750000001 797.3046874999999 331.6562500000001 796.5703125 330.4375000000001 795.8749999999999C330.3437500000001 795.8281249999999 330.2500000000001 795.7656249999999 330.1562500000001 795.7109374999999C329.9296875 795.5781249999999 329.6875 795.4843749999999 329.4687500000001 795.3515624999999C329.0703125 795.1249999999999 328.7031250000001 794.8593749999999 328.3125 794.6406249999999C323.8984375 792.0781249999999 319.546875 789.4140624999999 315.2500000000001 786.6484374999999C314.7578125 786.3359374999999 314.2734375000001 786.0234374999999 313.7890625000001 785.7031249999999C313.2968750000001 785.3828124999999 312.7890625000001 785.0624999999999 312.2890625000001 784.7421874999999C312.1484375000001 784.6406249999999 312.0000000000001 784.5624999999999 311.8671875000001 784.4687499999999C308.1953125000001 782.0390624999999 304.5781250000001 779.5312499999999 300.9921875 776.9609374999999C300.4921875 776.6015624999999 299.984375 776.2421875 299.484375 775.8749999999999C295.4765625000001 772.9687499999999 291.5234375000001 769.9609374999999 287.6328125 766.8749999999999C286.9609375 766.3437499999999 286.28125 765.8046874999999 285.6171875 765.2656249999999C284.765625 764.5703125 283.890625 763.9218749999999 283.046875 763.2187499999999L189.921875 803.5312499999999C170.5703125 814.7031249999999 145.8203125 808.0703124999999 134.6484375 788.7187499999999L67.203125 671.953125C56.0234375 652.5859375 62.6640625 627.84375 82.0078125 616.671875L163.484375 556.1875C163.3203125 555.2109375 163.203125 554.2265625 163.046875 553.25C162.875 552.1328125 162.7109375 551.0234375 162.5546875 549.90625C161.875 545.265625 161.2734375 540.6328125 160.78125 536C160.6875 535.0859375 160.6015625 534.1796875 160.5078125 533.2578125C160.1015625 529.109375 159.7578125 524.953125 159.5078125 520.8046875C159.4921875 520.484375 159.4765625 520.15625 159.4609375 519.8359375C159.4375 519.484375 159.4296875 519.1328125 159.40625 518.78125C159.3515625 517.8671875 159.3125 516.9453125 159.265625 516.0234375C159.046875 511.2968750000001 158.9296875 506.5625 158.9140625 501.8437500000001C158.90625 501.1796875 158.859375 500.5390625 158.859375 499.8750000000001C158.859375 499.1562500000001 158.8984375 498.4296875000001 158.8984375 497.7109375000001C158.8984375 497.1875000000001 158.890625 496.65625 158.8984375 496.1328125000001C158.8984375 495.5625000000001 158.8828125 494.9921875000001 158.8984375 494.4140625000001C158.9296875 492.4843750000001 159.015625 490.5468750000001 159.0859375 488.6171875000001C159.1640625 486.1093750000001 159.296875 483.609375 159.4296875 481.1171875000001C159.546875 479.015625 159.6328125 476.921875 159.7890625 474.828125C159.8125 474.5312500000001 159.8359375 474.2265625000001 159.8515625 473.9296875000001C159.9296875 472.8906250000001 160.0234375 471.8515625 160.109375 470.828125C160.21875 469.4921875 160.375 468.1640625000001 160.5 466.8359375000001C160.7890625 463.828125 161.078125 460.828125 161.4453125 457.8515625C161.4453125 457.8125000000001 161.4609375 457.7656250000001 161.4609375 457.7265625C162.0078125 453.28125 162.640625 448.859375 163.3671875 444.4609375C163.40625 444.2109375000001 163.421875 443.9531250000001 163.46875 443.6875L82.015625 383.203125C62.65625 372.0312499999999 56.03125 347.2890625 67.2109375 327.9453125L134.6328125 211.15625C145.8046875 191.7968750000001 170.5546875 185.1718750000001 189.8984375 196.34375L283.0078125 236.6250000000001C283.6484375 236.0937500000001 284.328125 235.6484375000001 284.96875 235.1328125000001C285.078125 235.03125 285.203125 234.9609375 285.3125 234.875C285.3125 234.8593750000001 285.328125 234.8593750000001 285.328125 234.8515625C286.328125 234.0390625000001 287.359375 233.2578125000001 288.375 232.453125C289.96875 231.1953125 291.5625 229.9375 293.1796875 228.7109375C294.1171875 227.9921875 295.0625 227.3046875 296.0078125 226.59375C297.25 225.6718750000001 298.484375 224.734375 299.7421875000001 223.8203125C299.8828125000001 223.71875 300.0078125 223.625 300.1406250000001 223.515625C300.7343750000001 223.0859374999999 301.3125000000001 222.65625 301.9140625 222.234375C303.3593750000001 221.203125 304.8359375000001 220.2109375 306.296875 219.2109375C306.421875 219.1093749999999 306.5546875000001 219.03125 306.6796875 218.953125C307.2578125 218.5468749999999 307.828125 218.1484375 308.40625 217.765625C313.5234375 214.28125 318.7265625 210.9140625 324.046875 207.7109374999999C324.9765625 207.1562499999999 325.90625 206.6171874999999 326.8359375 206.0859374999999C333.5 202.1484374999999 340.296875 198.421875 347.2421875 194.9296875C347.4765625000001 194.8046874999999 347.71875 194.703125 347.9531250000001 194.5781249999999C358.46875 189.3437499999999 369.2734375 184.5781249999999 380.3671875000001 180.421875L392.0234375 79.609375C392.0234375 57.2734375 410.1328125 39.1484375 432.4843750000001 39.1484375L567.3359375 39.1406249999999C589.671875 39.1484375 607.796875 57.2499999999999 607.796875 79.609375L619.4609375 180.4375C620.0312499999999 180.6484375 620.578125 180.8906250000001 621.1484374999999 181.1015625C621.7109375 181.3125 622.2734375 181.5546875 622.828125 181.7734375C626.5859374999999 183.2265625 630.3203125 184.734375 634.015625 186.3125C634.7421875 186.6171875 635.4609375 186.9531249999999 636.1796875 187.265625C639.4765625 188.7109375 642.7578125 190.1796875 645.9921875 191.7109375C646.296875 191.8671875 646.6093749999999 192.015625 646.9140624999999 192.171875C646.9375 192.1796875 646.96875 192.1953125 646.9999999999999 192.2109375C647.3437499999999 192.375 647.7031249999999 192.5234375 648.0468749999999 192.703125C649.3203124999999 193.3203124999999 650.5937499999999 193.9453125 651.8515624999999 194.5781249999999C654.5468749999999 195.9140625 657.2031249999999 197.3046875 659.8437499999999 198.7109374999999C661.8593749999998 199.7812499999999 663.8749999999999 200.8203124999999 665.8671874999999 201.9218749999999C666.8828124999998 202.4843749999999 667.8828124999998 203.09375 668.8906249999999 203.6796874999999C669.2265624999999 203.8671874999999 669.5703124999999 204.0781249999999 669.9062499999998 204.2734374999998C670.0781249999999 204.3671874999998 670.2578124999998 204.4374999999998 670.4218749999999 204.5390624999999C670.7187499999998 204.7031249999999 670.9921874999998 204.8984374999999 671.2890624999999 205.0624999999998C675.8828124999998 207.7265624999998 680.4218749999999 210.4999999999998 684.8906249999999 213.3828124999998C685.2187499999999 213.5937499999998 685.5390624999999 213.8124999999999 685.8671874999999 214.0078124999998C686.5624999999999 214.4687499999998 687.2656249999999 214.8984374999998 687.9531249999999 215.3593749999998C691.7265624999999 217.8437499999998 695.4609374999998 220.4296874999998 699.1484374999999 223.0781249999998C699.5156249999999 223.3359374999998 699.8671874999999 223.5937499999998 700.2265624999999 223.8671874999998C704.375 226.8749999999998 708.4765624999999 229.9765624999998 712.4921874999999 233.1796874999998C713.0390624999998 233.6093749999998 713.5937499999999 234.0390624999998 714.1249999999999 234.4687499999998C715.0312499999999 235.2187499999998 715.9687499999999 235.9218749999999 716.8749999999999 236.6640624999998L809.9999999999999 196.3593749999998C829.3593749999999 185.1796874999998 854.1015624999999 191.8203124999998 865.2656249999999 211.1718749999998L932.6953124999998 327.9531249999999C943.8515625 347.3046875 937.2265625 372.046875 917.875 383.21875zM500 359.2734375C422.28125 359.2734375 359.2734375 422.2734374999999 359.2734375 500S422.28125 640.734375 500 640.734375S640.734375 577.71875 640.734375 500S577.71875 359.2734375 500 359.2734375z" />
    <glyph glyph-name="delete"
      unicode="&#xE009;"
      horiz-adv-x="812.5" d=" M775 937.5H562.5V1000H250V937.5H37.5C18.75 937.5 0 918.75 0 900V812.5H250H562.5H812.5V900C812.5 918.75 793.75 937.5 775 937.5z M62.5 43.75C62.5 18.75 81.25 0 106.25 0H706.2499999999999C731.25 0 749.9999999999999 18.75 749.9999999999999 43.75V750H62.5V43.75zM562.5 625H625V125H562.5V625zM375 625H437.5V125H375V625zM187.5 625H250V125H187.5V625z" />
    <glyph glyph-name="doppler-logo"
      unicode="&#xE00A;"
      horiz-adv-x="1000" d=" M740.75 501.75C711.5 454.75 628 460.75 609.25 515C609.25 515 587 595.25 500.75 595.75C414.5 595.25 392.25 515 392.25 515C373.5 460.75 290.25 454.75 260.75 501.75C241.25 533 249.2500000000001 555 252.5 565.5C252.5 565.5 314 741.25 500.5 741.25C687 741.25 749 565.5 749 565.5C752.25 555 760.25 533 740.75 501.75zM0 500C0 223.75 223.75 0 500 0C776.25 0 1000 223.75 1000 500C1000 776.25 776.25 1000 500 1000C223.75 1000 0 776.25 0 500z" />
    <glyph glyph-name="duplicate"
      unicode="&#xE00B;"
      horiz-adv-x="937.5" d=" M750 187.5L875 187.5C909.5177937499984 187.5 937.5 215.4822062500017 937.5 250L937.5 937.5C937.5 972.0177968750008 909.5177937499984 1000 875 1000L250 1000C215.4822031250063 1000 187.5 972.0177968750008 187.5 937.5L187.5 812.5L687.5 812.5C722.0177937499983 812.5 750 784.5177968750008 750 750L750 187.5z M62.5 750L625 750C659.5177937499983 750 687.5 722.0177968750008 687.5 687.5L687.5 62.5C687.5 27.9822062500017 659.5177937499983 0 625 0L62.5 0C27.9822031250063 0 0 27.9822062500017 0 62.5L0 687.5C0 722.0177968750008 27.9822031250063 750 62.5 750zM500 250C465.4822031250063 250 437.5 222.0177937499983 437.5 187.5L437.5 0L687.5 250L500 250z" />
    <glyph glyph-name="edit"
      unicode="&#xE00C;"
      horiz-adv-x="1000" d=" M125 281.25V125H281.25L742.0833333333333 585.8333333333334L585.8333333333333 742.0833333333334L125 281.25zM862.9166666666666 706.6666666666667C879.1666666666666 722.9166666666667 879.1666666666666 749.1666666666667 862.9166666666666 765.4166666666667L765.4166666666666 862.9166666666667C749.1666666666666 879.1666666666666 722.9166666666666 879.1666666666666 706.6666666666666 862.9166666666667L630.4166666666666 786.6666666666667L786.6666666666667 630.4166666666666L862.9166666666666 706.6666666666666z" />
    <glyph glyph-name="editor-save"
      unicode="&#xE00D;"
      horiz-adv-x="1000" d=" M0 937.4456250000094C0 971.9931249999833 28.0715624999992 1000 62.6372500000016 1000L815.5059999999992 1000L1000 804.214375000015L1000 63.1056249999915C1000 28.253124999992 972.210562499999 0 937.445499999999 0L62.554500000001 0C28.0066249999997 0 0 27.7893749999976 0 62.5543749999906L0 937.4456250000094zM125 875L125 562.5L812.5 562.5L812.5 875L125 875zM687.5 812.5L750 812.5L750 625L687.5 625L687.5 812.5z" />
    <glyph glyph-name="editor-saving"
      unicode="&#xE00E;"
      horiz-adv-x="1062.5" d=" M531.25 812.5C479.4733124999997 812.5 437.5 854.4731250000268 437.5 906.25C437.5 958.0268749999732 479.4733124999997 1000 531.25 1000C583.0266875000003 1000 625 958.0268749999732 625 906.25C625 854.4731250000268 583.0266875000003 812.5 531.25 812.5zM531.25 0C479.4733124999997 0 437.5 41.9731250000268 437.5 93.75C437.5 145.5268749999732 479.4733124999997 187.5 531.25 187.5C583.0266875000003 187.5 625 145.5268749999732 625 93.75C625 41.9731250000268 583.0266875000003 0 531.25 0zM843.75 500C843.75 551.7768749999732 885.7233124999997 593.75 937.5 593.75C989.2766875000004 593.75 1031.25 551.7768749999732 1031.25 500C1031.25 448.2231250000268 989.2766875000004 406.25 937.5 406.25C885.7233124999997 406.25 843.75 448.2231250000268 843.75 500zM31.25 500C31.25 551.7768749999732 73.2233124999997 593.75 125 593.75C176.7766875000003 593.75 218.75 551.7768749999732 218.75 500C218.75 448.2231250000268 176.7766875000003 406.25 125 406.25C73.2233124999997 406.25 31.25 448.2231250000268 31.25 500zM752.2208750000008 720.9706250000067C715.6091875000002 757.5825000000123 715.6091875000002 816.9418749999977 752.2208750000008 853.553125000019C788.8324999999999 890.1650000000245 848.1917499999998 890.1650000000245 884.8033750000006 853.553125000019C921.4150624999996 816.9418749999977 921.4150624999996 757.5825000000123 884.8033750000006 720.9706250000067C848.1917499999998 684.3593749999854 788.8324999999999 684.3593749999854 752.2208750000008 720.9706250000067zM177.6966249999994 146.446874999981C141.0849375000005 183.0581250000023 141.0849375000005 242.4174999999878 177.6966249999994 279.0293749999933C214.3082500000002 315.6406250000146 273.6675000000002 315.6406250000146 310.2791249999993 279.0293749999933C346.8908124999999 242.4174999999878 346.8908124999999 183.0581250000023 310.2791249999993 146.446874999981C273.6675000000002 109.8349999999755 214.3082500000002 109.8349999999755 177.6966249999994 146.446874999981zM752.2208750000008 279.0293749999933C788.8324999999999 315.6406250000146 848.1917499999998 315.6406250000146 884.8033750000006 279.0293749999933C921.4150624999996 242.4174999999878 921.4150624999996 183.0581250000023 884.8033750000006 146.446874999981C848.1917499999998 109.8349999999755 788.8324999999999 109.8349999999755 752.2208750000008 146.446874999981C715.6091875000002 183.0581250000023 715.6091875000002 242.4174999999878 752.2208750000008 279.0293749999933zM177.6966249999994 853.553125000019C214.3082500000002 890.1650000000245 273.6675000000002 890.1650000000245 310.2791249999993 853.553125000019C346.8908124999999 816.9418749999977 346.8908124999999 757.5825000000123 310.2791249999993 720.9706250000067C273.6675000000002 684.3593749999854 214.3082500000002 684.3593749999854 177.6966249999994 720.9706250000067C141.0849375000005 757.5825000000123 141.0849375000005 816.9418749999977 177.6966249999994 853.553125000019z" />
    <glyph glyph-name="element-image"
      unicode="&#xE00F;"
      horiz-adv-x="1222.2222222222222" d=" M1.56e-11 777.7777777777778C1.56e-11 716.4444444444445 49.7768853333333 666.6666666666666 111.1111111111111 666.6666666666666C172.4453366666667 666.6666666666666 222.2222222222222 716.4444444444445 222.2222222222222 777.7777777777778C222.2222222222222 839.1111111111111 172.4453366666667 888.8888888888889 111.1111111111111 888.8888888888889C49.7768853333333 888.8888888888889 1.56e-11 839.1111111111111 1.56e-11 777.7777777777778zM1222.2222222222222 55.5555555555555L777.7777777777778 888.8888888888889L444.4444444444445 333.3333333333333L333.3333333333334 555.5555555555555L0 55.5555555555555L1222.2222222222222 55.5555555555555z" />
    <glyph glyph-name="embed"
      unicode="&#xE010;"
      horiz-adv-x="1333.3333333333333" d=" M579.4679975000083 722.7188366666676L363.118490833339 506.3693299999983L592.2066574999955 277.2811666666684C641.022193333337 228.4656249999984 641.022193333337 149.3200083333335 592.2066574999955 100.5044666666682C543.3911208333294 51.6889333333335 464.2454983333361 51.6889333333335 415.42996166667 100.5044666666682L9.5651002499911 506.3693299999983L402.691301666664 899.4955316666685C451.5068383333301 948.3110683333346 530.6524608333423 948.3110683333346 579.4679975000083 899.4955316666685C628.2835341666744 850.6799949999978 628.2835341666744 771.5343724999997 579.4679975000083 722.7188366666676zM753.8653358333249 722.7188366666676C705.0497991666589 771.5343724999997 705.0497991666589 850.6799949999978 753.8653358333249 899.4955316666685C802.680872499991 948.3110683333346 881.8264916666673 948.3110683333346 930.6420333333372 899.4955316666685L1323.7682333333396 506.3693299999983L917.9033749999992 100.5044666666682C869.0878333333292 51.6889333333335 789.9422125000038 51.6889333333335 741.1266758333378 100.5044666666682C692.3111399999963 149.3200083333335 692.3111399999963 228.4656249999984 741.1266758333378 277.2811666666684L970.2148416666698 506.3693299999983L753.8653358333249 722.7188366666676z" />
    <glyph glyph-name="globo"
      unicode="&#xE011;"
      horiz-adv-x="923.0769230769231" d=" M261.5384615384616 573.0769230769231C284.6153846153846 534.6153846153846 353.8461538461538 538.4615384615385 369.2307692307693 584.6153846153848C369.2307692307693 584.6153846153848 388.4615384615385 653.8461538461539 457.6923076923076 653.8461538461539C526.9230769230769 653.8461538461539 546.1538461538461 584.6153846153848 546.1538461538461 584.6153846153848C561.5384615384615 538.4615384615386 630.7692307692307 534.6153846153846 653.8461538461538 573.0769230769231C669.2307692307692 600 661.5384615384614 619.2307692307693 661.5384615384614 626.9230769230769C661.5384615384614 626.9230769230769 611.5384615384614 776.9230769230769 457.6923076923076 776.9230769230769H457.6923076923076H457.6923076923076C303.8461538461538 776.9230769230769 253.8461538461538 626.9230769230769 253.8461538461538 626.9230769230769C253.8461538461538 619.2307692307693 246.1538461538462 600 261.5384615384616 573.0769230769231M461.5384615384615 1000C715.3846153846154 1000 923.076923076923 792.3076923076923 923.076923076923 538.4615384615385C923.076923076923 400 861.5384615384614 273.0769230769232 765.3846153846152 188.4615384615385L819.230769230769 7.6923076923077L642.3076923076922 111.5384615384616C588.4615384615382 88.4615384615383 526.9230769230768 76.9230769230769 461.5384615384614 76.9230769230769C207.6923076923077 76.9230769230769 0 284.6153846153847 0 538.4615384615385C0 792.3076923076923 207.6923076923077 1000 461.5384615384615 1000" />
    <glyph glyph-name="grid-check"
      unicode="&#xE012;"
      horiz-adv-x="1444.4444444444446" d=" M220.0770000000003 621.8625555555566C176.685333333334 665.254111111109 106.3336666666651 665.254111111109 62.9421111111097 621.8625555555566C19.5505555555542 578.470999999998 19.5505555555542 508.1193333333355 62.9421111111097 464.7277777777769L434.553222222222 93.1165555555569C508.2543333333326 19.4154444444431 627.4653333333333 19.5032222222203 701.0786666666668 93.1165555555569L1406.0231111111125 798.0611111111102C1449.4147777777787 841.4526666666688 1449.4147777777787 911.8043333333314 1406.0231111111125 955.19588888889C1362.631555555557 998.5874444444424 1292.279888888888 998.5874444444424 1248.8883333333326 955.19588888889L567.8159999999998 274.123555555554L220.0770000000003 621.8625555555566z" />
    <glyph glyph-name="grid-delete"
      unicode="&#xE013;"
      horiz-adv-x="1000" d=" M312.5 1000L312.5 937.5L62.5 937.5L62.5 812.4375L875 812.4375L875 937.5L625 937.5L625 1000L312.5 1000zM125 0L812.5 0L812.5 750L125 750L125 0zM625 125L687.5 125L687.5 625L625 625L625 125zM437.5625 125L500.0624999999999 125L500.0624999999999 625L437.5625 625L437.5625 125zM250 125L312.5 125L312.5 625L250 625L250 125z" />
    <glyph glyph-name="grid-draft"
      unicode="&#xE014;"
      horiz-adv-x="842.1052631578947" d=" M789.4736842105262 1e-13H52.6315789473684C21.0526315789462 1e-13 0 21.0526315789463 0 52.6315789473684S21.0526315789462 105.2631578947369 52.6315789473684 105.2631578947369H789.4736842105262C821.0526315789485 105.2631578947369 842.1052631578947 84.2105263157907 842.1052631578947 52.6315789473684S821.0526315789485 1e-13 789.4736842105262 1e-13z M815.7894736842105 742.105263157893C842.1052631578947 768.4210526315771 842.1052631578947 805.2631578947345 815.7894736842105 831.5789473684187L668.4210526315783 978.9473684210508C642.1052631578941 1005.263157894735 605.2631578947368 1005.263157894735 578.9473684210526 978.9473684210508L463.1578947368426 863.157894736841L700.0000000000006 626.315789473683L815.7894736842105 742.105263157893L815.7894736842105 742.105263157893zM52.6315789473684 457.8947368421047V221.0526315789468H289.4736842105263L626.315789473683 557.8947368421035L389.4736842105251 794.7368421052614L52.6315789473684 457.8947368421047z" />
    <glyph glyph-name="grid-edit"
      unicode="&#xE015;"
      horiz-adv-x="1000" d=" M967.6754375 693.519736875C997.24310625 723.08740625 997.24310625 770.85056375 967.6754375 800.418233125L790.269425 977.824248125C760.70175625 1007.3919173125 712.93859375 1007.3919173125 683.3709249999999 977.824248125L544.6303256250001 839.083646875L828.9348375 554.779135625L967.6754375 693.519736875L967.6754375 693.519736875zM0 294.45331875L0 10.1488125L284.30451125 10.1488125L747.81328125 473.65758125L463.508771875 757.9620924999999L0 294.45331875z" />
    <glyph glyph-name="grid-reports"
      unicode="&#xE016;"
      horiz-adv-x="1000" d=" M750 1000H1000V0H750V1000z M375 687.5H625V0H375V687.5z M0 375H250V0H0V375z" />
    <glyph glyph-name="grid-sorting-down"
      unicode="&#xE017;"
      horiz-adv-x="1766.6666666666665" d=" M1616.6666666666647 399.9999999999963L1516.6666666666656 299.9999999999972V916.666666666662C1516.6666666666656 966.6666666666638 1474.9999999999989 1008.3333333333306 1433.3333333333323 1008.3333333333306C1383.3333333333303 1008.3333333333306 1349.9999999999989 966.6666666666638 1349.9999999999989 916.666666666662V299.9999999999972L1250 399.9999999999963C1216.6666666666686 433.3333333333277 1158.3333333333314 433.3333333333277 1125 399.9999999999963C1091.6666666666686 366.6666666666648 1091.6666666666686 308.3333333333277 1125 274.9999999999963L1375 24.9999999999962C1391.6666666666656 8.3333333333305 1416.6666666666665 -4.7e-12 1433.3333333333323 -4.7e-12C1458.3333333333333 -4.7e-12 1474.9999999999989 8.3333333333305 1491.6666666666647 24.9999999999962L1741.6666666666647 274.9999999999963C1774.9999999999961 308.3333333333277 1774.9999999999961 366.6666666666648 1741.6666666666647 399.9999999999963S1650.000000000001 433.3333333333325 1616.6666666666647 399.9999999999963z M908.3333333333314 750H416.6666666666667C366.6666666666648 750 333.3333333333333 783.3333333333314 333.3333333333333 833.3333333333334S366.6666666666648 916.6666666666666 416.6666666666667 916.6666666666666H908.3333333333314C958.3333333333331 916.6666666666666 991.6666666666646 883.3333333333352 991.6666666666646 833.3333333333334S958.3333333333331 750 908.3333333333314 750z M900.0000000000009 416.6666666666668H266.6666666666657C216.6666666666638 416.6666666666668 183.3333333333324 449.9999999999982 183.3333333333324 500S216.6666666666638 583.3333333333334 266.6666666666657 583.3333333333334H900.0000000000009C950.0000000000028 583.3333333333334 983.3333333333342 550.0000000000019 983.3333333333342 500S949.999999999998 416.6666666666668 900.0000000000009 416.6666666666668z M900.0000000000009 83.3333333333334H83.3333333333333C33.3333333333314 83.3333333333334 0 116.6666666666648 0 166.6666666666668S33.3333333333314 250 83.3333333333333 250H900.0000000000009C950.0000000000028 250 983.3333333333342 216.6666666666686 983.3333333333342 166.6666666666668S949.999999999998 83.3333333333334 900.0000000000009 83.3333333333334z" />
    <glyph glyph-name="grid-sorting-up"
      unicode="&#xE018;"
      horiz-adv-x="1766.6666666666665" d=" M1741.6666666666647 599.9999999999991C1774.9999999999961 633.3333333333305 1774.9999999999961 691.6666666666677 1741.6666666666647 724.9999999999991L1491.6666666666647 974.999999999999C1474.9999999999989 991.6666666666648 1449.999999999998 1000 1433.3333333333323 1000C1408.3333333333314 1000 1391.6666666666656 991.6666666666648 1375 974.999999999999L1125 724.9999999999991C1091.6666666666686 691.6666666666677 1091.6666666666686 633.3333333333305 1125 599.9999999999991C1158.3333333333314 566.6666666666677 1216.6666666666686 566.6666666666677 1250 599.9999999999991L1349.9999999999989 699.9999999999982V83.3333333333334C1349.9999999999989 33.3333333333314 1391.6666666666656 -8.3333333333352 1433.3333333333323 -8.3333333333352C1483.3333333333342 -8.3333333333352 1516.6666666666656 33.3333333333314 1516.6666666666656 83.3333333333334V699.9999999999982L1616.6666666666647 599.9999999999991C1650.000000000001 566.6666666666629 1708.3333333333333 566.6666666666629 1741.6666666666647 599.9999999999991z M908.3333333333314 250H416.6666666666667C366.6666666666648 250 333.3333333333333 216.6666666666686 333.3333333333333 166.6666666666668S366.6666666666648 83.3333333333334 416.6666666666667 83.3333333333334H908.3333333333314C958.3333333333331 83.3333333333334 991.6666666666646 116.6666666666648 991.6666666666646 166.6666666666668S958.3333333333331 250 908.3333333333314 250z M900.0000000000009 583.3333333333334H266.6666666666657C216.6666666666638 583.3333333333334 183.3333333333324 550.0000000000019 183.3333333333324 500S216.6666666666638 416.6666666666668 266.6666666666657 416.6666666666668H900.0000000000009C950.0000000000028 416.6666666666668 983.3333333333342 449.9999999999982 983.3333333333342 500S949.999999999998 583.3333333333334 900.0000000000009 583.3333333333334z M900.0000000000009 916.6666666666666H83.3333333333333C33.3333333333314 916.6666666666666 0 883.3333333333352 0 833.3333333333334S33.3333333333314 750 83.3333333333333 750H900.0000000000009C950.0000000000028 750 983.3333333333342 783.3333333333314 983.3333333333342 833.3333333333334S949.999999999998 916.6666666666666 900.0000000000009 916.6666666666666z" />
    <glyph glyph-name="grid-sorting"
      unicode="&#xE019;"
      horiz-adv-x="1750" d=" M1602.6815583333332 400.0350141666667L1503.0592416666666 299.0196075L1503.0592416666666 912.4649858333333C1503.0592416666666 960.78431375 1464.384375 1000 1416.7314166666665 1000C1368.9057916666666 1000 1330.4035833333332 960.78431375 1330.4035833333332 912.4649858333333L1330.4035833333332 298.8445375L1230.7812666666666 400.0350141666667C1196.9407583333332 434.1736691666668 1142.3815666666667 434.1736691666668 1108.7137166666666 400.0350141666667C1074.8732083333332 365.8963583333333 1074.8732083333332 310.39916 1108.7137166666666 276.2605041666667L1355.4386499999998 25.5602250000001C1371.6682833333332 9.2787083333334 1393.59555 0 1416.5587583333331 0C1439.5219583333333 0 1461.4492249999998 9.2787083333334 1477.5062083333332 25.5602250000001L1724.7491083333332 276.2605041666667C1758.4169666666664 310.39916 1758.4169666666664 365.8963583333333 1724.7491083333332 400.0350141666667C1691.0812583333332 434.1736691666668 1636.3494083333333 434.1736691666668 1602.6815583333332 400.0350141666667z M892.6920583333333 833.3333333333334L403.8031683333333 833.3333333333334 M883.5122916666666 500L247.7472 500 M883.5122916666666 166.6666666666668L67.69205725 166.6666666666668" />
    <glyph glyph-name="header-help"
      unicode="&#xE01A;"
      horiz-adv-x="1000" d=" M0 500C0 223.8576250846031 223.8576250846033 0 500 0C776.1423749153969 0 1000 223.8576250846031 1000 500C1000 776.1423749153968 776.1423749153969 1000 500 1000C223.8576250846033 1000 0 776.1423749153968 0 500z M377.7777777777778 677.7777777777778C411.1111111111112 705.5555555555555 450 722.2222222222222 505.5555555555555 722.2222222222222C555.5555555555555 722.2222222222222 594.4444444444445 711.1111111111111 622.2222222222222 683.3333333333333C650 655.5555555555555 666.6666666666667 627.7777777777778 666.6666666666667 588.8888888888889C666.6666666666667 566.6666666666666 661.1111111111112 544.4444444444443 650 533.3333333333333C638.8888888888889 516.6666666666665 616.6666666666666 494.4444444444445 583.3333333333334 466.6666666666666C561.1111111111111 444.4444444444445 544.4444444444445 427.7777777777779 538.8888888888889 411.1111111111111C533.3333333333334 394.4444444444445 527.7777777777778 377.7777777777779 527.7777777777778 350H461.1111111111111C461.1111111111111 383.3333333333334 466.6666666666667 405.5555555555556 472.2222222222222 427.7777777777779C483.3333333333333 444.4444444444445 500 466.6666666666666 527.7777777777778 494.4444444444445L555.5555555555555 522.2222222222222C566.6666666666666 527.7777777777778 572.2222222222223 538.8888888888889 577.7777777777778 544.4444444444445C588.8888888888889 561.1111111111111 594.4444444444446 572.2222222222222 594.4444444444446 588.8888888888889C594.4444444444446 611.1111111111111 588.888888888889 627.7777777777778 572.2222222222223 644.4444444444445C561.1111111111111 661.1111111111111 533.3333333333334 672.2222222222222 500 672.2222222222222C455.5555555555555 672.2222222222222 427.7777777777778 661.1111111111111 411.1111111111112 627.7777777777778C405.5555555555556 611.1111111111111 400 588.8888888888889 400 561.1111111111111H333.3333333333334C333.3333333333334 611.1111111111111 350 650 377.7777777777778 677.7777777777778C377.7777777777778 677.7777777777778 350 650 377.7777777777778 677.7777777777778zM461.1111111111111 294.4444444444445H533.3333333333334V222.2222222222222H461.1111111111111V294.4444444444445z" />
    <glyph glyph-name="key"
      unicode="&#xE01B;"
      horiz-adv-x="1000" d=" M897.269231249993 897.2692306249996C772.1025624999953 1022.4487179375004 569.166666875006 1022.4487179375004 444.0000000000026 897.2692306249996C358.2564099999957 811.5256412500003 331.2820512499997 689.3076925000016 362.9999999999996 580.58974375L8.8461538749982 226.4230749999996L26.9743589999933 26.9871812500001L226.423076874994 8.858974999999L279.8076925000004 62.2307687499983L244.5512818750047 153.8974374999996L271.7435899999998 181.0897437500003L363.3974356250036 145.8333312499996L580.5512818750032 362.9871812499985C689.2820500000028 331.2564125000001 811.5128187500034 358.2307687500013 897.2564124999991 443.9743587500011C1022.435900000005 569.1666668749988 1022.435900000005 772.1153843749988 897.269231249993 897.2692306249996zM815.679487500006 670.6282049999999C775.6153874999967 630.5641024999993 710.6923062499959 630.5897437500007 670.6410249999948 670.6282049999999C630.5897437499937 710.6923075000004 630.5769249999997 775.6153843750013 670.6410249999948 815.6794868749984C710.679487500002 855.7179487500015 775.6282062500048 855.7179487500015 815.6923062499999 815.6794868749984C855.7307687499929 775.6282050000003 855.717949999999 710.6666668749995 815.679487500006 670.6282049999999z" />
    <glyph glyph-name="loader"
      unicode="&#xE01C;"
      horiz-adv-x="1000" d=" M991.44 420.64C991.44 420.64 869.72 768.36 500.4400000000001 768.36H500.0400000000001H499.4400000000001C130.3400000000001 768.36 8.46 420.64 8.46 420.64C2.32 399.4600000000001 -13.52 355.92 25.08 294.38C83.2600000000001 201.18 248.1 213.4400000000001 285.3200000000001 320.32C285.3200000000001 320.32 329.4600000000001 479.22 500.0400000000001 480.4200000000001C670.6400000000001 479.22 714.76 320.32 714.76 320.32C751.9799999999999 213.44 916.84 201.18 975.02 294.38C1013.4 355.92 997.8 399.48 991.44 420.64z" />
    <glyph glyph-name="maximize"
      unicode="&#xE01D;"
      horiz-adv-x="1000" d=" M83.3333333333333 1000C37.5 1000 0 962.5 0 916.6666666666666V83.3333333333334C0 37.5 37.5 0 83.3333333333333 0H916.6666666666666C962.5 0 1000 37.5 1000 83.3333333333334V916.6666666666666C1000 962.5 962.5 1000 916.6666666666666 1000H83.3333333333333zM125 125V416.6666666666668L229.1666666666667 312.5L375 458.3333333333334L458.3333333333333 375L312.5 229.1666666666668L416.6666666666667 125H125zM875 875V583.3333333333334L770.8333333333333 687.5L625 541.6666666666667L541.6666666666666 625L687.5 770.8333333333334L583.3333333333333 875H875z" />
    <glyph glyph-name="money"
      unicode="&#xE01E;"
      horiz-adv-x="1000" d=" M500 14.6136374999983C769.7954562499998 14.6136374999983 988.5909062499998 233.4318187499989 988.5909062499998 503.2954543749995C988.5909062499998 773.0681818749972 769.7954562499998 991.8863636249994 500 991.8863636249994C230.1363637500007 991.8863636249994 11.363636375 773.0681818749972 11.4090838125005 503.2954543749995C11.363636375 233.4318187499989 230.1363637500007 14.6136374999983 500 14.6136374999983zM313.8409093749993 306.4999999999998L344.6818181250002 357.3409062500019C352.7272724999993 370.7045437500015 371.5909093749997 375.2500000000012 384.9318181250005 366.8409062499975C413.5227275000002 349.1136374999968 444.8181818750001 331.7954562499993 485.2045456250007 331.7954562499993C529.7272725000006 331.7954562499993 556.3181818749996 350.5227249999976 556.3181818749996 381.9772725000021C556.3181818749996 412.2500000000003 533.6363637500003 432.7727275000016 475.3409093749994 454.8636362500033C406.7272724999995 480.8409093749972 328.0227275000005 523.5681818749995 328.0227275000005 624.5227275000004C328.0227275000005 707.9545456250003 376.6818181250003 769.0909093750022 458.3863637499999 788.9318181250005L458.4318181249998 846.0681818749975C458.3863637499999 853.9545456250011 461.4772724999998 861.3409093750022 467.0000000000005 866.8863637499982C472.5909093750005 872.4772724999993 479.9545456250005 875.5227274999982 487.8636362499993 875.5227274999982L527.4090906249995 875.5227274999982C543.6590906250008 875.5227274999982 556.8409093749996 862.3409093749999 556.8409093749996 846.0681818749975L556.8409093749996 795.7499999999982C607.8409093749997 789.5909093750006 647.8863624999996 759.3863637499965 667.54545625 741.5454543750002C679.1818187499991 730.8636362499997 680.0227250000006 711.2727275000026 669.3636375000001 698.7727274999997L636.5227250000007 660.5454543749971C626.7954562500008 649.0000000000009 609 648.0000000000032 596.2045456249996 658.2045456249972C581.1136362500005 670.2045456249976 556.4318181250005 684.613636249999 524.4318181250005 684.613636249999C484.2954543749993 684.613636249999 461.2727275000008 668.2954543749986 461.2727275000008 639.8409093750033C461.2727275000008 614.7954543749989 483.7272724999995 597.2272724999996 553.7727275000002 567.6363637499975C649.5681812500003 529.4999999999987 690.5000000000001 477.6363637500012 690.5000000000001 394.3863637500016C690.5000000000001 307.2045437499967 637.9090937500002 242.181818749998 552.8863637499999 223.7045437500029L552.8863637499999 160.3636374999979C552.8863637499999 144.1363624999995 539.7045456249998 130.9545437500006 523.5000000000003 130.9545437500006L483.8181818749998 130.9545437500006C467.6136362500003 131.0000000000002 454.4772725000001 144.181818749999 454.4772725000001 160.3636374999979L454.4772725000001 216.7045437499979C407.4772724999996 220.9772750000027 352.7727274999997 249.0681812500029 323.7272724999994 265.8181812499976C317.0454543750001 269.7727250000028 312.2954543750006 276.1363624999973 310.4090906250008 283.7727249999987C308.4090906250001 291.4545437499997 309.7499999999993 299.6818187500026 313.8409093749993 306.4999999999998z" />
    <glyph glyph-name="notification"
      unicode="&#xE01F;"
      horiz-adv-x="944.4444444444445" d=" M588.4743166666718 91.4286777777777C572.6761444444467 37.8074944444445 526.9351833333328 -0.8861388888888 473.2570722222186 -0.8861388888888C419.578958888893 -0.8861388888888 373.8380005555529 37.8074944444445 358.0398261111163 91.4286777777777L33.3483711111108 91.4286777777777L37.1298216666673 91.4286777777777L37.1298216666673 204.8721833333333C82.5072233333357 216.2165333333334 163.1781600000042 272.9382833333333 163.1781600000042 556.547045C163.1781600000042 772.0897038888888 308.1337488888873 847.7187066666668 401.4095194444407 872.9283744444443C393.8466188888899 885.5332083333334 390.065168888883 899.3985255555555 390.065168888883 914.5243261111112C390.065168888883 961.1622112777778 429.1401538888901 998.9767127666667 475.7780388888856 998.9767127666667C522.4159222222195 998.9767127666667 561.4909111111123 961.1622112777778 561.4909111111123 914.5243261111112C561.4909111111123 899.3985255555555 557.7094611111054 885.5332083333334 550.1465611111169 872.9283744444443C643.422327777772 846.4582233333334 788.3779166666677 772.0897038888888 788.3779166666677 556.547045C788.3779166666677 272.9382833333333 869.0488555555602 216.2165333333334 914.4262555555542 204.8721833333333L914.4262555555542 91.4286777777777L588.4743166666718 91.4286777777777z" />
    <glyph glyph-name="pending"
      unicode="&#xE020;"
      horiz-adv-x="5000" d=" M500 0C223.8576250000127 0 0 223.8576266666618 0 500C0 776.1423733333384 223.8576250000127 1000 500 1000C776.1423733333382 1000 1000 776.1423733333384 1000 500C1000 223.8576266666618 776.1423733333382 0 500 0zM4000 500C4000 776.1423733333384 4223.857633333333 1000 4500 1000C4776.142366666666 1000 5000 776.1423733333384 5000 500C5000 223.8576266666618 4776.142366666666 0 4500 0C4223.857633333333 0 4000 223.8576266666618 4000 500zM2146.446609999998 853.5533900000019C2341.7087566666623 1048.815536666666 2658.2912433333377 1048.815536666666 2853.553390000002 853.5533900000019C3048.815536666666 658.2912433333377 3048.815536666666 341.7087566666624 2853.553390000002 146.4466099999982C2658.2912433333377 -48.815536666666 2341.7087566666623 -48.815536666666 2146.446609999998 146.4466099999982C1951.184463333334 341.7087566666624 1951.184463333334 658.2912433333377 2146.446609999998 853.5533900000019z" />
    <glyph glyph-name="pointer"
      unicode="&#xE021;"
      horiz-adv-x="862.0689655172415" d=" M431.0344827586208 -1e-13C431.0344827586208 -1e-13 0 323.3630586206896 0 564.1025655172414C0 804.8420703448276 192.9807113793104 1000 431.0344827586208 1000C669.0882551724138 1000 862.0689655172415 804.8420703448276 862.0689655172415 564.1025655172414C862.0689655172415 323.3630586206896 431.0344827586208 -1e-13 431.0344827586208 -1e-13zM431.0344827586208 435.8974344827585C515.0534620689656 435.8974344827585 583.1643 504.7767034482758 583.1643 589.7435896551724C583.1643 674.7104744827586 515.0534620689656 743.5897434482758 431.0344827586208 743.5897434482758C347.0155034482759 743.5897434482758 278.9046651724139 674.7104744827586 278.9046651724139 589.7435896551724C278.9046651724139 504.7767034482758 347.0155034482759 435.8974344827585 431.0344827586208 435.8974344827585z" />
    <glyph glyph-name="redo"
      unicode="&#xE022;"
      horiz-adv-x="1000" d=" M989.31434375 612.671L581.643066875 931.8585C564.04316125 945.6710000625 538.900439375 932.546 538.900439375 909.546L538.900439375 734.1085C362.30275 725.9835 235.990504375 674.1085 137.215525 572.2335C-9.4503525625 420.9835 0.1278272375 230.3585000000001 0.1278272375 181.6084999999999L0.1278272375 117.3585000000001C0.0080999900625 98.2334999999999 19.463777625 71.2334999999999 43.4690906875 114.7335000000001L82.7396275 180.2960000000001C140.20870625 274.0460000000001 209.05187375 360.9835000000001 295.8541275 400.3585C363.5000225 432.2960000000001 426.356826875 454.7335 538.900439375 458.546L538.900439375 271.1710000000001C538.900439375 248.1710000000001 564.04316125 235.046 581.643066875 248.7960000000001L989.31434375 568.046C1003.5618875000002 579.171 1003.5618875000002 601.4835 989.31434375 612.671" />
    <glyph glyph-name="rename"
      unicode="&#xE023;"
      horiz-adv-x="1000" d=" M458.3333333333333 750L458.3333333333333 250L333.3333333333333 250L333.3333333333333 166.6666666666668L666.6666666666666 166.6666666666668L666.6666666666666 250L541.6666666666666 250L541.6666666666666 750L666.6666666666666 750L666.6666666666666 833.3333333333334L333.3333333333333 833.3333333333334L333.3333333333333 750z" />
    <glyph glyph-name="reports"
      unicode="&#xE024;"
      horiz-adv-x="1000" d=" M1000 1000L1000 0L750 0L750 1000L1000 1000zM625 687.5L625 0L375 0L375 687.5L625 687.5zM250 375L250 0L0 0L0 375L250 375z" />
    <glyph glyph-name="revert"
      unicode="&#xE025;"
      horiz-adv-x="1222.2222222222222" d=" M712.9611111111111 944.5665H64.815C29.2592777777778 944.5665 0 915.3072222222222 0 879.7516666666667V231.6055555555556C0 196.05 29.2592777777778 166.7888888888889 64.815 166.7888888888889H632.8055555555555L443.7638888888889 316.5388888888888C429.6844444444445 327.6944444444445 429.7322222222222 349.0722222222222 443.8622222222222 360.1666666666667L779.7888888888889 623.8199999999999L777.7777777777778 879.7516666666667C777.7777777777778 915.3072222222222 748.5166666666667 944.5665 712.9611111111111 944.5665zM555.5555555555555 667.2161111111111C555.5555555555555 636.5338888888889 530.6822222222222 611.6605555555556 500 611.6605555555556H277.7777777777778C247.0955555555556 611.6605555555556 222.2222222222222 636.5338888888889 222.2222222222222 667.2161111111111V889.0111111111111H555.5555555555555V667.2161111111111z M511.9927777777778 353.0111111111112L783.7722222222222 565.8055555555555C795.5055555555556 575.0138888888889 812.2666666666667 566.2638888888889 812.2666666666667 550.9305555555555V433.9722222222223C929.9999999999998 428.5555555555556 1014.2111111111112 393.9722222222222 1080.0611111111111 326.0555555555556C1177.838888888889 225.2222222222222 1171.45 98.1388888888889 1171.45 65.6388888888888V22.8055555555554C1171.5277777777778 10.0555555555555 1158.5611111111111 -7.9444444444445 1142.5555555555554 21.0555555555557L1116.3777777777777 64.7611111111112C1078.0611111111111 127.2611111111111 1032.1666666666667 185.2222222222222 974.3 211.4722222222222C929.2 232.7611111111111 887.3 247.7222222222222 812.2666666666667 250.2611111111111V125.3444444444444C812.2666666666667 110.0111111111111 795.5055555555556 101.2611111111112 783.7722222222222 110.4277777777778L511.9927777777778 323.2611111111111C502.4944444444445 330.6777777777777 502.4944444444445 345.5555555555556 511.9927777777778 353.0111111111112z" />
    <glyph glyph-name="sandclock"
      unicode="&#xE026;"
      horiz-adv-x="1000" d=" M580.282049375 482.2048506249999C574.385835625 480.241060625 568.457044375 478.48049875 562.5 476.9309775L562.5 241.1224375C645.99353125 217.37445 720.1315687499999 148.32313125 775.21876875 62.5L842.57395 62.5C829.6974437499999 236.0737750000001 712.8655625 424.473611875 580.282049375 482.2048506249999L580.282049375 482.2048506249999zM905.227875 62.5L937.5 62.5L937.5 0L62.5 0L62.5 62.5L94.772124375 62.5C106.23432 239.7589375 212.822338125 429.766134375 349.8434293750001 515.625C220.84667 596.455734375 118.822868125 769.593558125 97.75163375 937.5L62.5 937.5L62.5 1000L937.5 1000L937.5 937.5L902.24836875 937.5C881.17713125 769.593558125 779.15333125 596.455734375 650.15656875 515.625C787.1776625 429.766134375 893.76568125 239.7589375 905.227875 62.5zM157.42605 62.5L224.78122875 62.5C279.868430625 148.32313125 354.0064675 217.37445 437.5 241.1224375L437.5 476.9309775C431.542955625 478.48049875 425.614164375 480.241060625 419.717950625 482.2048506249999C287.134434375 424.473611875 170.3025575 236.0737750000001 157.42605 62.5zM223.712464375 750L776.2875375 750C807.606 808.550483125 830.0134812499999 873.436816875 839.1699625 937.5L160.830038125 937.5C169.986516875 873.436816875 192.394000625 808.550483125 223.712464375 750z" />
    <glyph glyph-name="search"
      unicode="&#xE027;"
      horiz-adv-x="1006.8027210884355" d=" M986.3945578231294 115.6462585034012L741.4965986394559 360.5442176870747C789.1156462585035 428.5714285714285 816.326530612245 503.4013605442177 816.326530612245 591.8367346938775C816.326530612245 816.3265306122448 632.6530612244899 1000 408.1632653061226 1000S0 816.3265306122448 0 591.8367346938775S183.6734693877552 183.673469387755 408.1632653061226 183.673469387755C496.5986394557823 183.673469387755 578.2312925170069 210.8843537414965 646.2585034013606 265.3061224489794L891.1564625850341 20.408163265306C904.7619047619048 6.8027210884353 925.170068027211 -2e-13 938.7755102040816 -2e-13S972.7891156462586 6.8027210884352 986.3945578231292 20.408163265306C1013.6054421768708 47.6190476190475 1013.6054421768708 88.4353741496598 986.3945578231294 115.6462585034012zM136.0544217687075 591.8367346938775C136.0544217687075 741.4965986394558 258.5034013605442 863.9455782312925 408.1632653061226 863.9455782312925S680.2721088435375 741.4965986394558 680.2721088435375 591.8367346938775S557.8231292517007 319.7278911564626 408.1632653061226 319.7278911564626S136.0544217687075 442.1768707482993 136.0544217687075 591.8367346938775z" />
    <glyph glyph-name="share-facebook"
      unicode="&#xE028;"
      horiz-adv-x="1000" d=" M919.9999999999998 1000C964.1796875 1000 1000 964.1796875 1000 920L1000 80.0000000000001C1000 35.8203125 964.1796875 0 919.9999999999998 0L80 0C35.8203125 0 0 35.8203125 0 80.0000000000001L0 920C0 964.1796875 35.8203125 1000 80 1000L919.9999999999998 1000zM579.3300791666667 678.2480470833334L626.2050791666667 678.2480470833334L626.2050791666667 771.9980470833334L551.2050791666666 771.9980470833334C461.1171874999999 771.9980470833334 429.4199208333333 726.5136720833334 429.4199208333333 650.0488283333334L429.4199208333333 593.765625L373.2675783333333 593.765625L373.2675783333333 500.0156250000001L429.4199208333333 500.0156250000001L429.4199208333333 227.9941416666667L541.8125 227.9941416666667L541.8125 500.0351583333334L616.796875 500.0351583333334L626.7246083333333 593.7675783333334L541.8125 593.7675783333334L541.9277333333333 640.69921875C541.9277333333333 665.13671875 544.2714833333333 678.2480470833334 579.3300791666667 678.2480470833334z" />
    <glyph glyph-name="share-googlemas"
      unicode="&#xE029;"
      horiz-adv-x="1000" d=" M80 1000L919.9999999999998 1000C964.1796875 1000 1000 964.1796875 1000 920L1000 80.0000000000001C1000 35.8203125 964.1796875 0 919.9999999999998 0L80 0C35.8203125 0 0 35.8203125 0 80.0000000000001L0 920C0 964.1796875 35.8203125 1000 80 1000zM398.9525979166667 246.6672875000002C536.4021875 246.6672875000002 628.7462166666666 340.0821875000001 628.7479833333333 479.0833041666667L628.7479833333333 525.4664875000001L400.1065229166666 525.4664875000001L400.1065229166666 432.7248583333334L529.0651333333333 432.7248583333334C514.246125 372.8232583333335 468.6387041666666 339.4407250000001 398.954365 339.4407250000001C316.59982625 339.4407250000001 249.59796625 405.2374125 249.59796625 486.1111125C249.59796625 566.9883416666667 316.594525 632.795635 398.954365 632.795635C434.9698958333333 632.795635 469.7449166666667 620.0211741666667 496.8736375 596.84548625L558.8710333333333 666.8160962500001C514.5483 704.6800283333333 457.7497499999999 725.5478670833334 398.9525979166667 725.5478670833334C264.5247704166667 725.5478670833334 155.1563741666667 618.1445004166667 155.1563741666667 486.1040416666667C155.1563741666667 354.0600500000001 264.5247704166667 246.6672875000002 398.9525979166667 246.6672875000002zM883.2105041666666 525.4258416666667L812.5259791666666 525.4258416666667L812.5259791666666 596.1103670833334L755.9783625 596.1103670833334L755.9783625 525.4258416666667L685.2938375 525.4258416666667L685.2938375 468.8817583333333L755.9783625 468.8817583333333L755.9783625 398.1972333333333L812.5259791666666 398.1972333333333L812.5259791666666 468.8817583333333L883.2105041666666 468.8817583333333L883.2105041666666 525.4258416666667z" />
    <glyph glyph-name="share-linkedin"
      unicode="&#xE02A;"
      horiz-adv-x="1000" d=" M80 1000L919.9999999999998 1000C964.1796875 1000 1000 964.1796875 1000 920L1000 80.0000000000001C1000 35.8203125 964.1796875 0 919.9999999999998 0L80 0C35.8203125 0 0 35.8203125 0 80.0000000000001L0 920C0 964.1796875 35.8203125 1000 80 1000 M259.4160154166667 264.3886708333333L372.56640625 264.3886708333333L372.56640625 604.8339841666666L259.4160154166667 604.8339841666666L259.4160154166667 264.3886708333333zM315.9824216666667 651.3027341666667C355.4355466666667 651.3027341666667 380.01171875 677.4667966666666 380.01171875 710.1484375C379.2792966666666 743.53125 355.4355466666667 768.953125 316.7324216666667 768.953125C278.0371091666667 768.953125 252.71875 743.546875 252.71875 710.1484375C252.71875 677.4667966666666 277.2871091666667 651.3027341666667 315.2675779166667 651.3027341666667L315.9824216666667 651.3027341666667zM780.6152333333332 264.3886708333333L780.6152333333332 459.5859375C780.6152333333332 564.1660166666667 724.7714833333332 612.8300779166667 650.3613291666666 612.8300779166667C590.2832041666666 612.8300779166667 563.3632791666666 579.7832041666668 548.375 556.5976541666666L548.375 604.8300779166666L435.1972666666666 604.8300779166666C436.703125 572.8808583333334 435.1972666666666 264.3847666666667 435.1972666666666 264.3847666666667L548.375 264.3847666666667L548.375 454.5214833333333C548.375 464.6601583333334 549.0878916666667 474.8339833333333 552.0996083333333 482.0917958333334C560.2734375 502.4296875 578.8730458333333 523.4824208333334 610.1230458333333 523.4824208333334C651.1074208333333 523.4824208333334 667.4648416666666 492.2656250000001 667.4648416666666 446.5136708333333L667.4648416666666 264.3476583333334L780.6152333333332 264.3476583333334L780.6152333333332 264.3886708333333z" />
    <glyph glyph-name="share-pinterest"
      unicode="&#xE02B;"
      horiz-adv-x="1041.6666666666665" d=" M100.8333333333333 1000L940.8333333333331 1000C985.0130208333331 1000 1020.8333333333331 964.1796875 1020.8333333333331 920L1020.8333333333331 80.0000000000001C1020.8333333333331 35.8203125 985.0130208333331 0 940.8333333333331 0L100.8333333333333 0C56.6536458333333 0 20.8333333333333 35.8203125 20.8333333333333 80.0000000000001L20.8333333333333 920C20.8333333333333 964.1796875 56.6536458333333 1000 100.8333333333333 1000 M520.8333333333333 747.91796875C383.3333333333333 747.91796875 272.9153645833333 637.5 272.9153645833333 500C272.9153645833333 397.9140625 333.3333333333333 312.5 420.8313804166666 272.9140625C420.8313804166666 289.5800791666667 420.8313804166666 310.4160166666668 424.9973958333333 329.1660166666668C429.1634116666666 350 456.2473958333333 464.5820291666668 456.2473958333333 464.5820291666668C456.2473958333333 464.5820291666668 447.9134125 481.2500000000001 447.9134125 504.1660166666667C447.9134125 541.6660166666668 468.7473958333333 568.75 495.8313791666666 568.75C518.7473958333334 568.75 529.1634124999999 552.0820333333334 529.1634124999999 531.25C529.1634124999999 508.3339833333334 514.5774749999999 475 508.3294291666667 443.75C502.0794291666666 416.6660166666667 522.9114583333333 395.8339833333333 547.9114583333333 395.8339833333333C595.8294291666666 395.8339833333333 627.0794291666666 456.25 627.0794291666666 527.0839833333333C627.0794291666666 581.25 589.5794291666666 620.8339841666666 524.9934916666666 620.8339841666666C449.9934916666666 620.8339841666666 404.1595054166667 564.5839833333334 404.1595054166667 502.0839833333334C404.1595054166667 481.2500000000001 410.4095054166667 464.5839833333333 420.8255208333333 454.1679666666668C424.9915366666666 447.9179666666668 427.0755208333334 445.8339833333335 424.9915366666666 439.5820291666668C422.9095054166666 435.4160166666667 420.8255208333333 424.9980458333333 420.8255208333333 418.7500000000001C418.7434895833334 412.5019541666667 414.5755208333333 410.4160166666667 408.3255208333333 412.5019541666667C372.9095054166667 427.0859375 358.3255208333333 464.5839833333333 358.3255208333333 506.2519541666667C358.3255208333333 577.0859375 416.6595054166666 660.41796875 535.4095041666666 660.41796875C629.1595041666666 660.41796875 691.6595041666666 591.66796875 691.6595041666666 518.7519541666667C691.6595041666666 420.8359375 637.4954416666666 350.0019541666667 558.3255208333333 350.0019541666667C531.2415374999999 350.0019541666667 506.2415375 364.5859375 497.9075541666666 381.2519541666667C497.9075541666666 381.2519541666667 483.3235666666666 325.0000000000001 481.2415375 312.5019541666668C474.9915375 293.7500000000001 466.6575541666666 275.0019541666667 456.2415375 260.4179666666667C479.1673166666666 254.1660166666667 502.0833333333333 250 527.0833333333334 250C664.5794291666666 250 775.0013041666667 360.4160166666667 775.0013041666667 497.9179666666667C768.7513041666666 637.5 658.3333333333334 747.91796875 520.8333333333333 747.91796875" />
    <glyph glyph-name="share-twitter"
      unicode="&#xE02C;"
      horiz-adv-x="1041.6666666666665" d=" M100.8333333333333 1000L940.8333333333331 1000C985.0130208333331 1000 1020.8333333333331 964.1796875 1020.8333333333331 920L1020.8333333333331 80.0000000000001C1020.8333333333331 35.8203125 985.0130208333331 0 940.8333333333331 0L100.8333333333333 0C56.6536458333333 0 20.8333333333333 35.8203125 20.8333333333333 80.0000000000001L20.8333333333333 920C20.8333333333333 964.1796875 56.6536458333333 1000 100.8333333333333 1000 M787.49935 679.1660154166666C768.7473958333334 668.75 745.8333333333333 662.5 724.99935 660.4160154166666C747.9134124999999 675 764.5833333333334 697.9160158333334 772.9153666666666 725C752.0833333333334 712.5 729.1673166666667 702.0839841666666 702.0794291666666 695.83203125C681.2454416666667 718.7480470833334 654.1634124999999 733.33203125 622.9134124999999 733.33203125C562.4973958333333 733.33203125 512.4973958333334 681.2480466666667 512.4973958333334 614.58203125C512.4973958333334 606.2480470833334 512.4973958333334 595.83203125 514.5794291666666 587.4980466666667C422.9134116666667 591.6660154166666 341.6634116666667 639.58203125 287.4954429166667 710.4160154166666C277.0794270833333 693.75 272.91341125 672.9160154166667 272.91341125 649.9980466666667C272.91341125 608.33203125 291.6634116666667 572.9160166666668 320.8294270833333 552.0820291666666C302.0794270833333 552.0820291666666 285.4134116666667 558.3320291666666 270.8294270833333 566.6660166666667L270.8294270833333 564.5839833333334C270.8294270833333 508.3339833333334 308.3294270833333 460.4179666666666 358.3294270833333 447.9179666666668C349.9954429166667 445.8359375 339.5794270833334 443.75 329.1634116666667 443.75C322.9134116666666 443.75 314.5794270833333 443.75 308.3294270833333 445.8300791666667C322.9114583333333 397.9140625 362.4954429166667 364.578125 410.41341125 364.578125C372.9134116666667 333.328125 324.9973958333333 314.5761708333333 274.9973958333333 314.5761708333333C266.6634116666667 314.5761708333333 258.33138 314.5761708333333 247.91341125 316.6582041666668C295.8294270833333 283.3261708333333 354.1634116666666 262.4941416666667 416.6634116666667 262.4941416666667C618.7473958333333 262.4941416666667 729.1634124999999 441.6582041666667 729.1634124999999 597.91015625L729.1634124999999 612.4941404166667C754.1673166666666 633.3339841666667 772.9153666666666 654.1660154166666 787.49935 679.1660154166666" />
    <glyph glyph-name="share-whatsapp"
      unicode="&#xE02D;"
      horiz-adv-x="1000" d=" M79.1666666666657 1000H920.8333333333318C966.6666666666662 1000 999.9999999999976 962.500000000001 999.9999999999976 920.8333333333342V79.1666666666681C999.9999999999976 33.3333333333338 962.4999999999986 2.4e-12 920.8333333333318 2.4e-12H79.1666666666657C33.3333333333314 2.4e-12 0 37.5000000000015 0 79.1666666666681V920.8333333333342C0 962.500000000001 37.4999999999991 1000 79.1666666666657 1000z M758.3333333333328 754.1666666666677C691.6666666666652 820.8333333333353 599.999999999999 858.3333333333343 504.1666666666652 858.3333333333343C308.3333333333324 858.3333333333343 145.833333333331 700.0000000000005 145.833333333331 500C145.833333333331 437.5 162.4999999999967 375 191.6666666666652 320.8333333333329L141.6666666666657 137.5000000000006L329.1666666666657 187.5C379.1666666666652 158.3333333333338 441.6666666666652 145.8333333333334 500 145.8333333333334L500 145.8333333333334C695.8333333333328 145.8333333333334 858.3333333333343 304.1666666666672 858.3333333333343 504.1666666666677C866.6666666666671 599.9999999999991 825.0000000000005 691.6666666666677 758.3333333333328 754.1666666666677zM508.3333333333328 212.500000000001L508.3333333333328 212.500000000001C454.1666666666657 212.500000000001 404.1666666666662 225.0000000000015 358.3333333333319 254.1666666666677L345.8333333333315 262.5000000000006L233.3333333333319 233.3333333333343L262.4999999999981 341.6666666666686L254.1666666666653 354.166666666669C224.999999999999 400.0000000000033 208.333333333331 454.1666666666681 208.333333333331 512.5000000000028C208.333333333331 675.0000000000019 341.6666666666638 808.3333333333371 504.1666666666652 808.3333333333371C583.333333333331 808.3333333333371 658.3333333333314 779.166666666671 712.4999999999985 720.8333333333362C766.6666666666657 666.666666666669 799.9999999999994 591.6666666666686 799.9999999999994 512.5000000000028C804.1666666666671 337.500000000001 674.9999999999994 212.500000000001 508.3333333333328 212.500000000001zM674.9999999999994 433.3333333333325C666.6666666666666 437.5 620.8333333333323 458.3333333333334 612.4999999999995 462.4999999999986S599.999999999999 466.6666666666662 591.6666666666662 458.333333333331S566.6666666666653 429.1666666666648 562.5 424.9999999999972C558.3333333333323 420.8333333333296 554.1666666666671 416.6666666666644 541.6666666666666 420.8333333333296C533.3333333333338 424.9999999999972 504.1666666666676 433.3333333333301 470.8333333333338 466.6666666666639C445.8333333333329 491.6666666666648 424.9999999999995 520.833333333331 420.8333333333343 529.1666666666638S420.8333333333343 541.6666666666642 425.0000000000019 545.8333333333296S433.3333333333348 554.1666666666624 437.5000000000024 562.4999999999952C441.66666666667 566.6666666666629 441.66666666667 570.8333333333281 445.8333333333352 579.1666666666611C450.0000000000029 583.3333333333286 445.8333333333352 591.6666666666615 445.8333333333352 595.8333333333267C441.6666666666676 599.9999999999943 425.0000000000019 645.8333333333262 416.666666666669 662.4999999999943S404.1666666666686 679.16666666666 395.8333333333357 679.16666666666C391.6666666666681 679.16666666666 383.3333333333352 679.16666666666 379.16666666667 679.16666666666S362.5000000000043 674.9999999999925 354.166666666669 666.6666666666596C345.8333333333362 658.3333333333267 325.0000000000029 637.4999999999934 325.0000000000029 591.6666666666591S358.3333333333366 504.1666666666582 362.5000000000019 499.999999999993S425.0000000000019 404.1666666666592 516.6666666666681 366.6666666666601C537.5000000000014 358.3333333333273 554.1666666666671 349.9999999999943 566.6666666666675 345.8333333333268C587.5000000000009 337.4999999999939 608.3333333333343 341.6666666666592 620.8333333333347 341.6666666666592C637.5000000000005 345.8333333333268 675.0000000000018 362.4999999999925 679.1666666666671 383.3333333333258C687.5 404.1666666666592 687.5 420.8333333333249 683.3333333333347 424.9999999999925C687.5 420.8333333333343 679.1666666666671 420.8333333333343 674.9999999999994 433.3333333333325z" />
    <glyph glyph-name="tip"
      unicode="&#xE02E;"
      horiz-adv-x="2437.5" d=" M0 500C0 776.142375 223.858254375 1000 500.62049875 1000L1936.8795 1000C2213.3645687499998 1000 2437.5 775.5804806250001 2437.5 500C2437.5 223.857625 2213.64174375 0 1936.8795 0L500.62049875 0C224.135431875 0 0 224.41951875 0 500zM811.5 503C811.5 503 750 678.75 563.5 678.75L563 678.75C376.5 678.75 315 503 315 503C311.75 492.5000000000001 303.75 470.5 323.25 439.25C352.75 392.25 436 398.25 454.75 452.5C454.75 452.5 477 532.75 563.25 533.25C649.5 532.75 671.75 452.5 671.75 452.5C690.5 398.25 774 392.25 803.25 439.25C822.75 470.5 814.75 492.5000000000001 811.5 503zM1462.0056125 717.34619125L1134.06371875 717.34619125L1134.06371875 645.660400625L1255.7373062499998 645.660400625L1255.7373062499998 312.5L1340.88135 312.5L1340.88135 645.660400625L1462.0056125 645.660400625L1462.0056125 717.34619125zM1588.89770625 312.5L1588.89770625 717.34619125L1504.85229375 717.34619125L1504.85229375 312.5L1588.89770625 312.5zM1943.2067875 487.7319337500001C1967.37683125 507.507423125 1979.46166875 541.290044375 1979.46166875 589.080810625C1979.46166875 632.84323625 1967.37683125 665.16102875 1943.2067875 686.03515625C1919.03674375 706.90928375 1886.6274 717.34619125 1845.97778125 717.34619125L1669.64721875 717.34619125L1669.64721875 312.5L1753.692625 312.5L1753.692625 458.0688474999999L1839.66064375 458.0688474999999C1884.52170625 458.0688474999999 1919.03674375 467.9564443749999 1943.2067875 487.7319337500001zM1879.07409375 633.575439375C1890.15203125 624.603226875 1895.69091875 609.588728125 1895.69091875 588.531494375C1895.69091875 567.47426 1890.15203125 552.0935543749999 1879.07409375 542.38891625C1867.9961625 532.6842775 1852.478125 527.83203125 1832.51953125 527.83203125L1753.692625 527.83203125L1753.692625 647.03369125L1832.51953125 647.03369125C1852.478125 647.03369125 1867.9961625 642.5476525 1879.07409375 633.575439375z" />
    <glyph glyph-name="undo"
      unicode="&#xE02F;"
      horiz-adv-x="1000" d=" M12.5 612.5L418.75 931.25C437.5 943.75 462.5 931.25 462.5 906.25V731.25C637.5 725 762.5 668.75 862.5 568.75C1006.2500000000002 418.75 1000 225 1000 181.2499999999999V118.7499999999999C1000 99.9999999999999 981.25 75 956.25 118.7499999999999L918.7500000000002 181.2499999999999C862.5 274.9999999999999 793.7500000000001 362.4999999999999 706.25 399.9999999999999C637.5000000000001 431.2499999999999 575.0000000000001 456.2499999999999 462.5 456.2499999999999V268.7499999999999C462.5 250 437.5 237.5 418.75 250L12.5 568.75C-6.25 581.25 -6.25 600 12.5 612.5" />
    <glyph glyph-name="view"
      unicode="&#xE030;"
      horiz-adv-x="1000" d=" M500 302.0833333333334C384.8333333333333 302.0833333333334 291.6666666666667 390.4583333333334 291.6666666666667 500S384.8333333333333 697.9166666666667 500 697.9166666666667S708.3333333333333 609.5416666666667 708.3333333333333 500S615.1666666666666 302.0833333333334 500 302.0833333333334zM500 797.0416666666666C286.375 797.0416666666666 83.3333333333333 566.8333333333333 83.3333333333333 500C83.3333333333333 433.1666666666668 286.375 202.9583333333335 500 202.9583333333335C713.6666666666666 202.9583333333335 916.6666666666666 433.1666666666669 916.6666666666666 500.0000000000001C916.6666666666666 566.8333333333333 713.6666666666666 797.0416666666666 500 797.0416666666666zM500 599.125C500 544.1666666666667 453.4166666666666 500 395.8333333333333 500C395.8333333333333 445.375 442.4166666666667 400.875 500 400.875S604.1666666666666 445.375 604.1666666666666 500S557.5833333333333 599.125 500 599.125z" />
    <glyph glyph-name="warning"
      unicode="&#xE031;"
      horiz-adv-x="1000" d=" M555.0641483333334 969.6245619444444L992.5704555555556 94.6119444444445C1002.9456055555556 75.2366611111111 1002.4455999999998 50.6113055555555 991.132938888889 31.6735333333332C979.8827722222225 12.7982611111111 959.5074833333334 -0.0144222222223 937.5071611111111 -0.0144222222223L62.4945444444444 -0.0144222222223C40.4942272222222 -0.0144222222223 20.1189333888889 12.7982611111111 8.8687711111111 31.6735333333332C-2.4438920277778 50.6113055555555 -2.9438992388889 75.2366611111111 7.4312503888889 94.6119444444445L444.93756 969.6245619444444C466.8128755555556 1010.125146 533.1888327777779 1010.125146 555.0641483333334 969.6245619444444zM562.5017555555555 439.9919222222223L562.5017555555555 627.4946277777777C562.5017555555555 661.9951255555555 534.5638527777778 689.9955288888889 500.0008538888889 689.9955288888889C465.4378555555555 689.9955288888889 437.4999527777778 661.9951255555555 437.4999527777778 627.4946277777777L437.4999527777778 439.9919222222223C437.4999527777778 405.4914277777778 465.4378555555555 377.4910222222223 500.0008538888889 377.4910222222223C534.5638527777778 377.4910222222223 562.5017555555555 405.4914277777778 562.5017555555555 439.9919222222223zM437.4999527777778 252.4892222222222C437.4999527777778 217.9887222222222 465.5003566666667 189.9883166666667 500.0008538888889 189.9883166666667C534.5013516666667 189.9883166666667 562.5017555555555 217.9887222222222 562.5017555555555 252.4892222222222C562.5017555555555 286.9897166666667 534.5013516666667 314.9901222222223 500.0008538888889 314.9901222222223C465.5003566666667 314.9901222222223 437.4999527777778 286.9897166666667 437.4999527777778 252.4892222222222z" />
    <glyph glyph-name="zoom-fit-to-scale"
      unicode="&#xE032;"
      horiz-adv-x="1000" d=" M375 375L625 375L625 625L375 625L375 375zM312.5 750L687.5 750C722.01779375 750 750 722.0177968749999 750 687.5L750 312.5C750 277.98220625 722.01779375 250 687.5 250L312.5 250C277.982203125 250 250 277.98220625 250 312.5L250 687.5C250 722.0177968749999 277.982203125 750 312.5 750zM312.5 875L125 875L125 687.5C123.651585625 652.237429375 95.971235625 625 62.5 625C27.680350375 625 0 652.237429375 0 687.5L0 937.5C0 972.7625703125 27.680350375 1000 62.5 1000L312.5 1000C347.319649375 1000 375 972.7625703125 375 937.5C375 905.564425625 347.319649375 878.32699625 312.5 875zM125 312.5L125 125L312.5 125C347.319649375 121.67300625 375 94.435575 375 62.5C375 27.23743125 347.319649375 0 312.5 0L62.5 0C27.680350375 0 0 27.23743125 0 62.5L0 312.5C0 347.76256875 27.680350375 375 62.5 375C95.971235625 375 123.651585625 347.76256875 125 312.5zM875 875L687.5 875C652.68035 878.32699625 625 905.564425625 625 937.5C625 972.7625703125 652.68035 1000 687.5 1000L937.5 1000C972.31965 1000 1000 972.7625703125 1000 937.5L1000 687.5C1000 652.237429375 972.31965 625 937.5 625C904.0287625 625 876.3484125 652.237429375 875 687.5L875 875zM687.5 125L875 125L875 312.5C876.3484125 347.76256875 904.0287625 375 937.5 375C972.31965 375 1000 347.76256875 1000 312.5L1000 62.5C1000 27.23743125 972.31965 0 937.5 0L687.5 0C652.68035 0 625 27.23743125 625 62.5C625 94.435575 652.68035 121.67300625 687.5 125z" />
    <glyph glyph-name="zoom-in"
      unicode="&#xE033;"
      horiz-adv-x="1000" d=" M375 625L125 625C54.038781875 625 -5.68e-11 569.0355937500001 -5.68e-11 500C-5.68e-11 430.96440625 54.038781875 375 125 375L375 375L375 125C375 54.0387825 430.96440625 0 500 0C569.03559375 0 625 54.0387825 625 125L625 375L875 375C945.9612175 375 1000 430.96440625 1000 500C1000 569.0355937500001 945.9612175 625 875 625L625 625L625 875C625 945.961218125 569.03559375 1000 500 1000C430.96440625 1000 375 945.961218125 375 875L375 625z" />
    <glyph glyph-name="zoom-out"
      unicode="&#xE034;"
      horiz-adv-x="4000" d=" M500 0L3500 0C3783.84487 0 4000 223.857625 4000 500C4000 776.142375 3783.84487 1000 3500 1000L500 1000C216.1551275 1000 -2.274e-10 776.142375 -2.274e-10 500C-2.274e-10 223.857625 216.1551275 0 500 0z" />
  </font>
</defs>
</svg>
