<svg width="41" height="40" fill="none" xmlns="http://www.w3.org/2000/svg"><path fill-rule="evenodd" clip-rule="evenodd" d="M21.967 10.193a1 1 0 0 0 1 1H39.05a1 1 0 0 0 1-1V1a1 1 0 0 0-1-1H22.967a1 1 0 0 0-1 1v9.193z" fill="#CCC"/><mask id="a" style="mask-type:alpha" maskUnits="userSpaceOnUse" x="21" y="0" width="20" height="12"><path fill-rule="evenodd" clip-rule="evenodd" d="M21.967 10.193a1 1 0 0 0 1 1H39.05a1 1 0 0 0 1-1V1a1 1 0 0 0-1-1H22.967a1 1 0 0 0-1 1v9.193z" fill="#CCC"/></mask><g mask="url(#a)"><path fill-rule="evenodd" clip-rule="evenodd" d="M40.05 11.193V0H21.967L40.05 11.193z" fill="#B4B4B4"/></g><path fill-rule="evenodd" clip-rule="evenodd" d="M.973 10.193a1 1 0 0 0 1 1h16.083a1 1 0 0 0 1-1V1a1 1 0 0 0-1-1H1.973a1 1 0 0 0-1 1v9.193z" fill="#CCC"/><mask id="b" style="mask-type:alpha" maskUnits="userSpaceOnUse" x="0" y="0" width="20" height="12"><path fill-rule="evenodd" clip-rule="evenodd" d="M.973 10.193a1 1 0 0 0 1 1h16.083a1 1 0 0 0 1-1V1a1 1 0 0 0-1-1H1.973a1 1 0 0 0-1 1v9.193z" fill="#CCC"/></mask><g mask="url(#b)"><path fill-rule="evenodd" clip-rule="evenodd" d="M19.056 11.193V0H.973l18.083 11.193z" fill="#B4B4B4"/></g><path fill-rule="evenodd" clip-rule="evenodd" d="M.973 39a1 1 0 0 0 1 1h16.083a1 1 0 0 0 1-1V26.641a1 1 0 0 0-1-1H1.973a1 1 0 0 0-1 1v12.36z" fill="#CCC"/><mask id="c" style="mask-type:alpha" maskUnits="userSpaceOnUse" x="0" y="25" width="20" height="15"><path fill-rule="evenodd" clip-rule="evenodd" d="M.973 39a1 1 0 0 0 1 1h16.083a1 1 0 0 0 1-1V26.641a1 1 0 0 0-1-1H1.973a1 1 0 0 0-1 1v12.36z" fill="#CCC"/></mask><g mask="url(#c)"><path fill-rule="evenodd" clip-rule="evenodd" d="M19.056 40V25.641H.973l18.083 14.36z" fill="#B4B4B4"/></g><path fill-rule="evenodd" clip-rule="evenodd" d="M32.013 11.05h-2.009v7.033h2.01v-7.032zm-23.106 0h2.01v15.07h-2.01V11.05zm23.106 7.033v2.01H10.917v-2.01h21.096z" fill="#B4B4B4"/></svg>