<svg width="40" height="40" xmlns="http://www.w3.org/2000/svg"><g fill="none" fill-rule="evenodd"><path d="M28.426 36H11.581c-1.742 0-3.159-1.385-3.159-3.088V13.75l-4.93 1.608a1.059 1.059 0 0 1-1.333-.65L.054 8.533a1.02 1.02 0 0 1 .53-1.245L13.218 1.11a1.066 1.066 0 0 1 1.024.044c.309.187.498.52.498.875 0 2.837 2.362 5.147 5.264 5.147 2.901 0 5.264-2.31 5.264-5.147 0-.356.19-.688.498-.875.31-.189.699-.205 1.024-.044l12.634 6.177c.468.228.693.759.53 1.245l-2.105 6.177c-.185.539-.781.83-1.332.65l-4.931-1.61v19.163C31.585 34.615 30.168 36 28.426 36z" fill="#FED01A"/><path fill="#FEC31A" d="M19 30.531l1.163 8.995 2.108-6.384L39.358 14z"/><path fill="#FCD741" d="M20 39.526l1.947-7.265L39.195 14z"/><path fill="#F9E377" d="M8 26.619l11.186 4.27L39.498 14z"/><path fill="#F9E377" d="M22 32.261L39.249 14l-2.704 24.098z"/></g></svg>