<svg width="47" height="46" xmlns="http://www.w3.org/2000/svg"><g fill="none" fill-rule="evenodd"><rect fill="#FED940" x="11" y="3" width="24" height="40" rx="1"/><path fill="#FFF" d="M13 8h20v27H13z"/><path fill="#FFF0B3" d="M33 8v27H13z"/><path d="M32.5 26L29 29v-3h-3a1 1 0 0 1-1-1v-9a1 1 0 0 1 1-1h16a1 1 0 0 1 1 1v9a1 1 0 0 1-1 1h-9.5z" fill="#FFCC05"/><path fill="#FFF" d="M28 18h12v1H28zm0 2h12v1H28zm0 2h5v1h-5z"/><path fill="#FFF0B3" d="M19 6h8V5h-8z"/><circle fill="#FFF0B3" cx="23.5" cy="39.5" r="2.5"/></g></svg>