<svg width="80" height="70" xmlns="http://www.w3.org/2000/svg"><g fill="none" fill-rule="evenodd"><path d="M2.956 5A2.958 2.958 0 0 0 0 7.961v58.587A3.45 3.45 0 0 0 3.447 70H50l15-15V8.78C65 6.693 63.31 5 61.226 5H2.956z" fill="#D6793C"/><path fill="#C67036" d="M50 70H35l15-15z"/><path fill="#F0AB71" d="M50 70l15-15H50z"/><path d="M43.7 51.514c-1.15 0-2.078-.93-2.078-2.079V46.88c0-8.96-7.291-16.249-16.252-16.249h-2.553a2.078 2.078 0 1 1 0-4.158h2.553c11.254 0 20.41 9.154 20.41 20.407v2.555c0 1.15-.93 2.079-2.08 2.079" fill="#FEFEFE"/><path d="M34.621 51.514a2.078 2.078 0 0 1-2.079-2.079v-2.653c0-3.9-3.172-7.074-7.072-7.074h-2.653a2.078 2.078 0 1 1 0-4.158h2.653c6.193 0 11.23 5.04 11.23 11.232v2.653c0 1.15-.931 2.079-2.079 2.079m-7.243-3.844a2.796 2.796 0 1 1-5.592.001 2.796 2.796 0 0 1 5.592 0" fill="#FEFEFE"/><path d="M2.956 5c-.865 0-1.643.372-2.184.965C.292 6.491 50 55 50 55h15V8.78C65 6.693 63.31 5 61.226 5H2.956z" fill="#2F2515" opacity=".2"/><path fill="#FEC319" d="M48.59 25.104l1.787 13.617 3.243-9.665L79.898.078z"/><path fill="#FCD741" d="M50.377 38.721l2.994-10.997L79.898.078z"/><path fill="#FAE377" d="M31.457 19.181l17.203 6.464L79.898.078zm21.913 8.543L79.899.078 75.74 36.559z"/></g></svg>