<svg width="47" height="41" fill="none" xmlns="http://www.w3.org/2000/svg"><path fill-rule="evenodd" clip-rule="evenodd" d="M1.707 34.129h34.13V2.842H1.707V34.13z" fill="#FEC31A"/><path fill-rule="evenodd" clip-rule="evenodd" d="M0 34.129h37.544V10.237H0V34.13z" fill="#FED940"/><mask id="a" maskUnits="userSpaceOnUse" x="0" y="33" width="38" height="8"><path fill-rule="evenodd" clip-rule="evenodd" d="M0 33.842h37.544v6.576H0v-6.576z" fill="#fff"/></mask><g mask="url(#a)"><path fill-rule="evenodd" clip-rule="evenodd" d="M37.544 39.01c0 .36-.137.72-.413.995a1.4 1.4 0 0 1-.995.413H1.408a1.4 1.4 0 0 1-.996-.413A1.402 1.402 0 0 1 0 39.01v-5.167h37.544v5.167z" fill="#EA6552"/></g><path fill-rule="evenodd" clip-rule="evenodd" d="M0 10.357h4.526v-4.53L0 10.358z" fill="#2A2513"/><path fill-rule="evenodd" clip-rule="evenodd" d="M1.543 8.813l2.983-2.985-2.983-2.986v5.971z" fill="#FDE577"/><path fill-rule="evenodd" clip-rule="evenodd" d="M37.544 10.357h-4.526v-4.53l4.526 4.53z" fill="#E24F3B"/><path fill-rule="evenodd" clip-rule="evenodd" d="M36 8.813l-2.982-2.985 2.983-2.986v5.971z" fill="#FD8369"/><path fill-rule="evenodd" clip-rule="evenodd" d="M10.794 14.653a1.409 1.409 0 1 1-2.818 0 1.409 1.409 0 0 1 2.818 0z" fill="#343B43"/><path fill-rule="evenodd" clip-rule="evenodd" d="M18.772 29.538c-2.685 0-5.204-1.266-7.09-3.565-1.859-2.266-2.883-5.27-2.883-8.46v-2.86a.587.587 0 0 1 1.174 0v2.86c0 2.918.928 5.659 2.615 7.714 1.66 2.023 3.856 3.136 6.184 3.136 2.328 0 4.524-1.113 6.184-3.136 1.687-2.055 2.615-4.796 2.615-7.714v-2.86a.587.587 0 0 1 1.174 0v2.86c0 3.19-1.024 6.194-2.883 8.46-1.886 2.299-4.404 3.565-7.09 3.565z" fill="#EAC014"/><path fill-rule="evenodd" clip-rule="evenodd" d="M18.772 26.983a9.907 9.907 0 0 1-7.052-2.923 9.925 9.925 0 0 1-2.92-7.058v-2.348a.587.587 0 1 1 1.173 0v2.348c0 2.352.915 4.563 2.577 6.227a8.74 8.74 0 0 0 6.222 2.58c2.35 0 4.56-.916 6.222-2.58a8.754 8.754 0 0 0 2.577-6.227v-2.348a.587.587 0 1 1 1.174 0v2.348a9.92 9.92 0 0 1-2.92 7.057 9.902 9.902 0 0 1-7.053 2.924z" fill="#fff"/><path fill-rule="evenodd" clip-rule="evenodd" d="M37.535 40.378H0v-6.569h37.535v6.569z" fill="#FEC31A"/><path fill-rule="evenodd" clip-rule="evenodd" d="M37.535 10.35h-4.524V5.824l4.524 4.524z" fill="#2A2513"/><path fill-rule="evenodd" clip-rule="evenodd" d="M28.059 14.452l1.032 7.863 1.873-5.581L46.138 0l-18.08 14.452z" fill="#FEC31A"/><path fill-rule="evenodd" clip-rule="evenodd" d="M29.091 22.315l1.729-6.35L46.138 0 29.091 22.315z" fill="#FCD741"/><path fill-rule="evenodd" clip-rule="evenodd" d="M18.165 11.032l9.934 3.732L46.14 0 18.164 11.032z" fill="#FDE577"/><path fill-rule="evenodd" clip-rule="evenodd" d="M30.82 15.964L46.138 0l-2.4 21.067-12.918-5.103z" fill="#FDE577"/><path d="M28.296 29.983a7.507 7.507 0 0 1 7.507-7.507 7.507 7.507 0 0 1 7.507 7.507 7.506 7.506 0 0 1-7.507 7.507 7.506 7.506 0 0 1-7.507-7.507z" fill="#F2F1E9" stroke="#6DC497" stroke-width="2"/><path d="M32.997 30.136l2.556 2.432 8.663-8.87" stroke="#6DC497" stroke-width="2" stroke-linecap="round"/></svg>