<svg width="47" height="46" xmlns="http://www.w3.org/2000/svg"><g fill="none" fill-rule="evenodd"><path d="M44 17.926L26.423 4.165c-2.126-1.553-3.212-1.553-5.303 0L4 17.926l19.771 17.073L44 17.926z" fill="#FFCC05"/><path fill="#FFFBE8" d="M9.714 31.571H39.43V6.428H9.714z"/><path d="M23.989 32.749L44 17.926v21.371C44 41.343 42.32 43 40.24 43H7.76C5.68 43 4 41.343 4 39.297V17.926l19.99 14.823z" fill="#FED940"/><path d="M40.823 43a3.781 3.781 0 0 0 2.114-.936L23.99 27.183 5.325 42.063A3.858 3.858 0 0 0 7.452 43h33.371z" fill="#FDE577"/></g></svg>