<svg width="300" height="300" viewBox="0 0 300 300" fill="none" xmlns="http://www.w3.org/2000/svg">
<path fill-rule="evenodd" clip-rule="evenodd" d="M201.853 88.6035C253.17 88.6035 299.061 130.817 299.061 182.892C299.061 234.966 253.17 277.18 201.853 277.18L201.853 88.6035Z" fill="#FFEEA7"/>
<path fill-rule="evenodd" clip-rule="evenodd" d="M229.095 182.892C229.095 197.416 216.957 209.19 201.982 209.19C187.01 209.19 174.87 197.416 174.87 182.892C174.87 168.368 187.01 156.594 201.982 156.594C216.957 156.594 229.095 168.368 229.095 182.892" fill="#B58FC1"/>
<path fill-rule="evenodd" clip-rule="evenodd" d="M175.049 185.831C176.557 198.969 188.034 209.19 201.983 209.19C216.956 209.19 229.095 197.416 229.095 182.892C229.095 176.139 226.449 170.001 222.135 165.344C209.781 177.012 193.32 184.555 175.049 185.831" fill="#C9A9D5"/>
<path fill-rule="evenodd" clip-rule="evenodd" d="M200.921 179.209C228.554 167.197 243.308 142.491 243.308 113.881C243.308 108.497 242.305 103.265 241.166 98.2122C228.836 92.6386 216.711 89.5078 200.921 89.5078L200.921 179.209Z" fill="#FCE579"/>
<path fill-rule="evenodd" clip-rule="evenodd" d="M194.714 109.539C194.714 122.976 183.484 133.868 169.632 133.868C155.78 133.868 144.549 122.976 144.549 109.539C144.549 96.102 155.78 85.21 169.632 85.21C183.484 85.21 194.714 96.102 194.714 109.539" fill="#B58FC1"/>
<path fill-rule="evenodd" clip-rule="evenodd" d="M249.94 63.933C249.94 73.5972 241.862 81.4324 231.898 81.4324C221.934 81.4324 213.857 73.5972 213.857 63.933C213.857 54.2688 221.934 46.4336 231.898 46.4336C241.862 46.4336 249.94 54.2688 249.94 63.933" fill="#FCE579"/>
<path fill-rule="evenodd" clip-rule="evenodd" d="M183.793 63.8605C183.793 92.7765 159.627 116.217 129.815 116.217C100.003 116.217 75.8379 92.7765 75.8379 63.8605C75.8379 34.9445 100.003 11.5039 129.815 11.5039C159.627 11.5039 183.793 34.9445 183.793 63.8605" fill="#FCE579"/>
<path fill-rule="evenodd" clip-rule="evenodd" d="M178.379 86.7336C175.655 85.7508 172.709 85.2109 169.633 85.2109C155.78 85.2109 144.55 96.1029 144.55 109.539C144.55 111.1 144.708 112.625 144.998 114.104C159.689 109.933 171.787 99.877 178.379 86.7336" fill="#C9A9D5"/>
<path fill-rule="evenodd" clip-rule="evenodd" d="M170.086 233.379C170.086 228.375 174.269 224.317 179.429 224.317C184.588 224.317 188.771 228.375 188.771 233.379C188.771 238.384 184.588 242.441 179.429 242.441C174.269 242.441 170.086 238.384 170.086 233.379" fill="#C9A9D5"/>
<path fill-rule="evenodd" clip-rule="evenodd" d="M27.6006 92.5727C27.6006 88.5345 30.9757 85.2607 35.139 85.2607C39.3023 85.2607 42.6775 88.5345 42.6775 92.5727C42.6775 96.6109 39.3023 99.8846 35.139 99.8846C30.9757 99.8846 27.6006 96.6109 27.6006 92.5727" fill="#C9A9D5"/>
<path fill-rule="evenodd" clip-rule="evenodd" d="M142.265 174.757L83.8035 128.783C76.9854 123.534 69.7208 123.217 62.1512 128.783L1.5249 174.757L71.0905 233.267L142.265 174.757Z" fill="#FFCC05"/>
<path fill-rule="evenodd" clip-rule="evenodd" d="M17.1128 222.821H128.842V137.143H17.1128V222.821Z" fill="#FEF1B8"/>
<path opacity="0.1" fill-rule="evenodd" clip-rule="evenodd" d="M128.842 222.821V137.143H17.1128L128.842 222.821Z" fill="#2F2515"/>
<path fill-rule="evenodd" clip-rule="evenodd" d="M135.863 260.436C139.4 260.436 142.265 257.666 142.265 254.248V229.926L142.265 174.757L73.2808 220.731L1.52493 174.757V252.536C1.52493 256.898 5.18416 260.436 9.69691 260.436H135.863Z" fill="#FED940"/>
<path fill-rule="evenodd" clip-rule="evenodd" d="M135.863 260.436C137.805 260.436 139.545 259.6 140.719 258.281C141.682 257.198 73.2807 199.834 73.2807 199.834C73.2807 199.834 2.32463 256.435 3.63763 257.837C5.13297 259.433 7.29386 260.436 9.69674 260.436H135.863Z" fill="#FDE577"/>
<path fill-rule="evenodd" clip-rule="evenodd" d="M106.731 166.616L110.603 195.072L117.625 174.875L174.522 114.318L106.731 166.616Z" fill="#FEC31A"/>
<path fill-rule="evenodd" clip-rule="evenodd" d="M110.603 195.072L117.085 172.09L174.522 114.318L110.603 195.072Z" fill="#FCD741"/>
<path fill-rule="evenodd" clip-rule="evenodd" d="M69.6357 154.239L106.885 167.746L174.523 114.318L69.6357 154.239Z" fill="#F9E377"/>
<path fill-rule="evenodd" clip-rule="evenodd" d="M117.085 172.09L174.523 114.318L165.52 190.554L117.085 172.09Z" fill="#F9E377"/>
</svg>
