<svg width="113" height="124" viewBox="0 0 113 124" fill="none" xmlns="http://www.w3.org/2000/svg">
<path d="M67 81V66V53V43C67 42.4696 66.7893 41.9609 66.4142 41.5858C66.0391 41.2107 65.5304 41 65 41H43C42.4696 41 41.9609 41.2107 41.5858 41.5858C41.2107 41.9609 41 42.4696 41 43V81C41 81.5304 41.2107 82.0391 41.5858 82.4142C41.9609 82.7893 42.4696 83 43 83H65C65.5304 83 66.0391 82.7893 66.4142 82.4142C66.7893 82.0391 67 81.5304 67 81Z" stroke="#EAEAEA" stroke-width="2"/>
<circle cx="65" cy="60.9993" r="7.00023" fill="#EAEAEA" stroke="#EAEAEA" stroke-width="2"/>
<path d="M65 42H43C42.4477 42 42 42.4477 42 43V81C42 81.5523 42.4477 82 43 82H65C65.5523 82 66 81.5523 66 81V43C66 42.4477 65.5523 42 65 42Z" fill="#FED940"/>
<path fill-rule="evenodd" clip-rule="evenodd" d="M44 47H63.9995V73.9994H44V47Z" fill="white"/>
<path fill-rule="evenodd" clip-rule="evenodd" d="M63.9995 47V73.9994H44L63.9995 47Z" fill="#FFF0B3"/>
<path fill-rule="evenodd" clip-rule="evenodd" d="M49.9998 45.001H58V44.001H49.9998V45.001Z" fill="#FFF0B3"/>
<path d="M54.4998 80.9992C55.8806 80.9992 56.9999 79.8798 56.9999 78.4991C56.9999 77.1183 55.8806 75.999 54.4998 75.999C53.1191 75.999 51.9998 77.1183 51.9998 78.4991C51.9998 79.8798 53.1191 80.9992 54.4998 80.9992Z" fill="#FFF0B3"/>
<mask id="path-8-outside-1_0_1" maskUnits="userSpaceOnUse" x="41" y="41" width="32" height="42" fill="black">
<rect fill="white" x="41" y="41" width="32" height="42"/>
<path fill-rule="evenodd" clip-rule="evenodd" d="M66 66.9174V80.5366C66 80.9247 65.8483 81.2969 65.5782 81.5714C65.3082 81.8458 64.9419 82 64.56 82H43.44C43.0581 82 42.6918 81.8458 42.4218 81.5714C42.1517 81.2969 42 80.9247 42 80.5366V43.4634C42 43.0753 42.1517 42.7031 42.4218 42.4286C42.6918 42.1542 43.0581 42 43.44 42H64.56C64.9419 42 65.3082 42.1542 65.5782 42.4286C65.8483 42.7031 66 43.0753 66 43.4634V53.7073V55.083C68.8378 55.5591 71.0001 58.0271 71.0001 61.0002C71.0001 63.9732 68.8378 66.4413 66 66.9174Z"/>
</mask>
<path d="M66 66.9174L65.8345 65.9312L65 66.0712V66.9174H66ZM42.4218 42.4286L41.709 41.7272L41.709 41.7272L42.4218 42.4286ZM65.5782 42.4286L66.291 41.7272L66.291 41.7272L65.5782 42.4286ZM66 55.083H65V55.9292L65.8345 56.0692L66 55.083ZM67 80.5366V66.9174H65V80.5366H67ZM66.291 82.2728C66.7468 81.8096 67 81.1848 67 80.5366H65C65 80.6646 64.9498 80.7843 64.8654 80.87L66.291 82.2728ZM64.56 83C65.2124 83 65.8347 82.7365 66.291 82.2728L64.8654 80.87C64.7816 80.9552 64.6714 81 64.56 81V83ZM43.44 83H64.56V81H43.44V83ZM41.709 82.2728C42.1653 82.7365 42.7876 83 43.44 83V81C43.3286 81 43.2184 80.9552 43.1346 80.87L41.709 82.2728ZM41 80.5366C41 81.1848 41.2532 81.8096 41.709 82.2728L43.1346 80.87C43.0502 80.7843 43 80.6646 43 80.5366H41ZM41 43.4634V80.5366H43V43.4634H41ZM41.709 41.7272C41.2532 42.1904 41 42.8152 41 43.4634H43C43 43.3354 43.0502 43.2157 43.1346 43.13L41.709 41.7272ZM43.44 41C42.7876 41 42.1653 41.2635 41.709 41.7272L43.1346 43.13C43.2184 43.0448 43.3286 43 43.44 43V41ZM64.56 41H43.44V43H64.56V41ZM66.291 41.7272C65.8347 41.2635 65.2124 41 64.56 41V43C64.6714 43 64.7816 43.0448 64.8654 43.13L66.291 41.7272ZM67 43.4634C67 42.8152 66.7468 42.1904 66.291 41.7272L64.8654 43.13C64.9498 43.2157 65 43.3354 65 43.4634H67ZM67 53.7073V43.4634H65V53.7073H67ZM67 55.083V53.7073H65V55.083H67ZM65.8345 56.0692C68.1986 56.4658 70.0001 58.5236 70.0001 61.0002H72.0001C72.0001 57.5306 69.4769 54.6523 66.1655 54.0968L65.8345 56.0692ZM70.0001 61.0002C70.0001 63.4768 68.1986 65.5345 65.8345 65.9312L66.1655 67.9036C69.4769 67.348 72.0001 64.4697 72.0001 61.0002H70.0001Z" fill="#CCCCCC" mask="url(#path-8-outside-1_0_1)"/>
<rect x="60.9993" y="57.002" width="8.00023" height="8.00023" fill="white"/>
<path d="M59.8835 67.002C60.0849 66.3018 60.2748 65.6315 60.4731 64.9637C60.5041 64.8595 60.4868 64.7916 60.4181 64.7107C59.4125 63.5293 58.9419 62.1635 59.0048 60.6275C59.1164 57.9139 61.164 55.6024 63.8805 55.1046C67.1309 54.5089 70.2218 56.5645 70.8834 59.7624C71.433 62.42 70.0178 65.4112 67.4995 66.5023C65.7579 67.2569 63.9988 66.9881 62.2847 66.1737C62.2208 66.1435 62.1197 66.1492 62.0507 66.1753C61.3699 66.4314 60.6924 66.6958 60.0136 66.9576C59.98 66.9705 59.9452 66.9809 59.8835 67.002ZM63.131 57.7134C62.835 57.6804 62.6185 57.8044 62.3966 58.0067C62.3381 58.0602 62.2821 58.1169 62.2291 58.1754C61.9896 58.441 61.8383 58.7463 61.885 59.1069C61.9352 59.4949 61.9765 59.8911 62.0919 60.2628C62.41 61.2887 63.0521 62.1129 63.8556 62.8184C64.5935 63.4661 65.4018 64.0073 66.3751 64.2512C66.6868 64.3293 67.0142 64.3658 67.3365 64.3799C67.8177 64.401 68.4895 63.9752 68.6602 63.5337C68.6692 63.5101 68.6945 63.354 68.6929 63.3289C68.6791 63.1196 68.6564 62.9896 68.6343 62.7813C68.6299 62.7394 68.5937 62.6793 68.557 62.6652C68.0179 62.4556 67.4769 62.2513 66.9353 62.0487C66.7997 61.998 66.6779 62.021 66.5688 62.1248C66.3968 62.2888 66.213 62.4411 66.0429 62.6073C65.9597 62.6881 65.8852 62.7061 65.7916 62.6381C65.5434 62.4578 65.2873 62.2866 65.0491 62.0946C64.5177 61.6666 64.0736 61.1603 63.6928 60.5979C63.5998 60.4607 63.5969 60.3654 63.7318 60.2496C63.8754 60.1262 63.9844 59.9644 64.1251 59.8373C64.3042 59.6752 64.3054 59.505 64.2185 59.2989C64.0535 58.9074 63.8994 58.5112 63.7469 58.115C63.611 57.8012 63.6027 57.732 63.131 57.7134Z" fill="#FFCC05"/>
<rect x="42" y="42" width="29.0011" height="40" fill="black" style="mix-blend-mode:saturation"/>
</svg>
