<svg width="41" height="47" fill="none" viewBox="0 0 435 531" xmlns="http://www.w3.org/2000/svg"><mask id="a" x="157" y="397" width="133" height="134" style="mask-type:alpha" maskUnits="userSpaceOnUse"><path d="M157.09 397.74h132.42v132.34H157.09V397.74z" clip-rule="evenodd" fill="#fff" fill-rule="evenodd"/></mask><g mask="url(#a)"><path d="M289.51 463.92c0-36.546-29.644-66.17-66.215-66.17-36.57 0-66.209 29.624-66.209 66.17 0 36.54 29.639 66.17 66.209 66.17 36.571 0 66.215-29.63 66.215-66.17z" clip-rule="evenodd" fill="#FCD741" fill-rule="evenodd"/></g><mask id="b" x="210" y="397" width="80" height="134" style="mask-type:alpha" maskUnits="userSpaceOnUse"><path d="M210.06 397.74h79.454v132.34H210.06V397.74z" clip-rule="evenodd" fill="#fff" fill-rule="evenodd"/></mask><g mask="url(#b)"><path d="M227.95 397.74a57.62 57.62 0 0 0-17.892 2.85c25.269 8.237 43.669 33.461 43.669 63.32 0 29.853-18.4 55.083-43.669 63.32a57.443 57.443 0 0 0 17.892 2.85c34.001 0 61.562-29.63 61.562-66.17 0-36.546-27.561-66.17-61.562-66.17z" clip-rule="evenodd" fill="#FEC31A" fill-rule="evenodd"/></g><path d="M178.94 47.187c-4.282-21.009 9.516-41.468 30.814-45.695 21.304-4.221 42.034 9.393 46.317 30.407 4.277 21.015-9.521 41.473-30.814 45.695-21.304 4.221-42.034-9.387-46.317-30.407z" clip-rule="evenodd" fill="#F9E377" fill-rule="evenodd"/><path d="M256.06 31.901c-4.277-21.02-25.013-34.629-46.316-30.407a40.392 40.392 0 0 0-5.736 1.592c12.427 4.492 22.276 15.066 25.078 28.815 3.879 19.055-7.106 37.662-25.078 44.102a39.677 39.677 0 0 0 21.238 1.593c21.299-4.221 35.091-24.68 30.814-45.694z" clip-rule="evenodd" fill="#FCD741" fill-rule="evenodd"/><mask id="c" x="0" y="64" width="435" height="385" style="mask-type:alpha" maskUnits="userSpaceOnUse"><path d="M0 64.028h435v384.52H0V64.028z" clip-rule="evenodd" fill="#fff" fill-rule="evenodd"/></mask><g mask="url(#c)"><path d="M381.77 448.55H53.22c-29.394 0-53.227-23.509-53.227-52.518 0-16.054 7.369-31.249 20.031-41.328l10.559-8.399c24.412-19.428 38.609-48.707 38.609-79.654v-55.189c0-81.425 66.9-147.43 149.44-147.43 82.527 0 149.43 66.007 149.43 147.43v56.209c0 30.359 13.667 59.158 37.303 78.596l10.275 8.454c12.269 10.089 19.359 25.03 19.359 40.787v.524c0 29.009-23.833 52.518-53.232 52.518z" clip-rule="evenodd" fill="#F9E377" fill-rule="evenodd"/></g><mask id="d" x="218" y="64" width="217" height="385" style="mask-type:alpha" maskUnits="userSpaceOnUse"><path d="M218.64 64.023H435v384.53H218.64V64.023z" clip-rule="evenodd" fill="#fff" fill-rule="evenodd"/></mask><g mask="url(#d)"><path d="M405.37 346.27c-23.636-19.444-37.303-48.237-37.303-78.601v-56.21c0-81.424-64.443-147.43-146.97-147.43 5.326 29.42 68.414 353.3 76.471 384.52h84.21c29.394 0 53.226-23.514 53.226-52.518v-.524c0-15.757-7.09-30.698-19.359-40.787l-10.275-8.454z" clip-rule="evenodd" fill="#FCD741" fill-rule="evenodd"/></g></svg>