<svg width="47" height="46" xmlns="http://www.w3.org/2000/svg"><g fill="none" fill-rule="evenodd"><path stroke="#EAEAEA" stroke-width="2" d="M5.82 2h35.857C43.52 2 45 3.53 45 5.4v28.115L34.854 44H6.12C4.39 44 3 42.564 3 40.808V4.88C3 3.296 4.254 2 5.82 2z" fill="#FDE577"/><path stroke="#CCC" d="M5.82 2.5h35.857c1.563 0 2.823 1.302 2.823 2.9v27.913L34.642 43.5H6.122C4.67 43.5 3.5 42.291 3.5 40.808V4.88c0-1.311 1.034-2.38 2.32-2.38z"/><path fill="#FEF1B8" d="M34.421 32.808h9.568l-9.568 9.79z"/><path fill="#FED940" d="M34.421 32.808l-9.54 9.79h9.54z"/><circle fill="#FFF" cx="25" cy="22" r="8"/><path stroke="#FED940" stroke-width="2" stroke-linecap="round" stroke-linejoin="round" d="M21.808 22.114l2.294 2.337 5.263-5.007"/><path d="M41.296 3H5.806a1.76 1.76 0 0 0-1.207.482c-.364.34 29.524 29.327 29.524 29.327h9.472V5.376c0-1.312-1.03-2.376-2.299-2.376" fill-opacity=".4" fill="#FED940"/></g></svg>