<svg width="80" height="70" xmlns="http://www.w3.org/2000/svg"><g fill="none" fill-rule="evenodd"><path d="M65 29L38 7c-3.149-2.512-6.504-2.664-10 0L0 29l32.129 28L65 29z" fill="#FFCC05"/><path fill="#FEF1B8" d="M7.2 52h51.6V11H7.2z"/><path fill="#2F2515" opacity=".1" d="M58.8 52V11H7.2z"/><path d="M62.044 70A2.958 2.958 0 0 0 65 67.039V29L33.14 51 0 29v37.22C0 68.307 1.69 70 3.774 70h58.27z" fill="#FED940"/><path d="M62.044 70c.897 0 1.7-.4 2.242-1.031C64.731 68.45 33.14 41 33.14 41S.37 68.086.976 68.756A3.762 3.762 0 0 0 3.774 70h58.27z" fill="#FDE577"/><path fill="#FEC31A" d="M48.59 25.104l1.787 13.617 3.243-9.665L79.898.078z"/><path fill="#FCD741" d="M50.377 38.721l2.994-10.997L79.898.078z"/><path fill="#F9E377" d="M31.457 19.181l17.203 6.464L79.898.078zm21.913 8.543L79.899.078 75.74 36.559z"/></g></svg>