<svg width="47" height="46" xmlns="http://www.w3.org/2000/svg"><g fill="none" fill-rule="evenodd"><path d="M44 17.926L26.423 4.165c-2.126-1.553-3.212-1.553-5.303 0L4 17.925 23.771 35l20.23-17.073z" fill="#999"/><path fill="#FFF" d="M9.714 31.57h29.714V6.429H9.714z"/><path d="M23.989 32.748L44 17.925v21.372C44 41.342 42.32 43 40.24 43H7.76C5.68 43 4 41.342 4 39.297V17.925l19.989 14.823z" fill="#CCC"/><path d="M40.823 43a3.778 3.778 0 0 0 2.114-.937L23.99 27.183 5.325 42.062A3.854 3.854 0 0 0 7.452 43h33.371z" fill="#EAEAEA"/></g></svg>