<svg width="47" height="46" viewBox="0 0 41 42" fill="none" xmlns="http://www.w3.org/2000/svg"><path d="M1 11.141a1 1 0 0 0 1 1h16a1 1 0 0 0 1-1V2a1 1 0 0 0-1-1H2a1 1 0 0 0-1 1v9.141z" fill="#F9E377"/><path d="M1 11.141a1 1 0 0 0 1 1h16a1 1 0 0 0 1-1V2a1 1 0 0 0-1-1H2a1 1 0 0 0-1 1v9.141z" stroke="#EAEAEA"/><path d="M1 40a1 1 0 0 0 1 1h16a1 1 0 0 0 1-1V28a1 1 0 0 0-1-1H2a1 1 0 0 0-1 1v12z" fill="#F9E377"/><path d="M1 40a1 1 0 0 0 1 1h16a1 1 0 0 0 1-1V28a1 1 0 0 0-1-1H2a1 1 0 0 0-1 1v12z" stroke="#EAEAEA"/><path d="M22 11.141a1 1 0 0 0 1 1h16a1 1 0 0 0 1-1V2a1 1 0 0 0-1-1H23a1 1 0 0 0-1 1v9.141z" fill="#F9E377"/><path d="M22 11.141a1 1 0 0 0 1 1h16a1 1 0 0 0 1-1V2a1 1 0 0 0-1-1H23a1 1 0 0 0-1 1v9.141z" stroke="#EAEAEA"/><mask id="a" maskUnits="userSpaceOnUse" x="0" y="0" width="41" height="42" fill="#000"><path fill="#fff" d="M0 0h41v42H0z"/><path fill-rule="evenodd" clip-rule="evenodd" d="M2 12.141a1 1 0 0 1-1-1V2a1 1 0 0 1 1-1h16a1 1 0 0 1 1 1v9.141a1 1 0 0 1-1 1h-7V19h19v-6.859h-7a1 1 0 0 1-1-1V2a1 1 0 0 1 1-1h16a1 1 0 0 1 1 1v9.141a1 1 0 0 1-1 1h-7V21H11v6h7a1 1 0 0 1 1 1v12a1 1 0 0 1-1 1H2a1 1 0 0 1-1-1V28a1 1 0 0 1 1-1h7V12.141H2z"/></mask><path fill-rule="evenodd" clip-rule="evenodd" d="M2 12.141a1 1 0 0 1-1-1V2a1 1 0 0 1 1-1h16a1 1 0 0 1 1 1v9.141a1 1 0 0 1-1 1h-7V19h19v-6.859h-7a1 1 0 0 1-1-1V2a1 1 0 0 1 1-1h16a1 1 0 0 1 1 1v9.141a1 1 0 0 1-1 1h-7V21H11v6h7a1 1 0 0 1 1 1v12a1 1 0 0 1-1 1H2a1 1 0 0 1-1-1V28a1 1 0 0 1 1-1h7V12.141H2z" fill="#FDE577"/><path d="M11 12.141v-1h-1v1h1zM11 19h-1v1h1v-1zm19 0v1h1v-1h-1zm0-6.859h1v-1h-1v1zm2 0v-1h-1v1h1zM32 21v1h1v-1h-1zm-21 0v-1h-1v1h1zm0 6h-1v1h1v-1zm-2 0v1h1v-1H9zm0-14.859h1v-1H9v1zm-9-1a2 2 0 0 0 2 2v-2H0zM0 2v9.141h2V2H0zm2-2a2 2 0 0 0-2 2h2V0zm16 0H2v2h16V0zm2 2a2 2 0 0 0-2-2v2h2zm0 9.141V2h-2v9.141h2zm-2 2a2 2 0 0 0 2-2h-2v2zm-7 0h7v-2h-7v2zm-1-1V19h2v-6.859h-2zM11 20h19v-2H11v2zm20-1v-6.859h-2V19h2zm-1-7.859h-7v2h7v-2zm-7 0h-2a2 2 0 0 0 2 2v-2zm0 0V2h-2v9.141h2zM23 2V0a2 2 0 0 0-2 2h2zm0 0h16V0H23v2zm16 0h2a2 2 0 0 0-2-2v2zm0 0v9.141h2V2h-2zm0 9.141v2a2 2 0 0 0 2-2h-2zm0 0h-7v2h7v-2zm-8 1V19h2v-6.859h-2zM31 19v2h2v-2h-2zm1 1H11v2h21v-2zm-22 1v6h2v-6h-2zm8 5h-7v2h7v-2zm2 2a2 2 0 0 0-2-2v2h2zm0 12V28h-2v12h2zm-2 2a2 2 0 0 0 2-2h-2v2zM2 42h16v-2H2v2zm-2-2a2 2 0 0 0 2 2v-2H0zm0-12v12h2V28H0zm2-2a2 2 0 0 0-2 2h2v-2zm7 0H2v2h7v-2zm1 1V12.141H8V27h2zM2 13.141h7v-2H2v2z" fill="#EAEAEA" mask="url(#a)"/><path fill-rule="evenodd" clip-rule="evenodd" d="M1 11.141a1 1 0 0 0 1 1h16a1 1 0 0 0 1-1V2a1 1 0 0 0-1-1H2a1 1 0 0 0-1 1v9.141zM1 40a1 1 0 0 0 1 1h16a1 1 0 0 0 1-1V28a1 1 0 0 0-1-1H2a1 1 0 0 0-1 1v12zm21-28.859a1 1 0 0 0 1 1h16a1 1 0 0 0 1-1V2a1 1 0 0 0-1-1H23a1 1 0 0 0-1 1v9.141z" fill="#F9E377"/><mask id="b" fill="#fff"><path fill-rule="evenodd" clip-rule="evenodd" d="M2 12.141a1 1 0 0 1-1-1V2a1 1 0 0 1 1-1h16a1 1 0 0 1 1 1v9.141a1 1 0 0 1-1 1h-7V19h19v-6.859h-7a1 1 0 0 1-1-1V2a1 1 0 0 1 1-1h16a1 1 0 0 1 1 1v9.141a1 1 0 0 1-1 1h-7V21H11v6h7a1 1 0 0 1 1 1v12a1 1 0 0 1-1 1H2a1 1 0 0 1-1-1V28a1 1 0 0 1 1-1h7V12.141H2z"/></mask><path fill-rule="evenodd" clip-rule="evenodd" d="M2 12.141a1 1 0 0 1-1-1V2a1 1 0 0 1 1-1h16a1 1 0 0 1 1 1v9.141a1 1 0 0 1-1 1h-7V19h19v-6.859h-7a1 1 0 0 1-1-1V2a1 1 0 0 1 1-1h16a1 1 0 0 1 1 1v9.141a1 1 0 0 1-1 1h-7V21H11v6h7a1 1 0 0 1 1 1v12a1 1 0 0 1-1 1H2a1 1 0 0 1-1-1V28a1 1 0 0 1 1-1h7V12.141H2z" fill="#FDE577"/><path d="M11 12.141v-1h-1v1h1zM11 19h-1v1h1v-1zm19 0v1h1v-1h-1zm0-6.859h1v-1h-1v1zm2 0v-1h-1v1h1zM32 21v1h1v-1h-1zm-21 0v-1h-1v1h1zm0 6h-1v1h1v-1zm-2 0v1h1v-1H9zm0-14.859h1v-1H9v1zm-9-1a2 2 0 0 0 2 2v-2H0zM0 2v9.141h2V2H0zm2-2a2 2 0 0 0-2 2h2V0zm16 0H2v2h16V0zm2 2a2 2 0 0 0-2-2v2h2zm0 9.141V2h-2v9.141h2zm-2 2a2 2 0 0 0 2-2h-2v2zm-7 0h7v-2h-7v2zm-1-1V19h2v-6.859h-2zM11 20h19v-2H11v2zm20-1v-6.859h-2V19h2zm-1-7.859h-7v2h7v-2zm-7 0h-2a2 2 0 0 0 2 2v-2zm0 0V2h-2v9.141h2zM23 2V0a2 2 0 0 0-2 2h2zm0 0h16V0H23v2zm16 0h2a2 2 0 0 0-2-2v2zm0 0v9.141h2V2h-2zm0 9.141v2a2 2 0 0 0 2-2h-2zm0 0h-7v2h7v-2zm-8 1V19h2v-6.859h-2zM31 19v2h2v-2h-2zm1 1H11v2h21v-2zm-22 1v6h2v-6h-2zm8 5h-7v2h7v-2zm2 2a2 2 0 0 0-2-2v2h2zm0 12V28h-2v12h2zm-2 2a2 2 0 0 0 2-2h-2v2zM2 42h16v-2H2v2zm-2-2a2 2 0 0 0 2 2v-2H0zm0-12v12h2V28H0zm2-2a2 2 0 0 0-2 2h2v-2zm7 0H2v2h7v-2zm1 1V12.141H8V27h2zM2 13.141h7v-2H2v2z" fill="#CCC" mask="url(#b)"/><path fill-rule="evenodd" clip-rule="evenodd" d="M16.493 11.114A1 1 0 0 0 18 10.252V3a1 1 0 0 0-1-1H4.672c-1.018 0-1.385 1.345-.507 1.862l12.328 7.252zm-.1 28.656A1 1 0 0 0 18 38.977V29a1 1 0 0 0-1-1H3.954c-.956 0-1.367 1.213-.608 1.794l13.047 9.977zm21.1-28.656A1 1 0 0 0 39 10.252V3a1 1 0 0 0-1-1H25.672c-1.018 0-1.385 1.345-.507 1.862l12.328 7.252z" fill="#FCD741"/></svg>