<svg width="79" height="70" xmlns="http://www.w3.org/2000/svg"><g fill="none" fill-rule="evenodd"><path fill="#FEEDA8" d="M0 70h64.188V18H0z"/><path d="M64.188 18.157V9.104c0-2.18-1.67-3.947-3.728-3.947H2.92C1.306 5.157 0 6.54 0 8.249v9.908h64.188z" fill="#2A2513"/><path fill="#2F2515" opacity=".2" d="M64.188 70V18H0z"/><path d="M16.424 11.354c0-1.343 1.075-2.432 2.402-2.432 1.326 0 2.402 1.089 2.402 2.432s-1.076 2.432-2.402 2.432c-1.327 0-2.402-1.09-2.402-2.432m-6.508 0c0-1.343 1.076-2.432 2.402-2.432s2.402 1.089 2.402 2.432-1.076 2.432-2.402 2.432-2.402-1.09-2.402-2.432m-6.159 0c0-1.343 1.076-2.432 2.402-2.432S8.56 10.01 8.56 11.354s-1.076 2.432-2.402 2.432-2.402-1.09-2.402-2.432" fill="#FEEDA8"/><path d="M25.12 33.8c-.356 0-.7-.187-.892-.52l-2.326-4.09a1.044 1.044 0 0 1 .376-1.419 1.02 1.02 0 0 1 1.404.38l2.328 4.09a1.05 1.05 0 0 1-.377 1.42c-.162.096-.339.14-.514.14m4.856.416c-.162 0-.326-.04-.478-.121a1.043 1.043 0 0 1-.43-1.403l2.175-4.175c.267-.51.893-.7 1.388-.434.5.268.694.896.429 1.405l-2.176 4.172c-.183.354-.54.556-.908.556M18.596 39.13c-.495 0-.932-.366-1.012-.878-.089-.567.293-1.1.854-1.189l4.604-.734a1.039 1.039 0 0 1 1.175.865 1.04 1.04 0 0 1-.854 1.19l-4.605.733a1.065 1.065 0 0 1-.162.013m22.58 9.215c.513-.025.604-.308.197-.628L27.501 36.73c-.404-.322-.708-.16-.673.362l1.154 17.793c.035.52.316.605.626.19l3.584-4.832 2.564 4.505c.286.501.803.782 1.337.782.26 0 .523-.069.766-.208a1.57 1.57 0 0 0 .564-2.131l-2.578-4.53.035-.019 6.296-.297z" fill="#2A2513"/><path fill="#FEC31A" d="M47.982 25.104l1.765 13.617 3.203-9.665L78.9.078z"/><path fill="#FCD741" d="M49.747 38.721l2.957-10.997L78.899.078z"/><path fill="#F9E377" d="M31.063 19.181l16.989 6.464L78.899.078zm21.641 8.543L78.899.078l-4.105 36.481z"/></g></svg>