<svg width="46" height="40" fill="none" xmlns="http://www.w3.org/2000/svg"><path fill-rule="evenodd" clip-rule="evenodd" d="M1.528 33.492h34.127V2.817H1.528v30.677z" fill="#65C192"/><path fill-rule="evenodd" clip-rule="evenodd" d="M0 33.493h37.184v-23.24H0v23.24z" fill="#79D3A5"/><path fill-rule="evenodd" clip-rule="evenodd" d="M37.184 38.605c0 .358-.136.714-.408.986-.273.273-.63.41-.987.41H1.394c-.356 0-.713-.137-.985-.41A1.386 1.386 0 0 1 0 38.605v-5.113h37.184v5.113z" fill="#65C192"/><path fill-rule="evenodd" clip-rule="evenodd" d="M0 10.253h4.483V5.77L0 10.253z" fill="#2A2513"/><path fill-rule="evenodd" clip-rule="evenodd" d="M1.528 8.725L4.483 5.77 1.528 2.816v5.909z" fill="#79D3A5"/><path fill-rule="evenodd" clip-rule="evenodd" d="M37.184 10.253H32.7V5.77l4.483 4.483z" fill="#2A2513"/><path fill-rule="evenodd" clip-rule="evenodd" d="M35.655 8.725L32.701 5.77l2.954-2.954v5.909z" fill="#79D3A5"/><path fill-rule="evenodd" clip-rule="evenodd" d="M10.69 14.504a1.395 1.395 0 1 1-2.79-.001 1.395 1.395 0 0 1 2.79 0z" fill="#2A2513"/><path fill-rule="evenodd" clip-rule="evenodd" d="M18.592 29.233c-2.66 0-5.154-1.253-7.022-3.528-1.841-2.243-2.855-5.215-2.855-8.372v-2.83a.582.582 0 0 1 1.162 0v2.83c0 2.888.92 5.6 2.59 7.634 1.645 2.002 3.82 3.104 6.125 3.104 2.306 0 4.481-1.102 6.125-3.104 1.67-2.034 2.59-4.746 2.59-7.634v-2.83a.582.582 0 0 1 1.162 0v2.83c0 3.157-1.014 6.13-2.855 8.371-1.868 2.276-4.362 3.529-7.022 3.529z" fill="#65C192"/><path fill-rule="evenodd" clip-rule="evenodd" d="M18.592 26.704a9.816 9.816 0 0 1-6.984-2.892 9.817 9.817 0 0 1-2.893-6.985v-2.323a.581.581 0 0 1 1.162 0v2.324a8.66 8.66 0 0 0 2.553 6.162 8.66 8.66 0 0 0 6.162 2.552 8.658 8.658 0 0 0 6.163-2.552 8.66 8.66 0 0 0 2.552-6.162v-2.324a.581.581 0 0 1 1.162 0v2.324a9.813 9.813 0 0 1-2.892 6.983 9.81 9.81 0 0 1-6.985 2.893z" fill="#FEEDA8"/><path fill-rule="evenodd" clip-rule="evenodd" d="M27.796 14.317l1.023 7.79 1.855-5.53L45.707 0l-17.91 14.317z" fill="#FEC31A"/><path fill-rule="evenodd" clip-rule="evenodd" d="M28.819 22.107l1.712-6.292L45.707 0 28.819 22.107z" fill="#FCD741"/><path fill-rule="evenodd" clip-rule="evenodd" d="M17.995 10.928l9.841 3.698L45.707 0l-27.71 10.928zm12.537 4.887L45.707 0l-2.379 20.87-12.797-5.055z" fill="#FDE577"/><circle cx="35.909" cy="29.803" r="8.636" fill="#EA6552"/><path d="M35.458 34.545h1.083V33.51c1.693-.173 2.534-1.164 2.534-2.443 0-1.578-1.336-2.039-2.534-2.338v-1.59a3.272 3.272 0 0 1 1.44.748l.91-1.22c-.622-.577-1.417-.922-2.35-1.026v-1.095h-1.083v1.072c-1.556.161-2.477 1.152-2.477 2.316 0 1.566 1.29 2.016 2.477 2.304v1.785a3.372 3.372 0 0 1-1.832-.99l-.899 1.278c.634.634 1.521 1.095 2.73 1.199v1.036zm1.947-3.318c0 .37-.277.703-.864.818v-1.543c.507.161.864.345.864.726zm-2.742-3.421c0-.392.288-.668.795-.738v1.394c-.473-.15-.795-.322-.795-.656z" fill="#fff"/></svg>