<svg width="47" height="46" xmlns="http://www.w3.org/2000/svg" xmlns:xlink="http://www.w3.org/1999/xlink"><defs><path id="a" d="M0 0h40v39.6H0V0z"/></defs><g transform="translate(4 3)" fill="none" fill-rule="evenodd"><mask id="b" fill="#fff"><use xlink:href="#a"/></mask><path d="M37.677 0H1.819C.814 0 0 .833 0 1.861v35.568c0 1.199.949 2.17 2.121 2.17h28.308L40 29.809V2.376C40 1.064 38.96 0 37.677 0" fill="#CCC" mask="url(#b)"/><path fill="#EFEFEF" mask="url(#b)" d="M30 30h9.568L30 39.79z"/><path fill="#D3D3D3" mask="url(#b)" d="M30.54 30L21 39.79h9.54z"/><path d="M18.713 17.969a1 1 0 1 0-1.427 1.401l2.293 2.337a1 1 0 0 0 1.403.024l5.263-5.007a1.001 1.001 0 0 0-1.379-1.449l-4.549 4.329-1.604-1.635zM21 27a8 8 0 1 1 0-16 8 8 0 0 1 0 16z" fill="#FAFAFA" mask="url(#b)"/><path d="M38.072 0H2.223c-.469 0-.898.182-1.22.482-.368.34 29.823 29.327 29.823 29.327h9.568V2.376c0-1.312-1.04-2.376-2.322-2.376" fill-opacity=".2" fill="#999" mask="url(#b)"/></g></svg>