<svg width="47" height="47" viewBox="0 0 47 47" fill="none" xmlns="http://www.w3.org/2000/svg">
<path d="M32 3.09091H10C9.44772 3.09091 9 3.55898 9 4.13637V43.8636C9 44.441 9.44772 44.9091 10 44.9091H32C32.5523 44.9091 33 44.441 33 43.8636V4.13637C33 3.55898 32.5523 3.09091 32 3.09091Z" fill="#FED940"/>
<path fill-rule="evenodd" clip-rule="evenodd" d="M11 8.31818H30.9995V36.5448H11V8.31818Z" fill="white"/>
<path fill-rule="evenodd" clip-rule="evenodd" d="M30.9995 8.31818V36.5448H11L30.9995 8.31818Z" fill="#FFF0B3"/>
<path fill-rule="evenodd" clip-rule="evenodd" d="M16.9998 6.22833H25V5.18285H16.9998V6.22833Z" fill="#FFF0B3"/>
<path d="M21.4998 43.8628C22.8806 43.8628 23.9999 42.6925 23.9999 41.2491C23.9999 39.8055 22.8806 38.6353 21.4998 38.6353C20.1191 38.6353 18.9998 39.8055 18.9998 41.2491C18.9998 42.6925 20.1191 43.8628 21.4998 43.8628Z" fill="#FFF0B3"/>
<path d="M35.9996 18.7748H27.9993V27.1387H35.9996V18.7748Z" fill="white"/>
<path d="M26.8835 29.2294C27.0849 28.4973 27.2748 27.7966 27.4731 27.0984C27.5041 26.9895 27.4868 26.9185 27.4181 26.8339C26.4125 25.5988 25.9419 24.1709 26.0048 22.5651C26.1164 19.7282 28.164 17.3116 30.8805 16.7912C34.1309 16.1684 37.2218 18.3174 37.8834 21.6607C38.433 24.4391 37.0178 27.5662 34.4995 28.7069C32.7579 29.4958 30.9988 29.2148 29.2847 28.3634C29.2208 28.3318 29.1197 28.3378 29.0507 28.3651C28.3699 28.6328 27.6924 28.9092 27.0136 29.1829C26.98 29.1964 26.9452 29.2073 26.8835 29.2294ZM30.131 19.5185C29.835 19.484 29.6185 19.6137 29.3966 19.8252C29.3381 19.8811 29.2821 19.9404 29.2291 20.0015C28.9896 20.2792 28.8383 20.5984 28.885 20.9754C28.9352 21.381 28.9765 21.7952 29.0919 22.1838C29.41 23.2564 30.0521 24.118 30.8556 24.8556C31.5935 25.5327 32.4018 26.0985 33.3751 26.3535C33.6868 26.4352 34.0142 26.4733 34.3365 26.4881C34.8177 26.5101 35.4895 26.065 35.6602 25.6034C35.6692 25.5787 35.6945 25.4155 35.6929 25.3893C35.6791 25.1705 35.6564 25.0346 35.6343 24.8168C35.6299 24.773 35.5937 24.7102 35.557 24.6954C35.0179 24.4763 34.4769 24.2627 33.9353 24.0509C33.7997 23.9979 33.6779 24.0219 33.5688 24.1305C33.3968 24.3019 33.213 24.4611 33.0429 24.6349C32.9597 24.7194 32.8852 24.7382 32.7916 24.6671C32.5434 24.4786 32.2873 24.2996 32.0491 24.0989C31.5177 23.6514 31.0736 23.1221 30.6928 22.5342C30.5998 22.3907 30.5969 22.2911 30.7318 22.17C30.8754 22.041 30.9844 21.8719 31.1251 21.739C31.3042 21.5695 31.3054 21.3916 31.2185 21.1761C31.0535 20.7668 30.8994 20.3526 30.7469 19.9384C30.611 19.6103 30.6027 19.538 30.131 19.5185Z" fill="#FFCC05"/>
</svg>
