<svg width="47" height="46" xmlns="http://www.w3.org/2000/svg"><g transform="translate(4 3)" fill="none" fill-rule="evenodd"><path d="M20 40C8.954 40 0 31.046 0 20S8.954 0 20 0s20 8.954 20 20-8.954 20-20 20z" fill="#FFCC05"/><path d="M20 35.443c-8.53 0-15.443-6.914-15.443-15.443 0-8.53 6.914-15.443 15.443-15.443 8.53 0 15.443 6.914 15.443 15.443 0 8.53-6.914 15.443-15.443 15.443z" fill="#FFFBE8"/><path d="M20 4.557c8.53 0 15.443 6.914 15.443 15.443 0 8.53-6.914 15.443-15.443 15.443V4.557z" fill="#FEF1B8"/><path d="M16.576 16.52a1.5 1.5 0 1 0-2.121 2.12l4.407 4.407a1.5 1.5 0 0 0 2.12 0l8.034-8.03a1.5 1.5 0 0 0-2.12-2.122l-6.973 6.97-3.347-3.346z" fill="#FFCC05" fill-rule="nonzero"/><circle fill="#FBB224" cx="20" cy="8" r="1"/><circle fill="#FBB224" cx="8" cy="20" r="1"/><circle fill="#FBB224" cx="32" cy="20" r="1"/><circle fill="#FBB224" cx="20" cy="33" r="1"/></g></svg>