<svg width="47" height="47" viewBox="0 0 47 47" fill="none" xmlns="http://www.w3.org/2000/svg">
<path d="M33.0639 42.9524V27.5952V14.2857V4.04762C33.0639 3.50459 32.8607 2.98378 32.4992 2.59975C32.1376 2.21572 31.6472 2 31.1359 2H9.92799C9.41669 2 8.9263 2.21572 8.56471 2.59975C8.20311 2.98378 8 3.50459 8 4.04762V42.9524C8 43.4954 8.20311 44.0162 8.56471 44.4003C8.9263 44.7843 9.41669 45 9.92799 45H31.1359C31.6472 45 32.1376 44.7843 32.4992 44.4003C32.8607 44.0162 33.0639 43.4954 33.0639 42.9524Z" stroke="#EAEAEA" stroke-width="2"/>
<path d="M31.1359 29.6424C34.8628 29.6424 37.8841 26.4336 37.8841 22.4755C37.8841 18.5173 34.8628 15.3086 31.1359 15.3086C27.409 15.3086 24.3877 18.5173 24.3877 22.4755C24.3877 26.4336 27.409 29.6424 31.1359 29.6424Z" fill="#EAEAEA" stroke="#EAEAEA" stroke-width="2"/>
<path d="M31.1359 3.02382H9.92798C9.39557 3.02382 8.96399 3.48218 8.96399 4.04763V42.9524C8.96399 43.5178 9.39557 43.9762 9.92798 43.9762H31.1359C31.6683 43.9762 32.0999 43.5178 32.0999 42.9524V4.04763C32.0999 3.48218 31.6683 3.02382 31.1359 3.02382Z" fill="#FED940"/>
<path fill-rule="evenodd" clip-rule="evenodd" d="M10.892 8.14285H30.1714V35.7851H10.892V8.14285Z" fill="white"/>
<path fill-rule="evenodd" clip-rule="evenodd" d="M30.1714 8.14285V35.7851H10.892L30.1714 8.14285Z" fill="#FFF0B3"/>
<path fill-rule="evenodd" clip-rule="evenodd" d="M16.6758 6.09627H24.3879V5.07246H16.6758V6.09627Z" fill="#FFF0B3"/>
<path d="M21.0137 42.9516C22.3448 42.9516 23.4238 41.8055 23.4238 40.3919C23.4238 38.9783 22.3448 37.8323 21.0137 37.8323C19.6828 37.8323 18.6038 38.9783 18.6038 40.3919C18.6038 41.8055 19.6828 42.9516 21.0137 42.9516Z" fill="#FFF0B3"/>
<mask id="mask0_30_183" style="mask-type:luminance" maskUnits="userSpaceOnUse" x="8" y="2" width="31" height="43">
<path d="M38.8478 2H8V45H38.8478V2Z" fill="white"/>
<path fill-rule="evenodd" clip-rule="evenodd" d="M32.0999 28.5345V42.478C32.0999 42.8753 31.9536 43.2564 31.6932 43.5374C31.433 43.8183 31.0799 43.9762 30.7117 43.9762H10.3521C9.98399 43.9762 9.63088 43.8183 9.3706 43.5374C9.11023 43.2564 8.96399 42.8753 8.96399 42.478V4.52206C8.96399 4.12472 9.11023 3.74366 9.3706 3.46262C9.63088 3.18169 9.98399 3.02382 10.3521 3.02382H30.7117C31.0799 3.02382 31.433 3.18169 31.6932 3.46262C31.9536 3.74366 32.0999 4.12472 32.0999 4.52206V15.0099V16.4183C34.8355 16.9058 36.9199 19.4325 36.9199 22.4764C36.9199 25.5202 34.8355 28.0471 32.0999 28.5345Z" fill="black"/>
</mask>
<g mask="url(#mask0_30_183)">
<path d="M32.0999 28.5345L31.9403 27.5248L31.1359 27.6681V28.5345H32.0999ZM32.0999 16.4183H31.1359V17.2847L31.9403 17.428L32.0999 16.4183ZM33.0639 42.4779V28.5345H31.1359V42.4779H33.0639ZM32.3804 44.2555C32.8198 43.7813 33.0639 43.1416 33.0639 42.4779H31.1359C31.1359 42.609 31.0875 42.7315 31.0061 42.8193L32.3804 44.2555ZM30.7117 45C31.3406 45 31.9405 44.7302 32.3804 44.2555L31.0061 42.8193C30.9253 42.9065 30.8191 42.9524 30.7117 42.9524V45ZM10.3521 45H30.7117V42.9524H10.3521V45ZM8.68347 44.2555C9.12334 44.7302 9.72324 45 10.3521 45V42.9524C10.2448 42.9524 10.1385 42.9065 10.0577 42.8193L8.68347 44.2555ZM8 42.4779C8 43.1416 8.24408 43.7813 8.68347 44.2555L10.0577 42.8193C9.97638 42.7315 9.92799 42.609 9.92799 42.4779H8ZM8 4.52205V42.4779H9.92799V4.52205H8ZM8.68347 2.74451C8.24408 3.21874 8 3.85842 8 4.52205H9.92799C9.92799 4.39101 9.97638 4.26846 10.0577 4.18072L8.68347 2.74451ZM10.3521 2C9.72324 2 9.12334 2.26977 8.68347 2.74451L10.0577 4.18072C10.1385 4.09349 10.2448 4.04762 10.3521 4.04762V2ZM30.7117 2H10.3521V4.04762H30.7117V2ZM32.3804 2.74451C31.9405 2.26977 31.3406 2 30.7117 2V4.04762C30.8191 4.04762 30.9253 4.09349 31.0061 4.18072L32.3804 2.74451ZM33.0639 4.52205C33.0639 3.85842 32.8198 3.21874 32.3804 2.74451L31.0061 4.18072C31.0875 4.26846 31.1359 4.39101 31.1359 4.52205H33.0639ZM33.0639 15.0099V4.52205H31.1359V15.0099H33.0639ZM33.0639 16.4183V15.0099H31.1359V16.4183H33.0639ZM31.9403 17.428C34.2193 17.834 35.9559 19.9408 35.9559 22.4764H37.8839C37.8839 18.9242 35.4516 15.9774 32.2594 15.4086L31.9403 17.428ZM35.9559 22.4764C35.9559 25.012 34.2193 27.1187 31.9403 27.5248L32.2594 29.5442C35.4516 28.9753 37.8839 26.0285 37.8839 22.4764H35.9559Z" fill="#CCCCCC"/>
</g>
<path d="M34.9914 18.383H27.2792V26.5737H34.9914V18.383Z" fill="white"/>
<path d="M26.2037 28.6211C26.3978 27.9042 26.5809 27.218 26.7721 26.5343C26.8019 26.4276 26.7853 26.3581 26.719 26.2753C25.7496 25.0657 25.296 23.6674 25.3566 22.0948C25.4642 19.3166 27.4381 16.9501 30.0568 16.4404C33.1901 15.8305 36.1697 17.9351 36.8075 21.2091C37.3373 23.93 35.9731 26.9924 33.5455 28.1095C31.8666 28.8821 30.1708 28.6069 28.5184 27.7731C28.4568 27.7422 28.3594 27.748 28.2929 27.7747C27.6366 28.0369 26.9835 28.3076 26.3291 28.5757C26.2967 28.5889 26.2632 28.5995 26.2037 28.6211ZM29.3343 19.1114C29.0489 19.0776 28.8402 19.2045 28.6263 19.4116C28.5699 19.4664 28.5159 19.5245 28.4648 19.5843C28.234 19.8563 28.0881 20.1688 28.1331 20.538C28.1815 20.9353 28.2213 21.3409 28.3326 21.7214C28.6392 22.7718 29.2582 23.6156 30.0328 24.3379C30.7441 25.001 31.5233 25.5551 32.4615 25.8048C32.762 25.8848 33.0776 25.9221 33.3883 25.9366C33.8522 25.9582 34.4998 25.5222 34.6644 25.0702C34.6731 25.0461 34.6974 24.8862 34.6959 24.8606C34.6826 24.6463 34.6607 24.5132 34.6394 24.2999C34.6352 24.257 34.6003 24.1955 34.5649 24.181C34.0452 23.9665 33.5237 23.7573 33.0016 23.5499C32.8709 23.498 32.7534 23.5215 32.6483 23.6278C32.4825 23.7957 32.3053 23.9516 32.1413 24.1218C32.0611 24.2045 31.9893 24.2229 31.8991 24.1533C31.6598 23.9687 31.4129 23.7934 31.1833 23.5969C30.671 23.1587 30.2429 22.6403 29.8758 22.0645C29.7862 21.9241 29.7834 21.8265 29.9134 21.7079C30.0519 21.5816 30.1569 21.4159 30.2926 21.2858C30.4652 21.1199 30.4664 20.9456 30.3826 20.7346C30.2235 20.3338 30.075 19.9281 29.928 19.5225C29.797 19.2012 29.789 19.1304 29.3343 19.1114Z" fill="#FFCC05"/>
<g style="mix-blend-mode:saturation">
<path d="M36.9209 3.02382H8.96399V43.9762H36.9209V3.02382Z" fill="black"/>
</g>
</svg>
