<svg width="25" height="25" xmlns="http://www.w3.org/2000/svg"><g fill="none" fill-rule="evenodd"><path fill="#FFEEA7" d="M2.143 22.857h20.714V2.143H2.143z"/><path d="M16.09 22.857h6.767l-5.714-15H9.286V10l3.174 7.143H10l2.179 5.714h3.91z" fill="#44300B" opacity=".2"/><path d="M0 3.571V0h3.571v3.571H0zm21.429 0V0H25v3.571h-3.571zM0 25v-3.571h3.571V25H0zm21.429 0v-3.571H25V25h-3.571zm-20-18.571V3.57h.714v2.86h-.714zm0 5V7.857h.714v3.572h-.714zm0 5v-3.572h.714v3.572h-.714zm0 5v-3.572h.714v3.572h-.714zm21.428-15V3.57h.714v2.86h-.714zm0 5V7.857h.714v3.572h-.714zm0 5v-3.572h.714v3.572h-.714zm0 5v-3.572h.714v3.572h-.714zM3.571 23.57v-.714H6.43v.714H3.57zm4.286 0v-.714h3.572v.714H7.857zm5 0v-.714h3.572v.714h-3.572zm5 0v-.714h3.572v.714h-3.572zM3.571 2.857v-.714H6.43v.714H3.57zm4.286 0v-.714h3.572v.714H7.857zm5 0v-.714h3.572v.714h-3.572zm5 0v-.714h3.572v.714h-3.572zM7.857 10H8.93c.044-.591.111-.982.2-1.16.09-.18.257-.269.514-.269h1.786v7.143c0 .313-.078.502-.235.57-.156.077-.558.122-1.194.145v.714h5v-.714c-.603-.023-.982-.068-1.16-.145-.18-.068-.269-.257-.269-.57V8.571h1.786c.257 0 .424.09.514.268.078.179.145.57.2 1.161h1.072V7.857H7.857V10z" fill="#44300B"/></g></svg>