<svg width="47" height="46" xmlns="http://www.w3.org/2000/svg"><g transform="translate(11 3)" fill="none" fill-rule="evenodd"><rect fill="#C2C2C2" width="24" height="40" rx="1"/><path fill="#FFF" d="M2 5h20v27H2z"/><path fill="#EFEFEF" d="M22 5v27H2z"/><path d="M21.5 23L18 26v-3h-3a1 1 0 0 1-1-1v-9a1 1 0 0 1 1-1h16a1 1 0 0 1 1 1v9a1 1 0 0 1-1 1h-9.5z" fill="#999"/><path fill="#FFF" d="M17 15h12v1H17zm0 2h12v1H17zm0 2h5v1h-5z"/><path fill="#EFEFEF" d="M8 3h8V2H8z"/><circle fill="#EFEFEF" cx="12.5" cy="36.5" r="2.5"/></g></svg>