<svg width="47" height="46" viewBox="0 0 41 42" fill="none" xmlns="http://www.w3.org/2000/svg"><path d="M1 11.141a1 1 0 0 0 1 1h16a1 1 0 0 0 1-1V2a1 1 0 0 0-1-1H2a1 1 0 0 0-1 1v9.141zM1 40a1 1 0 0 0 1 1h16a1 1 0 0 0 1-1V28a1 1 0 0 0-1-1H2a1 1 0 0 0-1 1v12zm21-28.859a1 1 0 0 0 1 1h16a1 1 0 0 0 1-1V2a1 1 0 0 0-1-1H23a1 1 0 0 0-1 1v9.141z" fill="#F9E377"/><path fill-rule="evenodd" clip-rule="evenodd" d="M2 12.141a1 1 0 0 1-1-1V2a1 1 0 0 1 1-1h16a1 1 0 0 1 1 1v9.141a1 1 0 0 1-1 1h-7V19h19v-6.859h-7a1 1 0 0 1-1-1V2a1 1 0 0 1 1-1h16a1 1 0 0 1 1 1v9.141a1 1 0 0 1-1 1h-7V21H11v6h7a1 1 0 0 1 1 1v12a1 1 0 0 1-1 1H2a1 1 0 0 1-1-1V28a1 1 0 0 1 1-1h7V12.141H2z" fill="#FDE577"/><path fill-rule="evenodd" clip-rule="evenodd" d="M1 11.141a1 1 0 0 0 1 1h16a1 1 0 0 0 1-1V2a1 1 0 0 0-1-1H2a1 1 0 0 0-1 1v9.141zM1 40a1 1 0 0 0 1 1h16a1 1 0 0 0 1-1V28a1 1 0 0 0-1-1H2a1 1 0 0 0-1 1v12zm21-28.859a1 1 0 0 0 1 1h16a1 1 0 0 0 1-1V2a1 1 0 0 0-1-1H23a1 1 0 0 0-1 1v9.141z" fill="#F9E377"/><path fill-rule="evenodd" clip-rule="evenodd" d="M2 12.141a1 1 0 0 1-1-1V2a1 1 0 0 1 1-1h16a1 1 0 0 1 1 1v9.141a1 1 0 0 1-1 1h-7V19h19v-6.859h-7a1 1 0 0 1-1-1V2a1 1 0 0 1 1-1h16a1 1 0 0 1 1 1v9.141a1 1 0 0 1-1 1h-7V21H11v6h7a1 1 0 0 1 1 1v12a1 1 0 0 1-1 1H2a1 1 0 0 1-1-1V28a1 1 0 0 1 1-1h7V12.141H2z" fill="#FDE577"/><path fill-rule="evenodd" clip-rule="evenodd" d="M16.493 11.114A1 1 0 0 0 18 10.252V3a1 1 0 0 0-1-1H4.672c-1.018 0-1.385 1.345-.507 1.862l12.328 7.252zm-.1 28.656A1 1 0 0 0 18 38.977V29a1 1 0 0 0-1-1H3.954c-.956 0-1.367 1.213-.608 1.794l13.047 9.977zm21.1-28.656A1 1 0 0 0 39 10.252V3a1 1 0 0 0-1-1H25.672c-1.018 0-1.385 1.345-.507 1.862l12.328 7.252z" fill="#FCD741"/></svg>