<svg width="47" height="47" viewBox="0 0 47 47" fill="none" xmlns="http://www.w3.org/2000/svg">
<g clip-path="url(#clip0_30_237)">
<path d="M33.3864 42.0682V27.4091V14.7046V4.93183C33.3864 4.41345 33.1804 3.9163 32.8139 3.54976C32.4473 3.1832 31.9502 2.97728 31.4318 2.97728H9.93181C9.41344 2.97728 8.91629 3.1832 8.54974 3.54976C8.18319 3.9163 7.97726 4.41345 7.97726 4.93183V42.0682C7.97726 42.5865 8.18319 43.0837 8.54974 43.4502C8.91629 43.8168 9.41344 44.0227 9.93181 44.0227H31.4318C31.9502 44.0227 32.4473 43.8168 32.8139 43.4502C33.1804 43.0837 33.3864 42.5865 33.3864 42.0682Z" stroke="#EAEAEA" stroke-width="2"/>
<path d="M31.4318 29.3632C35.2101 29.3632 38.273 26.3003 38.273 22.522C38.273 18.7438 35.2101 15.6809 31.4318 15.6809C27.6536 15.6809 24.5907 18.7438 24.5907 22.522C24.5907 26.3003 27.6536 29.3632 31.4318 29.3632Z" fill="#EAEAEA" stroke="#EAEAEA" stroke-width="2"/>
<path d="M31.4318 3.95454H9.93183C9.3921 3.95454 8.95456 4.39209 8.95456 4.93182V42.0682C8.95456 42.6079 9.3921 43.0455 9.93183 43.0455H31.4318C31.9716 43.0455 32.4091 42.6079 32.4091 42.0682V4.93182C32.4091 4.39209 31.9716 3.95454 31.4318 3.95454Z" fill="#FED940"/>
<path fill-rule="evenodd" clip-rule="evenodd" d="M10.9091 8.84091H30.4541V35.2267H10.9091V8.84091Z" fill="white"/>
<path fill-rule="evenodd" clip-rule="evenodd" d="M30.4541 8.84091V35.2267H10.9091L30.4541 8.84091Z" fill="#FFF0B3"/>
<path fill-rule="evenodd" clip-rule="evenodd" d="M16.7725 6.88735H24.5909V5.91005H16.7725V6.88735Z" fill="#FFF0B3"/>
<path d="M21.1703 42.0674C22.5197 42.0674 23.6135 40.9734 23.6135 39.6241C23.6135 38.2747 22.5197 37.1808 21.1703 37.1808C19.8209 37.1808 18.7271 38.2747 18.7271 39.6241C18.7271 40.9734 19.8209 42.0674 21.1703 42.0674Z" fill="#FFF0B3"/>
<mask id="mask0_30_237" style="mask-type:luminance" maskUnits="userSpaceOnUse" x="7" y="2" width="33" height="43">
<path d="M39.25 2.97728H7.97726V44.0227H39.25V2.97728Z" fill="white"/>
<path fill-rule="evenodd" clip-rule="evenodd" d="M32.4091 28.3057V41.6153C32.4091 41.9946 32.2608 42.3583 31.9969 42.6266C31.733 42.8948 31.375 43.0455 31.0018 43.0455H10.3618C9.98857 43.0455 9.63063 42.8948 9.36671 42.6266C9.10279 42.3583 8.95453 41.9946 8.95453 41.6153V5.38471C8.95453 5.00541 9.10279 4.64165 9.36671 4.37344C9.63063 4.10524 9.98857 3.95456 10.3618 3.95456H31.0018C31.375 3.95456 31.733 4.10524 31.9969 4.37344C32.2608 4.64165 32.4091 5.00541 32.4091 5.38471V15.3958V16.7402C35.1824 17.2055 37.2955 19.6174 37.2955 22.5229C37.2955 25.4284 35.1824 27.8404 32.4091 28.3057Z" fill="black"/>
</mask>
<g mask="url(#mask0_30_237)">
<path d="M32.4091 28.3056L32.2473 27.3419L31.4318 27.4787V28.3056H32.4091ZM32.4091 16.7402H31.4318V17.5672L32.2473 17.704L32.4091 16.7402ZM33.3864 41.6153V28.3056H31.4318V41.6153H33.3864ZM32.6935 43.3121C33.1389 42.8594 33.3864 42.2488 33.3864 41.6153H31.4318C31.4318 41.7404 31.3828 41.8574 31.3003 41.9411L32.6935 43.3121ZM31.0018 44.0227C31.6394 44.0227 32.2475 43.7652 32.6935 43.3121L31.3003 41.9411C31.2184 42.0244 31.1107 42.0682 31.0018 42.0682V44.0227ZM10.3618 44.0227H31.0018V42.0682H10.3618V44.0227ZM8.67013 43.3121C9.11606 43.7652 9.72426 44.0227 10.3618 44.0227V42.0682C10.2529 42.0682 10.1452 42.0244 10.0633 41.9411L8.67013 43.3121ZM7.97726 41.6153C7.97726 42.2488 8.22473 42.8594 8.67013 43.3121L10.0633 41.9411C9.98088 41.8574 9.93181 41.7404 9.93181 41.6153H7.97726ZM7.97726 5.3847V41.6153H9.93181V5.3847H7.97726ZM8.67013 3.68799C8.22473 4.14064 7.97726 4.75125 7.97726 5.3847H9.93181C9.93181 5.25955 9.98088 5.14264 10.0633 5.05888L8.67013 3.68799ZM10.3618 2.97728C9.72426 2.97728 9.11606 3.23481 8.67013 3.68799L10.0633 5.05888C10.1452 4.97565 10.2529 4.93183 10.3618 4.93183V2.97728ZM31.0018 2.97728H10.3618V4.93183H31.0018V2.97728ZM32.6935 3.68799C32.2475 3.23481 31.6394 2.97728 31.0018 2.97728V4.93183C31.1107 4.93183 31.2184 4.97565 31.3003 5.05888L32.6935 3.68799ZM33.3864 5.3847C33.3864 4.75125 33.1389 4.14064 32.6935 3.68799L31.3003 5.05888C31.3828 5.14264 31.4318 5.25955 31.4318 5.3847H33.3864ZM33.3864 15.3958V5.3847H31.4318V15.3958H33.3864ZM33.3864 16.7402V15.3958H31.4318V16.7402H33.3864ZM32.2473 17.704C34.5577 18.0916 36.3183 20.1026 36.3183 22.5229H38.2728C38.2728 19.1322 35.807 16.3193 32.5708 15.7764L32.2473 17.704ZM36.3183 22.5229C36.3183 24.9432 34.5577 26.9542 32.2473 27.3419L32.5708 29.2694C35.807 28.7265 38.2728 25.9136 38.2728 22.5229H36.3183Z" fill="#CCCCCC"/>
</g>
<path d="M35.3404 18.6156H27.522V26.434H35.3404V18.6156Z" fill="white"/>
<path d="M26.4316 28.3883C26.6284 27.704 26.814 27.049 27.0078 26.3963C27.0381 26.2945 27.0212 26.2282 26.9541 26.1491C25.9713 24.9945 25.5114 23.6598 25.5729 22.1587C25.6819 19.5068 27.683 17.2478 30.3378 16.7613C33.5143 16.1791 36.5349 18.188 37.1815 21.3133C37.7186 23.9105 36.3356 26.8337 33.8745 27.9C32.1725 28.6374 30.4534 28.3747 28.7782 27.5788C28.7158 27.5493 28.617 27.5549 28.5496 27.5804C27.8842 27.8307 27.2221 28.0891 26.5588 28.3449C26.5259 28.3575 26.4919 28.3677 26.4316 28.3883ZM29.6053 19.3108C29.316 19.2786 29.1044 19.3998 28.8876 19.5975C28.8304 19.6497 28.7757 19.7051 28.7239 19.7623C28.4898 20.0219 28.342 20.3202 28.3876 20.6726C28.4367 21.0518 28.477 21.439 28.5898 21.8023C28.9007 22.8049 29.5282 23.6103 30.3134 24.2998C31.0346 24.9328 31.8245 25.4617 32.7757 25.7C33.0803 25.7764 33.4002 25.812 33.7152 25.8258C34.1855 25.8464 34.842 25.4303 35.0088 24.9988C35.0176 24.9758 35.0424 24.8232 35.0408 24.7987C35.0273 24.5942 35.0051 24.4671 34.9835 24.2635C34.9792 24.2226 34.9438 24.1639 34.908 24.1501C34.3811 23.9452 33.8524 23.7456 33.3231 23.5476C33.1906 23.498 33.0716 23.5205 32.965 23.622C32.7969 23.7822 32.6173 23.9311 32.451 24.0935C32.3697 24.1725 32.2969 24.19 32.2054 24.1236C31.9629 23.9474 31.7126 23.7801 31.4798 23.5924C30.9605 23.1742 30.5265 22.6794 30.1543 22.1298C30.0634 21.9957 30.0606 21.9025 30.1924 21.7894C30.3328 21.6688 30.4393 21.5107 30.5768 21.3864C30.7518 21.228 30.753 21.0617 30.6681 20.8603C30.5068 20.4777 30.3562 20.0905 30.2072 19.7033C30.0744 19.3966 30.0663 19.329 29.6053 19.3108Z" fill="#FFCC05"/>
</g>
<defs>
<clipPath id="clip0_30_237">
<rect width="32.25" height="43" fill="white" transform="translate(7 2)"/>
</clipPath>
</defs>
</svg>
