<svg width="40" height="40" xmlns="http://www.w3.org/2000/svg"><g fill="none" fill-rule="evenodd"><path d="M12.014 10a8.5 8.5 0 1 1 16.971 0H35v25a3 3 0 0 1-3 3H9a3 3 0 0 1-3-3V10h6.014zm2.435 0H26.55a6.071 6.071 0 1 0-12.102 0z" fill="#FED01A"/><circle fill="#FFF" cx="14.5" cy="13.5" r="1.5"/><circle fill="#FFF" cx="27.5" cy="13.5" r="1.5"/><path fill="#FEC31A" d="M19 30.531l1.163 8.995 2.108-6.384L39.358 14z"/><path fill="#FCD741" d="M20 39.526l1.947-7.265L39.195 14z"/><path fill="#F9E377" d="M8 26.619l11.186 4.27L39.498 14z"/><path fill="#F9E377" d="M22 32.261L39.249 14l-2.704 24.098z"/></g></svg>