<svg width="47" height="46" xmlns="http://www.w3.org/2000/svg"><g fill="none" fill-rule="evenodd"><path d="M24 43C12.954 43 4 34.046 4 23S12.954 3 24 3s20 8.954 20 20-8.954 20-20 20" fill="#CCC"/><path d="M39.443 23c0 8.529-6.914 15.443-15.443 15.443S8.557 31.529 8.557 23 15.471 7.557 24 7.557 39.443 14.471 39.443 23" fill="#FAFAFA"/><path d="M24 7.557c8.529 0 15.443 6.914 15.443 15.443S32.529 38.443 24 38.443V7.557z" fill="#A3A3A3" opacity=".2"/><path d="M20.576 19.52a1.5 1.5 0 1 0-2.12 2.12l4.405 4.407a1.5 1.5 0 0 0 2.121 0l8.034-8.03a1.501 1.501 0 0 0-2.12-2.122l-6.974 6.97-3.346-3.346zM24 12c-.26 0-.52-.11-.71-.29-.18-.19-.29-.45-.29-.71 0-.26.11-.52.29-.71.38-.37 1.04-.37 1.42 0 .18.19.29.45.29.71 0 .26-.11.52-.29.71-.19.18-.45.29-.71.29m0 25c-.26 0-.52-.11-.71-.29-.18-.19-.29-.44-.29-.71 0-.271.11-.521.29-.71.37-.37 1.05-.37 1.42 0 .18.189.29.45.29.71 0 .26-.11.52-.29.71-.19.18-.44.29-.71.29M12 24c-.26 0-.52-.11-.71-.29-.18-.19-.29-.45-.29-.71 0-.26.11-.52.29-.71.38-.37 1.04-.37 1.42 0 .18.19.29.45.29.71 0 .26-.11.52-.29.71-.19.18-.45.29-.71.29m24 0c-.26 0-.521-.11-.71-.29-.181-.19-.29-.44-.29-.71 0-.26.109-.52.29-.71.37-.37 1.05-.37 1.42 0 .18.19.29.45.29.71 0 .27-.11.52-.29.71-.19.18-.45.29-.71.29" fill="#CCC"/></g></svg>