<svg width="25" height="26" xmlns="http://www.w3.org/2000/svg"><g fill="none" fill-rule="evenodd"><path fill="#FFEEA9" d="M2.198 25.641h22.711V2.262H2.198z"/><path fill="#FDE98B" d="M2.198 25.641h22.71L2.199 2.262z"/><path fill="#301F00" d="M13.187 12.066l-2.198 2.263-1.338-1.673L5.86 18.1h12.454zM5.191 9.054c0 .835.642 1.512 1.434 1.512.791 0 1.433-.677 1.433-1.512 0-.836-.642-1.512-1.433-1.512-.792 0-1.434.676-1.434 1.512z"/><path d="M0 5.279h.733V3.771H0v1.508zm0 3.017h.733V6.787H0v1.509zm0 3.016h.733V9.804H0v1.508zm0 3.017h.733V12.82H0v1.508zm0 3.016h.733v-1.508H0v1.508zm0 3.017h.733v-1.508H0v1.508zM21.245.754h1.466v1.508h.732V0h-2.198v.754zm-2.93 0h1.465V0h-1.465v.754zm-2.93 0h1.465V0h-1.465v.754zm-2.93 0h1.464V0h-1.465v.754zm-2.931 0h1.465V0H9.524v.754zm-2.93 0h1.465V0H6.593v.754zm-2.931 0h1.465V0H3.663v.754zm-2.93 0h1.465V0H0v2.262h.733V.754zm0 22.625V21.87H0v2.263h2.198v-.754H.733zM21.978 18.1l-6.02-9.678-3.504 4.399 5.128 5.279z" fill="#44300B"/></g></svg>