<svg width="47" height="46" viewBox="0 0 47 46" fill="none" xmlns="http://www.w3.org/2000/svg">
<path d="M34 3H12C11.4477 3 11 3.44772 11 4V42C11 42.5523 11.4477 43 12 43H34C34.5523 43 35 42.5523 35 42V4C35 3.44772 34.5523 3 34 3Z" fill="#FED940"/>
<path fill-rule="evenodd" clip-rule="evenodd" d="M13 8H33V35H13V8Z" fill="white"/>
<path fill-rule="evenodd" clip-rule="evenodd" d="M33 8V35H13L33 8Z" fill="#FFF0B3"/>
<path fill-rule="evenodd" clip-rule="evenodd" d="M19 6H27V5H19V6Z" fill="#FFF0B3"/>
<path d="M23.5 42C24.8807 42 26 40.8807 26 39.5C26 38.1193 24.8807 37 23.5 37C22.1193 37 21 38.1193 21 39.5C21 40.8807 22.1193 42 23.5 42Z" fill="#FFF0B3"/>
<path d="M38.0002 18H30V26.0002H38.0002V18Z" fill="white"/>
<path d="M28.8843 28C29.0857 27.2998 29.2756 26.6295 29.4739 25.9617C29.5049 25.8575 29.4876 25.7896 29.4189 25.7087C28.4133 24.5273 27.9427 23.1615 28.0056 21.6255C28.1172 18.9119 30.1648 16.6004 32.8813 16.1026C36.1317 15.5069 39.2226 17.5625 39.8842 20.7604C40.4338 23.418 39.0186 26.4092 36.5003 27.5003C34.7587 28.2549 32.9996 27.9861 31.2855 27.1717C31.2216 27.1415 31.1205 27.1472 31.0515 27.1733C30.3707 27.4294 29.6932 27.6938 29.0144 27.9556C28.9808 27.9685 28.946 27.9789 28.8843 28ZM32.1318 18.7114C31.8358 18.6784 31.6193 18.8024 31.3974 19.0047C31.3389 19.0582 31.2829 19.1149 31.2299 19.1734C30.9904 19.439 30.8391 19.7443 30.8858 20.1049C30.936 20.4929 30.9773 20.8891 31.0927 21.2608C31.4108 22.2867 32.0529 23.1109 32.8564 23.8164C33.5943 24.4641 34.4026 25.0053 35.3759 25.2492C35.6876 25.3273 36.015 25.3638 36.3373 25.3779C36.8185 25.399 37.4903 24.9732 37.661 24.5317C37.67 24.5081 37.6953 24.352 37.6937 24.3269C37.6799 24.1176 37.6572 23.9876 37.6351 23.7793C37.6307 23.7374 37.5945 23.6773 37.5578 23.6632C37.0187 23.4536 36.4777 23.2493 35.9361 23.0467C35.8005 22.996 35.6787 23.019 35.5696 23.1228C35.3976 23.2868 35.2138 23.4391 35.0437 23.6053C34.9605 23.6861 34.886 23.7041 34.7924 23.6361C34.5442 23.4558 34.2881 23.2846 34.0499 23.0926C33.5185 22.6646 33.0744 22.1583 32.6936 21.5959C32.6006 21.4587 32.5977 21.3634 32.7326 21.2476C32.8762 21.1242 32.9852 20.9624 33.1259 20.8353C33.305 20.6732 33.3062 20.503 33.2193 20.2969C33.0543 19.9054 32.9002 19.5092 32.7477 19.113C32.6118 18.7992 32.6035 18.73 32.1318 18.7114Z" fill="#FFCC05"/>
</svg>
