<svg width="47" height="46" xmlns="http://www.w3.org/2000/svg"><g fill="none" fill-rule="evenodd"><path stroke="#EAEAEA" stroke-width="2" d="M27.039 23.708l-1.424 1.916 13.008 4.514L5.999 43.49l.015-26.205 13.103 5 .368 3.545 1.15-1.252-.546-3.97-12.803-4.97L42.372 1.445l-2.975 27.056-12.358-4.793z"/><path stroke="#CCC" d="M26.865 23.104l-2.057 2.769 12.4 4.304L6.5 42.745l.014-24.735 12.138 4.633.45 4.343 2.018-2.198.051.02-.626-4.56-11.902-4.62 33.14-13.405-2.812 25.576-12.106-4.695z"/><path fill="#FEC31A" d="M21 19.531l1.163 8.995 2.108-6.384L41.358 3z"/><path fill="#FCD741" d="M22 28.526l1.947-7.265L41.195 3z"/><path fill="#F9E377" d="M10 15.619l11.186 4.27L41.498 3z"/><path fill="#F9E377" d="M24 21.261L41.249 3l-2.704 24.098zM7 18.736l11.186 4.27L7 42z"/><path fill="#F9E377" d="M21.25 25.379L6.717 42l29.076-11.785z"/><path fill="#FEC31A" d="M18.15 23.031l.57 5.445L7.012 42z"/></g></svg>