<svg width="33" height="44" viewBox="0 0 33 44" fill="none" xmlns="http://www.w3.org/2000/svg">
<path d="M27 41V26V13V3C27 2.46957 26.7893 1.96086 26.4142 1.58579C26.0391 1.21071 25.5304 1 25 1H3C2.46957 1 1.96086 1.21071 1.58579 1.58579C1.21071 1.96086 1 2.46957 1 3V41C1 41.5304 1.21071 42.0391 1.58579 42.4142C1.96086 42.7893 2.46957 43 3 43H25C25.5304 43 26.0391 42.7893 26.4142 42.4142C26.7893 42.0391 27 41.5304 27 41Z" stroke="#EAEAEA" stroke-width="2"/>
<circle cx="25" cy="20.9993" r="7.00023" fill="#EAEAEA" stroke="#EAEAEA" stroke-width="2"/>
<path d="M25 2H3C2.44772 2 2 2.44772 2 3V41C2 41.5523 2.44772 42 3 42H25C25.5523 42 26 41.5523 26 41V3C26 2.44772 25.5523 2 25 2Z" fill="#FED940"/>
<path fill-rule="evenodd" clip-rule="evenodd" d="M4 7H23.9995V33.9994H4V7Z" fill="white"/>
<path fill-rule="evenodd" clip-rule="evenodd" d="M23.9995 7V33.9994H4L23.9995 7Z" fill="#FFF0B3"/>
<path fill-rule="evenodd" clip-rule="evenodd" d="M9.99976 5.00101H18V4.00098H9.99976V5.00101Z" fill="#FFF0B3"/>
<path d="M14.4998 40.9992C15.8806 40.9992 16.9999 39.8798 16.9999 38.4991C16.9999 37.1183 15.8806 35.999 14.4998 35.999C13.1191 35.999 11.9998 37.1183 11.9998 38.4991C11.9998 39.8798 13.1191 40.9992 14.4998 40.9992Z" fill="#FFF0B3"/>
<mask id="path-8-outside-1_1_87" maskUnits="userSpaceOnUse" x="1" y="1" width="32" height="42" fill="black">
<rect fill="white" x="1" y="1" width="32" height="42"/>
<path fill-rule="evenodd" clip-rule="evenodd" d="M26 26.9174V40.5366C26 40.9247 25.8483 41.2969 25.5782 41.5714C25.3082 41.8458 24.9419 42 24.56 42H3.44C3.05809 42 2.69182 41.8458 2.42177 41.5714C2.15171 41.2969 2 40.9247 2 40.5366V3.46341C2 3.07529 2.15171 2.70307 2.42177 2.42862C2.69182 2.15418 3.05809 2 3.44 2H24.56C24.9419 2 25.3082 2.15418 25.5782 2.42862C25.8483 2.70307 26 3.07529 26 3.46341V13.7073V15.083C28.8378 15.5591 31.0001 18.0271 31.0001 21.0002C31.0001 23.9732 28.8378 26.4413 26 26.9174Z"/>
</mask>
<path d="M26 26.9174L25.8345 25.9312L25 26.0712V26.9174H26ZM2.42177 2.42862L1.70898 1.72724L1.70898 1.72724L2.42177 2.42862ZM25.5782 2.42862L26.291 1.72724L26.291 1.72724L25.5782 2.42862ZM26 15.083H25V15.9292L25.8345 16.0692L26 15.083ZM27 40.5366V26.9174H25V40.5366H27ZM26.291 42.2728C26.7468 41.8096 27 41.1848 27 40.5366H25C25 40.6646 24.9498 40.7843 24.8654 40.87L26.291 42.2728ZM24.56 43C25.2124 43 25.8347 42.7365 26.291 42.2728L24.8654 40.87C24.7816 40.9552 24.6714 41 24.56 41V43ZM3.44 43H24.56V41H3.44V43ZM1.70898 42.2728C2.16528 42.7365 2.78762 43 3.44 43V41C3.32855 41 3.21835 40.9552 3.13455 40.87L1.70898 42.2728ZM1 40.5366C1 41.1848 1.25322 41.8096 1.70898 42.2728L3.13455 40.87C3.05021 40.7843 3 40.6646 3 40.5366H1ZM1 3.46341V40.5366H3V3.46341H1ZM1.70898 1.72724C1.25322 2.19042 1 2.81523 1 3.46341H3C3 3.33535 3.05021 3.21572 3.13455 3.13001L1.70898 1.72724ZM3.44 1C2.78762 1 2.16528 1.26352 1.70898 1.72724L3.13455 3.13001C3.21836 3.04484 3.32856 3 3.44 3V1ZM24.56 1H3.44V3H24.56V1ZM26.291 1.72724C25.8347 1.26352 25.2124 1 24.56 1V3C24.6714 3 24.7816 3.04484 24.8654 3.13001L26.291 1.72724ZM27 3.46341C27 2.81523 26.7468 2.19042 26.291 1.72724L24.8654 3.13001C24.9498 3.21572 25 3.33535 25 3.46341H27ZM27 13.7073V3.46341H25V13.7073H27ZM27 15.083V13.7073H25V15.083H27ZM25.8345 16.0692C28.1986 16.4658 30.0001 18.5236 30.0001 21.0002H32.0001C32.0001 17.5306 29.4769 14.6523 26.1655 14.0968L25.8345 16.0692ZM30.0001 21.0002C30.0001 23.4768 28.1986 25.5345 25.8345 25.9312L26.1655 27.9036C29.4769 27.348 32.0001 24.4697 32.0001 21.0002H30.0001Z" fill="#CCCCCC" mask="url(#path-8-outside-1_1_87)"/>
<rect x="20.9993" y="17.002" width="8.00023" height="8.00023" fill="white"/>
<path d="M19.8835 27.002C20.0849 26.3018 20.2748 25.6315 20.4731 24.9637C20.5041 24.8595 20.4868 24.7916 20.4181 24.7107C19.4125 23.5293 18.9419 22.1635 19.0048 20.6275C19.1164 17.9139 21.164 15.6024 23.8805 15.1046C27.1309 14.5089 30.2218 16.5645 30.8834 19.7624C31.433 22.42 30.0178 25.4112 27.4995 26.5023C25.7579 27.2569 23.9988 26.9881 22.2847 26.1737C22.2208 26.1435 22.1197 26.1492 22.0507 26.1753C21.3699 26.4314 20.6924 26.6958 20.0136 26.9576C19.98 26.9705 19.9452 26.9809 19.8835 27.002ZM23.131 17.7134C22.835 17.6804 22.6185 17.8044 22.3966 18.0067C22.3381 18.0602 22.2821 18.1169 22.2291 18.1754C21.9896 18.441 21.8383 18.7463 21.885 19.1069C21.9352 19.4949 21.9765 19.8911 22.0919 20.2628C22.41 21.2887 23.0521 22.1129 23.8556 22.8184C24.5935 23.4661 25.4018 24.0073 26.3751 24.2512C26.6868 24.3293 27.0142 24.3658 27.3365 24.3799C27.8177 24.401 28.4895 23.9752 28.6602 23.5337C28.6692 23.5101 28.6945 23.354 28.6929 23.3289C28.6791 23.1196 28.6564 22.9896 28.6343 22.7813C28.6299 22.7394 28.5937 22.6793 28.557 22.6652C28.0179 22.4556 27.4769 22.2513 26.9353 22.0487C26.7997 21.998 26.6779 22.021 26.5688 22.1248C26.3968 22.2888 26.213 22.4411 26.0429 22.6073C25.9597 22.6881 25.8852 22.7061 25.7916 22.6381C25.5434 22.4578 25.2873 22.2866 25.0491 22.0946C24.5177 21.6666 24.0736 21.1603 23.6928 20.5979C23.5998 20.4607 23.5969 20.3654 23.7318 20.2496C23.8754 20.1262 23.9844 19.9644 24.1251 19.8373C24.3042 19.6752 24.3054 19.505 24.2185 19.2989C24.0535 18.9074 23.8994 18.5112 23.7469 18.115C23.611 17.8012 23.6027 17.732 23.131 17.7134Z" fill="#FFCC05"/>
</svg>
