<svg width="47" height="46" xmlns="http://www.w3.org/2000/svg"><g fill="none" fill-rule="evenodd"><path stroke="#EAEAEA" stroke-width="2" d="M8.714 12.906V5.428h9.187a204.05 204.05 0 0 1 2.562-2.017c2.165-1.885 4.498-1.885 6.584-.027l2.559 2.044h10.823v8.474L45 17.435v21.862l-.006.114c-.337 2.938-1.872 4.588-4.438 4.59h-9.71c-9.313 0-9.313 0-23.149-.003C4.68 43.807 3 42.153 3 39.298V17.442l5.714-4.537z"/><path stroke="#CCC" d="M9.214 13.147V5.928h8.863a206.91 206.91 0 0 1 2.715-2.14c1.975-1.72 4.026-1.72 5.943-.014l2.696 2.154h10.498v8.22L44.5 17.68v.246l-.003 21.428c-.31 2.703-1.651 4.146-3.941 4.146H7.729C4.967 43.323 3.5 41.88 3.5 39.296V17.684l5.714-4.537z"/><path d="M44 17.926L26.423 4.165c-2.126-1.553-3.212-1.553-5.303 0L4 17.926l19.771 17.073L44 17.926z" fill="#FFCC05"/><path fill="#FFFBE8" d="M9.714 31.571H39.43V6.428H9.714z"/><path d="M23.989 32.749L44 17.926v21.371C44 41.343 42.32 43 40.24 43H7.76C5.68 43 4 41.343 4 39.297V17.926l19.99 14.823z" fill="#FED940"/><path d="M40.823 43a3.781 3.781 0 0 0 2.114-.936L23.99 27.183 5.325 42.063A3.858 3.858 0 0 0 7.452 43h33.371z" fill="#FDE577"/></g></svg>