<svg width="47" height="46" xmlns="http://www.w3.org/2000/svg"><g transform="translate(4 3)" fill="none" fill-rule="evenodd"><path d="M37.677 0H1.82C.814 0 0 .833 0 1.861V37.43c0 1.199.95 2.17 2.121 2.17H30.43L40 29.81V2.376C40 1.064 38.96 0 37.677 0" fill="#FDE577"/><path fill="#FEF1B8" d="M30.421 29.808h9.568l-9.568 9.79z"/><path fill="#FED940" d="M30.421 29.808l-9.54 9.79h9.54z"/><circle fill="#FFF" cx="21" cy="19" r="8"/><path stroke="#FED940" stroke-width="2" stroke-linecap="round" stroke-linejoin="round" d="M17.808 19.114l2.294 2.337 5.263-5.007"/><path d="M37.668 0H1.818C1.35 0 .922.182.599.482c-.367.34 29.824 29.327 29.824 29.327h9.568V2.376C39.99 1.064 38.95 0 37.668 0" fill-opacity=".4" fill="#FED940"/></g></svg>