<svg width="41" height="47" xmlns="http://www.w3.org/2000/svg" viewBox="0 0 41.3 49.7" enable-background="new 0 0 41.3 49.7"><style>.st4{fill:#fcd742}.st5{fill:#f8e378}</style><switch><g><g id="Layer_2"><path id="XMLID_5_" d="M38.6 32.4l-.9-.7c-2.1-1.7-3.3-4.3-3.3-7v-5c0-6.5-4.6-11.8-10.8-12.9.8-.8 1.1-1.9.9-3-.4-1.9-2.2-3.1-4.1-2.7-1.9.4-3.1 2.2-2.7 4 .1.7.5 1.3.9 1.7C12.5 8.1 8 13.4 8 19.7v4.9c0 2.7-1.3 5.3-3.4 7.1l-.9.7c-1.1.9-1.8 2.2-1.8 3.7 0 2.6 2.1 4.6 4.7 4.6H16c-.1.4-.2.9-.2 1.4 0 3.2 2.6 5.9 5.9 5.9 3.2 0 5.9-2.6 5.9-5.9 0-.5-.1-.9-.2-1.4h8.3c.3 0 .6 0 .9-.1 2.1-.4 3.8-2.3 3.8-4.6-.1-1.4-.7-2.7-1.8-3.6z" fill="#e9e9e9" stroke="#e9e9e9" stroke-width="2"/></g><g id="Layer_1"><path id="XMLID_31_" d="M40.4 36c0 2.3-1.6 4.2-3.8 4.6-.3.1-.6.1-1 .1h-8.4c.1.4.2.9.2 1.4 0 3.2-2.6 5.9-5.9 5.9s-5.9-2.6-5.9-5.9c0-.5.1-.9.2-1.4H6.5c-2.6 0-4.7-2.1-4.7-4.7 0-1.4.7-2.8 1.8-3.7l.9-.7c2.2-1.7 3.4-4.3 3.4-7.1v-4.9c0-6.3 4.6-11.6 10.7-12.8-.5-.5-.8-1-.9-1.7-.4-1.9.8-3.7 2.7-4 1.9-.4 3.7.8 4.1 2.7.2 1.1-.1 2.3-.9 3 6.2 1 10.8 6.4 10.8 12.9v5c0 1.3.3 2.7.9 3.8.6 1.2 1.4 2.3 2.5 3.1l.9.8c1.1.9 1.7 2.2 1.7 3.6z" fill="#cbcbcb" stroke="#cbcbcb"/></g><g id="Layer_3"><g id="XMLID_1_"><defs><filter id="Adobe_OpacityMaskFilter" filterUnits="userSpaceOnUse" x="15.7" y="36.2" width="11.7" height="11.7"><feColorMatrix values="1 0 0 0 0 0 1 0 0 0 0 0 1 0 0 0 0 0 1 0"/></filter></defs><mask maskUnits="userSpaceOnUse" x="15.7" y="36.2" width="11.7" height="11.7" id="a_3_"><path id="XMLID_20_" d="M15.7 36.2h11.7v11.7H15.7V36.2z" fill="#fff" filter="url(#Adobe_OpacityMaskFilter)"/></mask><g id="XMLID_21_" mask="url(#a_3_)"><path id="XMLID_22_" class="st4" d="M27.5 42.1c0-3.2-2.6-5.9-5.9-5.9-3.2 0-5.9 2.6-5.9 5.9 0 3.2 2.6 5.9 5.9 5.9 3.2-.1 5.9-2.7 5.9-5.9z"/></g><path id="XMLID_18_" class="st5" d="M17.7 5.2c-.4-1.9.8-3.7 2.7-4 1.9-.4 3.7.8 4.1 2.7.4 1.9-.8 3.7-2.7 4-1.9.4-3.8-.8-4.1-2.7z"/><defs><filter id="Adobe_OpacityMaskFilter_1_" filterUnits="userSpaceOnUse" x="1.8" y="6.7" width="38.5" height="34"><feColorMatrix values="1 0 0 0 0 0 1 0 0 0 0 0 1 0 0 0 0 0 1 0"/></filter></defs><mask maskUnits="userSpaceOnUse" x="1.8" y="6.7" width="38.5" height="34" id="c_3_"><path id="XMLID_13_" d="M1.8 6.7h38.5v34H1.8v-34z" fill="#fff" filter="url(#Adobe_OpacityMaskFilter_1_)"/></mask><g id="XMLID_16_" mask="url(#c_3_)"><path id="XMLID_17_" class="st5" d="M35.6 40.7H6.5c-2.6 0-4.7-2.1-4.7-4.6 0-1.4.7-2.8 1.8-3.7l.9-.7C6.7 30 8 27.4 8 24.6v-4.9c0-7.2 5.9-13 13.2-13 7.3 0 13.2 5.8 13.2 13v5c0 2.7 1.2 5.2 3.3 7l.9.7c1.1.9 1.7 2.2 1.7 3.6 0 2.6-2.1 4.7-4.7 4.7z"/></g><defs><filter id="Adobe_OpacityMaskFilter_2_" filterUnits="userSpaceOnUse" x="21.4" y="6.7" width="18.9" height="34"><feColorMatrix values="1 0 0 0 0 0 1 0 0 0 0 0 1 0 0 0 0 0 1 0"/></filter></defs><mask maskUnits="userSpaceOnUse" x="21.4" y="6.7" width="18.9" height="34" id="d_3_"><path id="XMLID_4_" d="M21.2 6.7h19.2v34H21.2v-34z" fill="#fff" filter="url(#Adobe_OpacityMaskFilter_2_)"/></mask><g id="XMLID_7_" mask="url(#d_3_)"><path id="XMLID_8_" class="st4" d="M37.7 31.7c-2.1-1.7-3.3-4.3-3.3-7v-5c0-7.2-5.7-13-13-13 .5 2.6 6.1 31.3 6.8 34h7.5c2.6 0 4.7-2.1 4.7-4.6 0-1.4-.6-2.7-1.7-3.6l-1-.8z"/></g></g></g></g></switch></svg>