<svg width="25" height="25" xmlns="http://www.w3.org/2000/svg"><g fill="none" fill-rule="evenodd"><path fill="#FDE98B" d="M0 24.39h24.39V0H0z"/><path fill="#FFEEA9" d="M0 0l24.39 24.39V0z"/><path fill="#FFFAE9" d="M19.512 0v4.743h4.878z"/><path fill="#FDD83F" d="M19.512 4.743h4.878v4.742z"/><path d="M19.789 19.788v-4.035c0-.562-.469-1.017-1.046-1.017-.577 0-1.045.455-1.045 1.017v1.945l2.09 2.09zm-5.243-5.242l1.858-1.806a.996.996 0 0 0 0-1.437 1.066 1.066 0 0 0-1.478 0l-1.686 1.639v-6.1c0-.562-.468-1.017-1.045-1.017-.578 0-1.045.455-1.045 1.017v4.308l3.396 3.396z" fill="#4F380D"/><path d="M11.15 11.15v1.792l-1.685-1.639a1.067 1.067 0 0 0-1.479 0 .997.997 0 0 0 0 1.437l3.47 3.373c.204.199.472.298.74.298.267 0 .534-.1.738-.298l1.612-1.567-3.396-3.396z" fill="#301F00"/><path d="M17.698 17.698v1.414H6.272v-3.36c0-.56-.468-1.016-1.045-1.016-.578 0-1.045.455-1.045 1.016v4.376c0 .561.467 1.016 1.045 1.016h13.516c.577 0 1.046-.455 1.046-1.016v-.34l-2.091-2.09z" fill="#301F00"/></g></svg>