<svg width="80" height="70" xmlns="http://www.w3.org/2000/svg"><g fill="none" fill-rule="evenodd"><path fill="#FEEDA8" d="M0 70h65V18H0z"/><path d="M65 18.157V9.104c0-2.18-1.69-3.947-3.774-3.947H2.956C1.323 5.157 0 6.54 0 8.249v9.908h65z" fill="#2A2412"/><path fill="#C6AF60" d="M8.316 42.16h47.816V31.865H8.316z"/><path fill="#FEEEA8" d="M10 40.102h44.053v-6.177H10z"/><path fill="#2F2515" d="M8.316 30H37v-2H8.316z"/><path fill="#70C499" d="M8 58h48V48H8z"/><path fill="#2F2515" opacity=".2" d="M65 70V18H0z"/><path fill="#F2F1EE" d="M29 54.058h2.079V52H29z"/><path fill="#F2F1EE" d="M31 56.058h2.079V54H31z"/><path fill="#F2F1EE" d="M33 54.058h2.079V52H33z"/><path fill="#F2F1EE" d="M35 52.058h2.079V50H35z"/><path fill="#FEC319" d="M48.59 25.104l1.787 13.617 3.243-9.665L79.898.078z"/><path fill="#FCD741" d="M50.377 38.721l2.994-10.997L79.898.078z"/><path fill="#FAE377" d="M31.457 19.181l17.203 6.464L79.898.078zm21.913 8.543L79.899.078 75.74 36.559z"/><path d="M16.632 11.354a2.433 2.433 0 1 1 4.865 0 2.433 2.433 0 0 1-4.865 0m-6.591 0a2.433 2.433 0 1 1 4.866 0 2.433 2.433 0 0 1-4.866 0m-6.237 0a2.433 2.433 0 1 1 4.866 0 2.433 2.433 0 0 1-4.866 0" fill="#FEEEA8"/></g></svg>