<svg width="80" height="70" xmlns="http://www.w3.org/2000/svg"><g fill="none" fill-rule="evenodd"><path d="M55.71 70H23.29c-3.353 0-6.08-2.691-6.08-6V26.77l-9.49 3.125a2.033 2.033 0 0 1-2.564-1.261l-4.053-12a1.988 1.988 0 0 1 1.021-2.42l24.317-12a2.034 2.034 0 0 1 1.97.086c.594.363.959 1.008.959 1.699 0 5.513 4.546 10 10.131 10 5.584 0 10.132-4.487 10.132-10a2 2 0 0 1 .958-1.7 2.034 2.034 0 0 1 1.97-.085l24.317 12a1.994 1.994 0 0 1 1.02 2.42l-4.052 12a2.031 2.031 0 0 1-2.564 1.261l-9.49-3.124v37.228C61.79 67.31 59.063 70 55.71 70z" fill="#79D3A5"/><path d="M55.71 70S41 36 16.79 6.977l9.65-4.763a2.034 2.034 0 0 1 1.972.086c.593.363.958 1.008.958 1.699 0 5.513 4.546 10 10.131 10 5.584 0 10.132-4.487 10.132-10a2 2 0 0 1 .958-1.7 2.034 2.034 0 0 1 1.97-.085l24.317 12a1.994 1.994 0 0 1 1.02 2.42l-4.052 12a2.031 2.031 0 0 1-2.564 1.261l-9.49-3.124v37.228C61.79 67.31 59.063 70 55.71 70z" fill="#65C192"/><path fill="#FEEDA8" d="M39 47.011l-7.053 1.697-.566-7.232-3.794-6.184 6.704-2.773L39 27l4.709 5.519 6.704 2.773-3.794 6.184-.566 7.232z"/><path d="M17.21 59h44.582v5c-.002 3.309-2.729 6-6.081 6H23.289c-3.352 0-6.079-2.691-6.079-6v-5z" fill="#65C192"/><path fill="#FEC31A" d="M48.59 25.104l1.787 13.617 3.243-9.665L79.898.078z"/><path fill="#FCD741" d="M50.377 38.721l2.994-10.997L79.898.078z"/><path fill="#FDE577" d="M31.457 19.181l17.203 6.464L79.898.078zm21.913 8.543L79.899.078 75.74 36.559z"/></g></svg>