<svg width="46" height="40" xmlns="http://www.w3.org/2000/svg"><g fill="none" fill-rule="evenodd"><path fill="#65C192" d="M1.536 33.5H35.84V2.857H1.536z"/><path fill="#79D3A5" d="M0 33.5h37.375V10.285H0z"/><path d="M37.375 38.607A1.398 1.398 0 0 1 35.973 40H1.401A1.398 1.398 0 0 1 0 38.607V33.5h37.375v5.107z" fill="#65C192"/><path fill="#2A2513" d="M0 10.286h4.506V5.808z"/><path fill="#79D3A5" d="M1.536 8.76l2.97-2.952-2.97-2.95z"/><path fill="#2A2513" d="M37.375 10.286H32.87V5.808z"/><path fill="#79D3A5" d="M35.839 8.76l-2.97-2.952 2.97-2.95z"/><path d="M10.745 14.532c0 .77-.628 1.393-1.401 1.393a1.398 1.398 0 0 1-1.402-1.393c0-.77.628-1.393 1.402-1.393.773 0 1.401.624 1.401 1.393" fill="#2A2513"/><path d="M18.688 29.245c-2.674 0-5.18-1.251-7.059-3.524-1.85-2.24-2.87-5.21-2.87-8.363v-2.826c0-.32.262-.58.585-.58.323 0 .584.26.584.58v2.826c0 2.886.924 5.594 2.603 7.626 1.653 2 3.84 3.1 6.156 3.1 2.318 0 4.504-1.1 6.157-3.1 1.679-2.032 2.603-4.74 2.603-7.626v-2.826c0-.32.262-.58.584-.58.323 0 .584.26.584.58v2.826c0 3.153-1.019 6.123-2.87 8.362-1.877 2.274-4.384 3.525-7.058 3.525" fill="#65C192"/><path d="M18.688 26.72a9.898 9.898 0 0 1-7.021-2.89 9.775 9.775 0 0 1-2.907-6.977v-2.32c0-.321.261-.581.584-.581.323 0 .584.26.584.58v2.321a8.62 8.62 0 0 0 2.565 6.156 8.731 8.731 0 0 0 6.194 2.55 8.73 8.73 0 0 0 6.195-2.55 8.623 8.623 0 0 0 2.565-6.156v-2.32c0-.321.262-.581.584-.581.323 0 .584.26.584.58v2.321a9.771 9.771 0 0 1-2.907 6.976 9.893 9.893 0 0 1-7.02 2.89" fill="#FEEDA8"/><path fill="#FEC31A" d="M27.939 14.345l1.028 7.782 1.865-5.523L45.942.044z"/><path fill="#FCD741" d="M28.967 22.127l1.721-6.285L45.941.045z"/><path fill="#FDE577" d="M18.088 10.96l9.891 3.694L45.941.044zm12.6 4.882L45.941.045l-2.39 20.846z"/></g></svg>