<svg width="80" height="70" xmlns="http://www.w3.org/2000/svg"><g fill="none" fill-rule="evenodd"><path d="M0 12.873V7.996C0 6.341 1.323 5 2.956 5h58.27C63.31 5 65 6.713 65 8.825V22H0v-9.127z" fill="#2A2412"/><path d="M0 22v44.563A3.442 3.442 0 0 0 3.447 70H50l15-15V22H0z" fill="#FEEEA8"/><path fill="#2F2515" opacity=".2" d="M0 22l50 33h15V22z"/><path fill="#FFF9E9" d="M50 70l15-15H50z"/><path fill="#B8A475" d="M50 70H35l15-15z"/><path d="M8 14.118a3.118 3.118 0 1 1 6.236 0 3.118 3.118 0 0 1-6.236 0" fill="#FEEEA8"/><path d="M29.11 52.802v-3.898h-5.762c4.002-3.318 5.627-5.809 5.627-8.757 0-3.615-2.517-5.873-6.465-5.873-2.514 0-5.378.848-7.297 2.848l2.567 3.142c1.297-1.29 2.81-2.092 4.81-2.092 1.325 0 2.487.688 2.487 1.975 0 1.919-1.46 3.235-9.27 9.172v3.483H29.11zm10.39-3.925c-3.062 0-4.288-2.083-4.288-5.364 0-3.278 1.226-5.34 4.288-5.34 3.063 0 4.287 2.062 4.287 5.34 0 3.28-1.224 5.364-4.287 5.364m0 3.898c6.146 0 8.185-4.37 8.185-9.262 0-4.89-2.04-9.239-8.185-9.239-6.147 0-8.186 4.35-8.186 9.24 0 4.891 2.039 9.26 8.186 9.26" fill="#2F2111"/><path fill="#FEC319" d="M48.59 25.104l1.787 13.617 3.243-9.665L79.898.078z"/><path fill="#FCD741" d="M50.377 38.721l2.994-10.997L79.898.078z"/><path fill="#FAE377" d="M31.457 19.181l17.203 6.464L79.898.078zm21.913 8.543L79.899.078 75.74 36.559z"/></g></svg>