<svg width="80" height="70" xmlns="http://www.w3.org/2000/svg"><g fill="none" fill-rule="evenodd"><path fill="#FEEDA8" d="M0 65h63.375V14.486H0z"/><path d="M63.375 12.629V3.835c0-2.118-1.648-3.835-3.68-3.835H2.883C1.29 0 0 1.344 0 3.004v9.625h63.375z" fill="#2A2513"/><path fill="#C6AE60" d="M7.8 33.886h46.8V30H7.8zm0 6.8h46.8V36.8H7.8zm0 15.543h21.45V43.6H7.8zm25.35 0H54.6V43.6H33.15z"/><path fill="#70C498" d="M0 22.2h63.375v-9.714H0z"/><path fill="#FFF" d="M58.009 14.793l2.068 2.068-2.06 2.06-2.069-2.068z"/><path fill="#2F2515" opacity=".2" d="M63.375 65V12.629H0z"/><path d="M16 6.363A2.368 2.368 0 0 1 18.372 4a2.368 2.368 0 0 1 2.371 2.363 2.368 2.368 0 0 1-2.371 2.363A2.368 2.368 0 0 1 16 6.363m-6 0A2.368 2.368 0 0 1 12.372 4a2.368 2.368 0 0 1 2.371 2.363 2.368 2.368 0 0 1-2.371 2.363A2.368 2.368 0 0 1 10 6.363m-6 0A2.368 2.368 0 0 1 6.372 4a2.368 2.368 0 0 1 2.371 2.363 2.368 2.368 0 0 1-2.371 2.363A2.368 2.368 0 0 1 4 6.363" fill="#FEEDA8"/></g></svg>