<svg width="80" height="70" xmlns="http://www.w3.org/2000/svg"><g fill="none" fill-rule="evenodd"><path fill="#FEEDA8" d="M0 65h64.188V13H0z"/><path fill="#C6AE60" d="M7.9 32h47.4v-4H7.9zm0-7h47.4v-4H7.9zm0 12h47.4v-2H7.9zm0 4h47.4v-2H7.9zm0 16h21.725V44H7.9zm25.675 0H55.3V44H33.575z"/><path fill="#70C498" d="M33.575 62h26.662V44H33.575z"/><path fill="#FFF" d="M55.807 46.392l2.095 2.095-2.122 2.121-2.094-2.094z"/><path d="M64.188 13.157V4.104c0-2.18-1.67-3.947-3.728-3.947H2.92C1.306.157 0 1.54 0 3.249v9.908h64.188z" fill="#2A2513"/><path fill="#2F2515" opacity=".2" d="M64.188 65V13H0z"/><path d="M16.424 6.354c0-1.343 1.075-2.432 2.402-2.432 1.326 0 2.402 1.089 2.402 2.432s-1.076 2.432-2.402 2.432c-1.327 0-2.402-1.09-2.402-2.432m-6.508 0c0-1.343 1.076-2.432 2.402-2.432S14.72 5.01 14.72 6.354s-1.076 2.432-2.402 2.432-2.402-1.09-2.402-2.432m-6.159 0c0-1.343 1.076-2.432 2.402-2.432S8.56 5.01 8.56 6.354 7.485 8.786 6.159 8.786s-2.402-1.09-2.402-2.432" fill="#FEEDA8"/></g></svg>