<svg xmlns="http://www.w3.org/2000/svg" height="16" width="16"><g fill="none"><path d="M.171 3.378L6.694.058c.281-.143.684-.006.684.233v1.824c2.825.085 4.846.624 6.427 1.684 2.346 1.573 2.193 3.555 2.193 4.062v.669c.002.198-.31.48-.694.027l-.628-.682c-.92-.975-2.02-1.88-3.41-2.289-1.082-.332-2.088-.565-3.888-.605V6.93c0 .24-.403.376-.684.233L.17 3.843c-.228-.116-.228-.348 0-.465z" fill="#65C192"/><path d="M15.005 12.622l-6.183 3.32c-.267.143-.649.006-.649-.233v-1.824C5.495 13.8 3.58 13.26 2.081 12.2-.143 10.628.001 8.646.001 8.14v-.67c0-.198.294-.48.658-.027l.596.682c.872.975 1.916 1.88 3.232 2.289 1.026.332 1.98.565 3.686.605V9.07c0-.24.382-.376.649-.233l6.183 3.32c.216.116.216.348 0 .465z" fill="#FFC20E"/></g></svg>