<svg xmlns="http://www.w3.org/2000/svg" width="160" height="160"><path fill-rule="evenodd" clip-rule="evenodd" fill="#FBE47A" d="M0 80C0 35.82 35.82 0 80 0s80 35.82 80 80-35.82 80-80 80S0 124.18 0 80z"/><circle fill-rule="evenodd" clip-rule="evenodd" fill="#FEFAE9" cx="80" cy="80" r="70"/><path fill="#FDEC9C" d="M113.25 112.25v-46h-68v47-1z"/><path fill="#302512" d="M47.98 55.25c-2.25 0-2.73 1.46-2.73 3.66v7.34h68V58.2c0-2.21-.48-2.95-2.73-2.95h-.189"/><path fill-rule="evenodd" clip-rule="evenodd" fill="#FDEC9C" d="M49.25 59.25h4v4h-4zm6 0h4v4h-4zm6 0h4v4h-4z"/><path fill-rule="evenodd" clip-rule="evenodd" fill="#D3BE61" d="M51.25 71.25h16v15h-16z"/><path fill="#2D2512" d="M80.5 112.25h32.75V77.78z"/><path fill-rule="evenodd" clip-rule="evenodd" fill="#D3BE61" d="M51.25 90.25h56v15h-56zm20-19h16v15h-16zm20 0h16v15h-16z"/><g fill-rule="evenodd" clip-rule="evenodd"><path fill="#FBE47A" d="M91.57 108.34l41.321-40.83-7.041-6.96-41.31 40.841z"/><path fill="#2B2615" d="M130.43 69.93l.84-.83-7.04-6.95-.839.83zm-1.68 1.66l.84-.83-7.029-6.95-.84.83z"/><path fill="#EF9D71" d="M84.2 110.99l7.37-2.65-7.03-6.949-2.68 7.279z"/><path fill="#2B2615" d="M84.2 110.99l-3.29 1.71-.78-.77 1.73-3.26z"/><path fill="#EF9D71" d="M125.85 60.55l3.91-3.86a5.01 5.01 0 0 1 7.03 0 4.86 4.86 0 0 1 0 6.95l-3.899 3.87-7.041-6.96z"/></g><path opacity=".05" fill-rule="evenodd" clip-rule="evenodd" fill="#010101" d="M23.49 136.49c31.48 31.48 82.3 31.71 113.5.5 31.21-31.2 30.98-82.02-.5-113.5l-113 113z"/></svg>