<?xml version="1.0" encoding="UTF-8"?>
<svg width="16px" height="16px" viewBox="0 0 16 16" version="1.1" xmlns="http://www.w3.org/2000/svg" xmlns:xlink="http://www.w3.org/1999/xlink">
    <!-- Generator: Sketch 62 (91390) - https://sketch.com -->
    <title>noun_Key_721099</title>
    <desc>Created with Sketch.</desc>
    <g id="Listado-maestro-y-edicion-del-suscritptor---estetica-vieja" stroke="none" stroke-width="1" fill="none" fill-rule="evenodd">
        <g id="Listado-maestro-de-suscriptores---edit:hover" transform="translate(-1344.000000, -475.000000)" fill="#666666" fill-rule="nonzero">
            <g id="noun_Key_721099" transform="translate(1344.000000, 475.000000)">
                <path d="M14.3563077,1.64369231 C12.353641,-0.359179487 9.10666667,-0.359179487 7.104,1.64369231 C5.73210256,3.01558974 5.30051282,4.97107692 5.808,6.7105641 L0.141538462,12.3772308 L0.431589744,15.5682051 L3.62276923,15.8582564 L4.47692308,15.0043077 L3.91282051,13.537641 L4.34789744,13.1025641 L5.81435897,13.6666667 L9.28882051,10.1922051 C11.0285128,10.6998974 12.9842051,10.2683077 14.3561026,8.89641026 C16.3589744,6.89333333 16.3589744,3.64615385 14.3563077,1.64369231 Z M13.0508718,5.26994872 C12.4098462,5.91097436 11.3710769,5.9105641 10.7302564,5.26994872 C10.0894359,4.62892308 10.0892308,3.59015385 10.7302564,2.94912821 C11.3708718,2.30851282 12.4100513,2.30851282 13.0510769,2.94912821 C13.6916923,3.58994872 13.6914872,4.62933333 13.0508718,5.26994872 Z" id="Shape"></path>
            </g>
        </g>
    </g>
</svg>