<?xml version="1.0" encoding="UTF-8"?>
<svg width="16px" height="16px" viewBox="0 0 16 16" version="1.1" xmlns="http://www.w3.org/2000/svg" xmlns:xlink="http://www.w3.org/1999/xlink">
    <!-- Generator: Sketch 58 (84663) - https://sketch.com -->
    <title>noun_Money_583249</title>
    <desc>Created with Sketch.</desc>
    <g id="dashboard" stroke="none" stroke-width="1" fill="none" fill-rule="evenodd">
        <g id="dashboard-TodosLosPaisesDisponiblesFueronAgregados" transform="translate(-246.000000, -701.000000)" fill="#33AD73" fill-rule="nonzero">
            <g id="Group-2" transform="translate(246.000000, 701.000000)">
                <g id="noun_Money_583249">
                    <path d="M8,15.7661818 C12.3167273,15.7661818 15.8174545,12.2650909 15.8174545,7.94727273 C15.8174545,3.63090909 12.3167273,0.129818182 8,0.129818182 C3.68218182,0.129818182 0.181818182,3.63090909 0.182545341,7.94727273 C0.181818182,12.2650909 3.68218182,15.7661818 8,15.7661818 Z M5.02145455,11.096 L5.51490909,10.2825455 C5.64363636,10.0687273 5.94545455,9.996 6.15890909,10.1305455 C6.61636364,10.4141818 7.11709091,10.6912727 7.76327273,10.6912727 C8.47563636,10.6912727 8.90109091,10.3916364 8.90109091,9.88836364 C8.90109091,9.404 8.53818182,9.07563636 7.60545455,8.72218182 C6.50763636,8.30654545 5.24836364,7.62290909 5.24836364,6.00763636 C5.24836364,4.67272727 6.02690909,3.69454545 7.33418182,3.37709091 L7.33490909,2.46290909 C7.33418182,2.33672727 7.38363636,2.21854545 7.472,2.12981818 C7.56145455,2.04036364 7.67927273,1.99163636 7.80581818,1.99163636 L8.43854545,1.99163636 C8.69854545,1.99163636 8.90945455,2.20254545 8.90945455,2.46290909 L8.90945455,3.268 C9.72545455,3.36654545 10.3661818,3.84981818 10.6807273,4.13527273 C10.8669091,4.30618182 10.8803636,4.61963636 10.7098182,4.81963636 L10.1843636,5.43127273 C10.0287273,5.616 9.744,5.632 9.53927273,5.46872727 C9.29781818,5.27672727 8.90290909,5.04618182 8.39090909,5.04618182 C7.74872727,5.04618182 7.38036364,5.30727273 7.38036364,5.76254545 C7.38036364,6.16327273 7.73963636,6.44436364 8.86036364,6.91781818 C10.3930909,7.528 11.048,8.35781818 11.048,9.68981818 C11.048,11.0847273 10.2065455,12.1250909 8.84618182,12.4207273 L8.84618182,13.4341818 C8.84618182,13.6938182 8.63527273,13.9047273 8.376,13.9047273 L7.74109091,13.9047273 C7.48181818,13.904 7.27163636,13.6930909 7.27163636,13.4341818 L7.27163636,12.5327273 C6.51963636,12.4643636 5.64436364,12.0149091 5.17963636,11.7469091 C5.07272727,11.6836364 4.99672727,11.5818182 4.96654545,11.4596364 C4.93454545,11.3367273 4.956,11.2050909 5.02145455,11.096 Z" id="Shape"></path>
                </g>
            </g>
        </g>
    </g>
</svg>