<svg width="22" height="18" viewBox="0 0 22 18" fill="none" xmlns="http://www.w3.org/2000/svg">
<path d="M12.8333 0.997803H1.16667C0.526667 0.997803 0 1.52447 0 2.16447V13.8311C0 14.4711 0.526667 14.9978 1.16667 14.9978H11.3905L7.98775 12.3023C7.73432 12.1015 7.73518 11.7167 7.98952 11.517L14.0362 6.77124L14 2.16447C14 1.52447 13.4733 0.997803 12.8333 0.997803ZM10 5.99011C10 6.54239 9.55228 6.99011 9 6.99011H5C4.44772 6.99011 4 6.54239 4 5.99011V1.9978H10V5.99011Z" fill="#666666"/>
<path fill-rule="evenodd" clip-rule="evenodd" d="M9.21587 11.6458L14.1079 7.8155C14.3191 7.64975 14.6208 7.80725 14.6208 8.08325V10.1885C16.74 10.286 18.2558 10.9085 19.4411 12.131C21.2011 13.946 21.0861 16.2335 21.0861 16.8185V17.5895C21.0875 17.819 20.8541 18.143 20.566 17.621L20.0948 16.8343C19.4051 15.7093 18.579 14.666 17.5374 14.1935C16.7256 13.8103 15.9714 13.541 14.6208 13.4953V15.7438C14.6208 16.0198 14.3191 16.1773 14.1079 16.0123L9.21587 12.1813C9.0449 12.0478 9.0449 11.78 9.21587 11.6458Z" fill="#333333"/>
</svg>
